{
.appVersion = "3114";
.formatVersion = 3;
DisplayStrings = (
s,
A,
B,
a,
"ת",
"!",
"\""
);
classes = (
{
code = seven;
name = kc0_first_1;
},
{
code = three;
name = kc0_first_2;
},
{
code = five;
name = kc0_first_3;
},
{
code = seven;
name = kc0_second_1;
},
{
code = three;
name = kc0_second_2;
},
{
code = five;
name = kc0_second_3;
},
{
code = "ampersand asciicircum asciitilde asterisk at backslash bar braceleft braceright bracketleft bracketright colon comma dollar eight equal exclam five four grave greater guillemotleft guillemotright hyphen less nameme.300 nine numbersign one parenleft parenright percent period plus question quotedbl quotedblleft quotedblright quoteright quotesingle semicolon seven six slash space sterling three two underscore uni00AD uni05BE uni05BF uni05D0 uni05D0.alt uni05D0.alt.yud uni05D0.yud uni05D1 uni05D1.alt uni05D2 uni05D2.alt uni05D3 uni05D3.alt uni05D4 uni05D4.alt uni05D5 uni05D5.alt uni05D6 uni05D7 uni05D8 uni05D8.yud uni05D9 uni05D9.alt uni05DA uni05DB uni05DC uni05DD uni05DE uni05DF uni05E0 uni05E1 uni05E1.alt uni05E1.yud uni05E2 uni05E3 uni05E4 uni05E5 uni05E6 uni05E6.alt uni05E7 uni05E8 uni05E8.alt uni05E9 uni05EA uni05F3 uni05F4 uniFB1E zero";
name = GDEF_base;
},
{
code = "";
name = GDEF_mark;
},
{

glyphs = (
{
color = 5;
glyphname = A;
kernLeft = kern_A3;
kernRight = kern_A3;
lastChange = "2022-02-25 02:50:13 +0000";
layers = (
{
anchors = (
{
name = bottom;
pos = (376,0);
},
{
name = right;
pos = (614,0);
},
{
name = top;
pos = (376,710);
}
);
layerId = master01;
shapes = (
{
closed = 1;
nodes = (
(249,0,l),
(249,16,l),
(152,55,l),
(156,28,l),
(386,599,l),
(335,599,l),
(566,28,l),
(578,58,l),
(469,16,l),
(469,0,l),
(717,0,l),
(717,16,l),
(610,73,l),
(660,28,l),
(398,665,l),
(353,665,l),
(88,28,l),
(119,61,l),
(33,16,l),
(33,0,l)
);
},
{
closed = 1;
nodes = (
(524,235,l),
(524,290,l),
(204,290,l),
(204,235,l)
);
}
);
width = 750;
}
);
unicode = 65;
},
{
color = 5;
glyphname = B;
kernLeft = kern_H2;
kernRight = kern_B1;
lastChange = "2022-02-25 02:50:13 +0000";
layers = (
{
layerId = master01;
shapes = (
{
closed = 1;
nodes = (
(235,0,l),
(235,660,l),
(65,660,l),
(65,644,l),
(145,604,l),
(145,56,l),
(65,16,l),
(65,0,l)
);
},
{
closed = 1;
nodes = (
(493,0,o),
(606,82,o),
(606,192,cs),
(606,298,o),
(507,363,o),
(346,363,c),
(338,348,l),
(472,348,o),
(549,426,o),
(549,512,cs),
(549,611,o),
(451,660,o),
(318,660,cs),
(182,660,l),
(182,605,l),
(295,605,ls),
(400,605,o),
(452,564,o),
(452,484,cs),
(452,411,o),
(396,368,o),
(301,368,cs),
(190,368,l),
(190,313,l),
(333,313,ls),
(446,313,o),
(509,274,o),
(509,184,cs),
(509,108,o),
(445,55,o),
(340,55,cs),
(210,55,l),
(210,0,l),
(341,0,ls)
);
}
);
width = 658;
}
);
unicode = 66;
},
{
color = 5;
glyphname = C;
kernLeft = kern_O2;
kernRight = kern_C1;
lastChange = "2022-02-25 02:50:13 +0000";
layers = (
{
anchors = (
{
name = bottom;
pos = (400,0);
},
{
name = top;
pos = (389,710);
}
);
layerId = master01;
shapes = (
{
closed = 1;
nodes = (
(510,-10,o),
(564,10,o),
(623,39,c),
(634,198,l),
(617,198,l),
(540,62,l),
(578,106,l),
(535,76,o),
(486,41,o),
(398,41,cs),
(268,41,o),
(163,152,o),
(163,342,cs),
(163,504,o),
(269,620,o),
(413,620,cs),
(467,620,o),
(502,600,o),
(565,554,c),
(529,599,l),
(605,447,l),
(623,447,l),
(618,622,l),
(563.216,648.894,o),
(515,670,o),
(415,670,cs),
(228,670,o),
(70,501.471,o),
(70,312,cs),
(70,126,o),
(195,-10,o),
(400,-10,cs)
);
}
);
width = 726;
}
);
unicode = 67;
},
{
color = 5;
glyphname = D;
kernLeft = kern_H2;
kernRight = kern_O1;
lastChange = "2022-02-25 02:50:13 +0000";
layers = (
{
anchors = (
{
name = bottom;
pos = (388,0);
},
{
name = top;
pos = (388,710);
}
);
layerId = master01;
shapes = (
{
closed = 1;
nodes = (
(235,0,l),
(235,660,l),
(65,660,l),
(65,644,l),
(145,604,l),
(145,56,l),
(65,16,l),
(65,0,l)
);
},
{
closed = 1;
nodes = (
(554,0,o),
(705,152,o),
(705,360,cs),
(705,532,o),
(579,660,o),
(358,660,cs),
(182,660,l),
(182,605,l),
(335,605,ls),
(511,605,o),
(610,496,o),
(610,329,cs),
(610,162,o),
(511,55,o),
(350,55,cs),
(210,55,l),
(210,0,l),
(351,0,ls)
);
}
);
width = 775;
}
);
unicode = 68;
},
{
color = 5;
glyphname = E;
kernLeft = kern_H2;
kernRight = kern_E1;
lastChange = "2022-02-25 02:50:13 +0000";
layers = (
{
anchors = (
{
name = bottom;
pos = (350,0);
},
{
name = right;
pos = (505,0);
},
{
name = top;
pos = (335,710);
}
);
layerId = master01;
shapes = (
{
closed = 1;
nodes = (
(235,0,l),
(235,660,l),
(65,660,l),
(65,644,l),
(145,604,l),
(145,56,l),
(65,16,l),
(65,0,l)
);
},
{
closed = 1;
nodes = (
(554,488,l),
(554,660,l),
(182,660,l),
(182,605,l),
(476,605,l),
(538,488,l)
);
},
{
closed = 1;
nodes = (
(471,232,l),
(471,451,l),
(455,451,l),
(405,368,l),
(190,368,l),
(190,313,l),
(405,313,l),
(455,232,l)
);
},
{
closed = 1;
nodes = (
(582,182,l),
(566,182,l),
(504,55,l),
(210,55,l),
(210,0,l),
(582,0,l)
);
}
);
width = 652;
}
);
unicode = 69;
},
{
color = 5;
glyphname = F;
kernLeft = kern_H2;
kernRight = kern_F1;
lastChange = "2022-02-25 02:50:13 +0000";
layers = (
{
layerId = master01;
shapes = (
{
closed = 1;
nodes = (
(325,0,l),
(325,16,l),
(235,56,l),
(235,660,l),
(65,660,l),
(65,644,l),
(145,604,l),
(145,56,l),
(65,16,l),
(65,0,l)
);
},
{
closed = 1;
nodes = (
(544,488,l),
(544,660,l),
(172,660,l),
(172,605,l),
(466,605,l),
(528,488,l)
);
},
{
closed = 1;
nodes = (
(461,232,l),
(461,451,l),
(445,451,l),
(395,368,l),
(180,368,l),
(180,313,l),
(395,313,l),
(445,232,l)
);
}
);
width = 614;
}
);
unicode = 70;
},
{
color = 5;
glyphname = G;
kernLeft = kern_O2;
kernRight = kern_G1;
lastChange = "2022-02-25 02:50:13 +0000";
layers = (
{
anchors = (
{
name = bottom;
pos = (415,0);
},
{
name = top;
pos = (400,710);
}
);
layerId = master01;
shapes = (
{
closed = 1;
nodes = (
(489,-10,o),
(588,23,o),
(649,74,c),
(649,231,l),
(718,274,l),
(718,290,l),
(470,290,l),
(470,274,l),
(559,234,l),
(559,61,l),
(588,82,l),
(533,54,o),
(485,48,o),
(432,48,cs),
(280,48,o),
(159,163,o),
(159,362,cs),
(159,510,o),
(270,620,o),
(424,620,cs),
(481,620,o),
(514,604,o),
(584,554,c),
(546,598,l),
(628,457,l),
(644,457,l),
(639,622,l),
(582,650,o),
(531,670,o),
(426,670,cs),
(230,670,o),
(70,517,o),
(70,312,cs),
(70,126,o),
(211,-10,o),
(403,-10,cs)
);
}
);
width = 768;
}
);
unicode = 71;
},
{
color = 5;
glyphname = H;
kernLeft = kern_H2;
kernRight = kern_H1;
lastChange = "2022-02-25 02:50:13 +0000";
layers = (
{
anchors = (
{
name = bottom;
pos = (405,0);
},
{
name = top;
pos = (405,710);
}
);
layerId = master01;
shapes = (
{
closed = 1;
nodes = (
(315,0,l),
(315,16,l),
(235,56,l),
(235,604,l),
(315,644,l),
(315,660,l),
(65,660,l),
(65,644,l),
(145,604,l),
(145,56,l),
(65,16,l),
(65,0,l)
);
},
{
closed = 1;
nodes = (
(620,313,l),
(620,368,l),
(190,368,l),
(190,313,l)
);
},
{
closed = 1;
nodes = (
(745,0,l),
(745,16,l),
(665,56,l),
(665,604,l),
(745,644,l),
(745,660,l),
(495,660,l),
(495,644,l),
(575,604,l),
(575,56,l),
(495,16,l),
(495,0,l)
);
}
);
width = 810;
}
);
unicode = 72;
},
{
color = 5;
glyphname = I;
kernLeft = kern_H2;
kernRight = kern_H1;
lastChange = "2022-02-25 02:50:13 +0000";
layers = (
{
anchors = (
{
name = bottom;
pos = (195,0);
},
{
name = right;
pos = (212,0);
},
{
name = top;
pos = (195,710);
}
);
layerId = master01;
shapes = (
{
closed = 1;
nodes = (
(320,0,l),
(320,16,l),
(240,56,l),
(240,604,l),
(320,644,l),
(320,660,l),
(70,660,l),
(70,644,l),
(150,604,l),
(150,56,l),
(70,16,l),
(70,0,l)
);
}
);
width = 390;
}
);
unicode = 73;
},
{
color = 5;
glyphname = J;
kernLeft = kern_J2;
kernRight = kern_J1;
lastChange = "2022-02-25 02:50:13 +0000";
layers = (
{
anchors = (
{
name = top;
pos = (195,710);
}
);
layerId = master01;
shapes = (
{
closed = 1;
nodes = (
(86,-173,o),
(103,-163,o),
(161,-99,cs),
(219,-35,o),
(240,90.385,o),
(240,240,cs),
(240,604,l),
(320,644,l),
(320,660,l),
(70,660,l),
(70,644,l),
(150,604,l),
(150,51,ls),
(150,-83,o),
(123,-100,o),
(80,-100,cs),
(62,-100,o),
(52,-97,o),
(29,-91,c),
(23,-91,l),
(13,-139,o),
(13,-142,o),
(13,-145,cs),
(13,-166,o),
(29,-173,o),
(46,-173,cs)
);
}
);
width = 390;
}
);
unicode = 74;
},
{
color = 5;
glyphname = K;
kernLeft = kern_H2;
kernRight = kern_K1;
lastChange = "2022-02-25 02:50:13 +0000";
layers = (
{
anchors = (
{
name = bottom;
pos = (385,0);
},
{
name = top;
pos = (385,710);
}
);
layerId = master01;
shapes = (
{
closed = 1;
nodes = (
(315,0,l),
(315,16,l),
(235,56,l),
(235,604,l),
(315,644,l),
(315,660,l),
(65,660,l),
(65,644,l),
(145,604,l),
(145,56,l),
(65,16,l),
(65,0,l)
);
},
{
closed = 1;
nodes = (
(560,0,l),
(704,0,l),
(704,16,l),
(604,59,l),
(654,31,l),
(303,386,l),
(303,338,l),
(609,638,l),
(568,611,l),
(652,644,l),
(652,660,l),
(442,660,l),
(442,644,l),
(530,602,l),
(530,627,l),
(236,338,l)
);
}
);
width = 719;
}
);
unicode = 75;
},
{
color = 5;
glyphname = L;
kernLeft = kern_H2;
kernRight = kern_L1;
lastChange = "2022-02-25 02:50:13 +0000";
layers = (
{
anchors = (
{
name = bottom;
pos = (354,0);
},
{
name = mid;
pos = (490,347);
},
{
name = right;
pos = (475,660);
},
{
name = top;
pos = (190,710);
}
);
layerId = master01;
shapes = (
{
closed = 1;
nodes = (
(562,0,l),
(562,222,l),
(546,222,l),
(478,55,l),
(235,55,l),
(235,604,l),
(325,644,l),
(325,660,l),
(65,660,l),
(65,644,l),
(145,604,l),
(145,56,l),
(65,16,l),
(65,0,l)
);
}
);
width = 632;
}
);
unicode = 76;
},
{
color = 5;
glyphname = M;
kernLeft = kern_M3;
kernRight = kern_M3;
lastChange = "2022-02-25 02:50:13 +0000";
layers = (
{
anchors = (
{
name = bottom;
pos = (472,0);
}
);
layerId = master01;
shapes = (
{
closed = 1;
nodes = (
(282,0,l),
(282,16,l),
(201,55,l),
(217,642,l),
(161,642,l),
(139,56,l),
(60,16,l),
(60,0,l)
);
},
{
closed = 1;
nodes = (
(494,-5,l),
(754,597,l),
(797,597,l),
(896,644,l),
(896,660,l),
(720,660,l),
(465,71,l),
(514,71,l),
(259,660,l),
(74,660,l),
(74,644,l),
(173,597,l),
(190,597,l),
(449,-5,l)
);
},
{
closed = 1;
nodes = (
(899,0,l),
(899,16,l),
(829,56,l),
(811,642,l),
(731,642,l),
(743,55,l),
(669,16,l),
(669,0,l)
);
}
);
width = 959;
}
);
unicode = 77;
},
{
color = 5;
glyphname = N;
kernLeft = kern_H2;
kernRight = kern_N1;
lastChange = "2022-02-25 02:50:13 +0000";
layers = (
{
anchors = (
{
name = bottom;
pos = (420,0);
},
{
name = top;
pos = (410,710);
}
);
layerId = master01;
shapes = (
{
closed = 1;
nodes = (
(310,0,l),
(310,16,l),
(210,55,l),
(210,561,l),
(174,561,l),
(623,-5,l),
(660,-5,l),
(660,605,l),
(739,644,l),
(739,660,l),
(490,660,l),
(490,644,l),
(590,606,l),
(590,100,l),
(654,100,l),
(208,660,l),
(61,660,l),
(61,644,l),
(140,602,l),
(140,56,l),
(60,16,l),
(60,0,l)
);
}
);
width = 799;
}
);
unicode = 78;
},
{
color = 5;
glyphname = O;
kernLeft = kern_O2;
kernRight = kern_O1;
lastChange = "2022-02-25 02:50:13 +0000";
layers = (
{
anchors = (
{
name = bottom;
pos = (417,0);
},
{
name = right;
pos = (431,0);
},
{
name = top;
pos = (391,710);
}
);
layerId = master01;
shapes = (
{
closed = 1;
nodes = (
(595,-10,o),
(737,134,o),
(737,330,cs),
(737,526,o),
(595,670,o),
(403,670,cs),
(212,670,o),
(70,526,o),
(70,330,cs),
(70,134,o),
(212,-10,o),
(403,-10,cs)
);
},
{
closed = 1;
nodes = (
(281,40,o),
(167,168,o),
(167,363,cs),
(167,521,o),
(258,621,o),
(386,621,cs),
(528,621,o),
(640,494,o),
(640,299,cs),
(640,141,o),
(552,40,o),
(424,40,cs)
);
}
);
width = 807;
}
);
unicode = 79;
},
{
color = 5;
glyphname = P;
kernLeft = kern_H2;
kernRight = kern_P1;
lastChange = "2022-02-25 02:50:13 +0000";
layers = (
{
layerId = master01;
shapes = (
{
closed = 1;
nodes = (
(325,0,l),
(325,16,l),
(235,56,l),
(235,605,l),
(313,605,ls),
(426,605,o),
(489,566,o),
(489,473,cs),
(489,398,o),
(425,346,o),
(320,346,cs),
(210,346,l),
(210,291,l),
(301,291,ls),
(464,291,o),
(586,372,o),
(586,481,cs),
(586,605,o),
(482,660,o),
(325,660,cs),
(65,660,l),
(65,644,l),
(145,604,l),
(145,56,l),
(65,16,l),
(65,0,l)
);
}
);
width = 638;
}
);
unicode = 80;
},
{
color = 5;
glyphname = Q;
kernLeft = kern_O2;
kernRight = kern_O1;
lastChange = "2022-02-25 02:50:13 +0000";
layers = (
{
layerId = master01;
shapes = (
{
closed = 1;
nodes = (
(595,-10,o),
(737,134,o),
(737,330,cs),
(737,526,o),
(595,670,o),
(403,670,cs),
(212,670,o),
(70,526,o),
(70,330,cs),
(70,134,o),
(212,-10,o),
(403,-10,cs)
);
},
{
closed = 1;
nodes = (
(281,40,o),
(167,168,o),
(167,363,cs),
(167,521,o),
(258,621,o),
(386,621,cs),
(528,621,o),
(640,494,o),
(640,299,cs),
(640,141,o),
(552,40,o),
(424,40,cs)
);
},
{
closed = 1;
nodes = (
(732,-149,o),
(776,-138,o),
(807,-122,c),
(807,-106,l),
(792,-111,o),
(771,-115,o),
(743,-115,cs),
(673,-115,o),
(606,-83,o),
(483,16,c),
(347,16,l),
(515,-126,o),
(599,-149,o),
(682,-149,cs)
);
}
);
width = 807;
}
);
unicode = 81;
},
{
color = 5;
glyphname = R;
kernLeft = kern_H2;
kernRight = kern_R1;
lastChange = "2022-02-25 02:50:13 +0000";
layers = (
{
anchors = (
{
name = bottom;
pos = (367,0);
},
{
name = top;
pos = (317,710);
}
);
layerId = master01;
shapes = (
{
closed = 1;
nodes = (
(310,0,l),
(310,16,l),
(235,57,l),
(235,660,l),
(65,660,l),
(65,644,l),
(145,604,l),
(145,56,l),
(65,16,l),
(65,0,l)
);
},
{
closed = 1;
nodes = (
(549,598,o),
(463,660,o),
(323,660,cs),
(182,660,l),
(182,605,l),
(300,605,ls),
(394,605,o),
(452,559,o),
(452,484,cs),
(452,411,o),
(390,358,o),
(306,358,cs),
(190,358,l),
(190,303,l),
(333,303,l),
(333,312,l),
(457,324,o),
(549,401,o),
(549,497,cs)
);
},
{
closed = 1;
nodes = (
(666,0,l),
(666,16,l),
(600,52,l),
(402,341,l),
(304,341,l),
(522,0,l)
);
}
);
width = 661;
}
);
unicode = 82;
},
{
color = 5;
glyphname = S;
kernLeft = kern_S3;
kernRight = kern_S3;
lastChange = "2022-02-25 02:50:13 +0000";
layers = (
{
anchors = (
{
name = bottom;
pos = (272,0);
},
{
name = top;
pos = (272,710);
}
);
layerId = master01;
shapes = (
{
closed = 1;
nodes = (
(356,-10,o),
(476,55,o),
(476,180,cs),
(476,282,o),
(420,319,o),
(299,378,cs),
(211,421,o),
(171,450,o),
(171,518,cs),
(171,577,o),
(213,622,o),
(272,622,cs),
(320,622,o),
(351,606,o),
(402,566,c),
(384,593,l),
(439,468,l),
(455,468,l),
(445,628,l),
(391,655,o),
(342,670,o),
(280,670,cs),
(179,670,o),
(81,577,o),
(81,487,cs),
(81,395,o),
(134,357,o),
(228,310,cs),
(328,260,o),
(390,239,o),
(390,152,cs),
(390,81,o),
(343,37,o),
(264,37,cs),
(215,37,o),
(168,56,o),
(115,102,c),
(142,56,l),
(76,200,l),
(60,200,l),
(70,36,l),
(132,5,o),
(182,-10,o),
(264,-10,cs)
);
}
);
width = 531;
}
);
unicode = 83;
},
{
color = 5;
glyphname = T;
kernLeft = kern_T2;
kernRight = kern_T1;
lastChange = "2022-02-25 02:50:13 +0000";
layers = (
{
anchors = (
{
name = bottom;
pos = (337,0);
},
{
name = top;
pos = (337,710);
}
);
layerId = master01;
shapes = (
{
closed = 1;
nodes = (
(482,0,l),
(482,16,l),
(382,56,l),
(382,605,l),
(545,605,l),
(613,458,l),
(629,458,l),
(629,660,l),
(45,660,l),
(45,458,l),
(61,458,l),
(129,605,l),
(292,605,l),
(292,56,l),
(192,16,l),
(192,0,l)
);
}
);
width = 674;
}
);
unicode = 84;
},
{
color = 5;
glyphname = U;
kernLeft = kern_U2;
kernRight = kern_U1;
lastChange = "2022-02-25 02:50:13 +0000";
layers = (
{
anchors = (
{
name = bottom;
pos = (402,0);
},
{
name = right;
pos = (431,0);
},
{
name = top;
pos = (415,710);
}
);
layerId = master01;
shapes = (
{
closed = 1;
nodes = (
(554,-10,o),
(665,70,o),
(665,256,cs),
(665,605,l),
(744,644,l),
(744,660,l),
(495,660,l),
(495,644,l),
(595,606,l),
(595,236,ls),
(595,101,o),
(519,48,o),
(431,48,cs),
(321,48,o),
(235,105,o),
(235,271,cs),
(235,604,l),
(315,644,l),
(315,660,l),
(65,660,l),
(65,644,l),
(145,604,l),
(145,256,ls),
(145,70,o),
(256,-10,o),
(405,-10,cs)
);
}
);
width = 809;
}
);
unicode = 85;
},
{
color = 5;
glyphname = V;
kernLeft = kern_V3;
kernRight = kern_V3;
lastChange = "2022-02-25 02:50:13 +0000";
layers = (
{
layerId = master01;
shapes = (
{
closed = 1;
nodes = (
(391,-5,l),
(656,632,l),
(632,605,l),
(705,644,l),
(705,660,l),
(495,660,l),
(495,644,l),
(577,610,l),
(577,606,l),
(373,99,l),
(411,144,l),
(366,144,l),
(404,99,l),
(199,602,l),
(199,607,l),
(285,644,l),
(285,660,l),
(35,660,l),
(35,644,l),
(144,588,l),
(94,632,l),
(356,-5,l)
);
}
);
width = 740;
}
);
unicode = 86;
},
{
color = 5;
glyphname = W;
kernLeft = kern_W3;
kernRight = kern_W3;
lastChange = "2022-02-25 02:50:13 +0000";
layers = (
{
anchors = (
{
name = top;
pos = (506,710);
}
);
layerId = master01;
shapes = (
{
closed = 1;
nodes = (
(309,-5,l),
(512,543,l),
(471,485,l),
(516,485,l),
(475,543,l),
(678,-5,l),
(713,-5,l),
(906,632,l),
(876,595,l),
(966,644,l),
(966,660,l),
(745,660,l),
(745,644,l),
(854,595,l),
(838,632,l),
(694,129,l),
(726,174,l),
(681,174,l),
(717,129,l),
(524,665,l),
(487,665,l),
(296,122,l),
(333,174,l),
(288,174,l),
(324,122,l),
(177,632,l),
(150,592,l),
(269,644,l),
(269,660,l),
(15,660,l),
(15,644,l),
(124,592,l),
(83,632,l),
(274,-5,l)
);
}
);
width = 981;
}
);
unicode = 87;
},
{
color = 5;
glyphname = X;
kernLeft = kern_X3;
kernRight = kern_X3;
lastChange = "2022-02-25 02:50:13 +0000";
layers = (
{
layerId = master01;
shapes = (
{
closed = 1;
nodes = (
(705,0,l),
(705,16,l),
(596,76,l),
(664,16,l),
(220,602,l),
(220,607,l),
(300,644,l),
(300,660,l),
(50,660,l),
(50,644,l),
(159,584,l),
(96,632,l),
(523,56,l),
(523,52,l),
(450,16,l),
(450,0,l)
);
},
{
closed = 1;
nodes = (
(260,0,l),
(260,16,l),
(179,52,l),
(179,56,l),
(374,313,l),
(338,352,l),
(85,24,l),
(136,68,l),
(35,16,l),
(35,0,l)
);
},
{
closed = 1;
nodes = (
(470,660,l),
(470,644,l),
(546,607,l),
(546,603,l),
(366,373,l),
(399,327,l),
(636,632,l),
(599,597,l),
(680,644,l),
(680,660,l)
);
}
);
width = 740;
}
);
unicode = 88;
},
{
color = 5;
glyphname = Y;
kernLeft = kern_Y3;
kernRight = kern_Y3;
lastChange = "2022-02-25 02:50:13 +0000";
layers = (
{
anchors = (
{
name = bottom;
pos = (363,0);
},
{
name = top;
pos = (374,710);
}
);
layerId = master01;
shapes = (
{
closed = 1;
nodes = (
(498,0,l),
(498,16,l),
(408,56,l),
(408,332,l),
(378,266,l),
(634,632,l),
(598,600,l),
(683,644,l),
(683,660,l),
(471,660,l),
(471,644,l),
(544,608,l),
(544,604,l),
(372,346,l),
(395,346,l),
(204,605,l),
(204,609,l),
(277,644,l),
(277,660,l),
(35,660,l),
(35,644,l),
(130,592,l),
(80,632,l),
(349,266,l),
(318,332,l),
(318,56,l),
(228,16,l),
(228,0,l)
);
}
);
width = 718;
}
);
unicode = 89;
},
{
color = 5;
glyphname = Z;
kernLeft = kern_Z3;
kernRight = kern_Z3;
lastChange = "2022-02-25 02:50:13 +0000";
layers = (
{
anchors = (
{
name = bottom;
pos = (333,0);
},
{
name = top;
pos = (333,710);
}
);
layerId = master01;
shapes = (
{
closed = 1;
nodes = (
(556,0,l),
(556,192,l),
(540,192,l),
(478,55,l),
(182,55,l),
(182,19,l),
(545,635,l),
(545,660,l),
(102,660,l),
(102,478,l),
(118,478,l),
(180,605,l),
(452,605,l),
(452,641,l),
(90,25,l),
(90,0,l)
);
}
);
width = 646;
}
);
unicode = 90;
},
{
color = 5;
glyphname = a;
kernLeft = kernLC_a2;
kernRight = kernLC_a1;
lastChange = "2022-02-25 03:02:49 +0000";
layers = (
{
anchors = (
{
name = bottom;
pos = (237,0);
},
{
name = right;
pos = (402,0);
},
{
name = top;
pos = (225,510);
}
);
layerId = master01;
shapes = (
{
closed = 1;
nodes = (
(212,-10,o),
(266,16,o),
(301,50,c),
(319,50,l),
(319,83,l),
(269,60,o),
(237,52,o),
(200,52,cs),
(152,52,o),
(125,73,o),
(125,114,cs),
(125,162,o),
(144,197,o),
(333,229,c),
(333,265,l),
(206,235,ls),
(91,208,o),
(47,159,o),
(47,94,c),
(47,29,o),
(93,-10,o),
(156,-10,cs)
);
},
{
closed = 1;
nodes = (
(430,-10,o),
(462,16,o),
(478,45,c),
(478,48,l),
(475,50,l),
(437,50,ls),
(407,50,o),
(390,57,o),
(381,67,c),
(381,351,ls),
(381,435,o),
(308,460,o),
(237,460,cs),
(191,460,o),
(150,442,o),
(113,418,cs),
(77,395,o),
(60,362,o),
(60,333,cs),
(60,309,o),
(66,305,o),
(86,305,cs),
(138,305,l),
(143,310,l),
(143,338,ls),
(143,384,o),
(160,413,o),
(211,413,cs),
(257,413,o),
(301,376,o),
(301,330,cs),
(301,71,l),
(303,71,l),
(309,23,o),
(336,-10,o),
(385,-10,cs)
);
}
);
width = 489;
}
);
unicode = 97;
},
{
color = 5;
glyphname = b;
kernLeft = kern_b2;
kernRight = kernLC_o1;
lastChange = "2022-02-25 03:02:49 +0000";
layers = (
{
layerId = master01;
shapes = (
{
closed = 1;
nodes = (
(109,-10,l),
(183,65,l),
(183,750,l),
(177,750,l),
(43,695,l),
(43,688,l),
(103,636,l),
(103,-10,l)
);
},
{
closed = 1;
nodes = (
(409,-10,o),
(511,83,o),
(511,247,cs),
(511,379,o),
(438,460,o),
(337,460,cs),
(283,460,o),
(238,441,o),
(187,398,c),
(173,398,l),
(173,354,l),
(207,379,o),
(246,391,o),
(282,391,cs),
(364,391,o),
(431,340,o),
(431,224,cs),
(431,90,o),
(372,38,o),
(303,38,cs),
(252,38,o),
(214,51,o),
(173,88,c),
(123,20,l),
(166,3,o),
(217,-10,o),
(277,-10,cs)
);
}
);
width = 560;
}
);
unicode = 98;
},
{
color = 5;
glyphname = c;
kernLeft = kernLC_o2;
kernRight = kernLC_c1;
lastChange = "2022-02-25 03:02:49 +0000";
layers = (
{
anchors = (
{
name = bottom;
pos = (260,0);
},
{
name = top;
pos = (264,510);
}
);
layerId = master01;
shapes = (
{
closed = 1;
nodes = (
(340,-10,o),
(403,37,o),
(434,95,c),
(434,105,l),
(431,105,l),
(381,78,o),
(339,65,o),
(302,65,cs),
(171,65,o),
(129,155,o),
(129,251,cs),
(129,355,o),
(174,416,o),
(247,416,cs),
(291,416,o),
(320,398,o),
(340,371,cs),
(374,325,l),
(381,325,l),
(419,357,ls),
(429,365,o),
(432,371,o),
(432,381,cs),
(432,389,o),
(427,398,o),
(416,411,cs),
(390,440,o),
(334,460,o),
(280,460,cs),
(150,460,o),
(50,354,o),
(50,205,cs),
(50,75,o),
(130,-10,o),
(259,-10,cs)
);
}
);
width = 479;
}
);
unicode = 99;
},
{
color = 5;
glyphname = d;
kernLeft = kernLC_o2;
kernRight = kernLC_l1;
lastChange = "2022-02-25 03:02:49 +0000";
layers = (
{
anchors = (
{
name = bottom;
pos = (271,0);
},
{
name = right;
pos = (577,740);
}
);
layerId = master01;
shapes = (
{
closed = 1;
nodes = (
(272,-10,o),
(316,8,o),
(367,51,c),
(382,51,l),
(382,96,l),
(348,71,o),
(309,59,o),
(273,59,cs),
(191,59,o),
(124,107,o),
(124,217,cs),
(124,357,o),
(192,411,o),
(272,411,cs),
(319,411,o),
(350,390,o),
(392,352,c),
(432,430,l),
(393,447,o),
(358,460,o),
(285,460,cs),
(155,460,o),
(44,364,o),
(44,194,cs),
(44,68,o),
(117,-10,o),
(218,-10,cs)
);
},
{
closed = 1;
nodes = (
(523,0,l),
(523,16,l),
(452,45,l),
(452,750,l),
(446,750,l),
(307,695,l),
(307,688,l),
(372,636,l),
(372,60,l),
(382,0,l)
);
}
);
width = 559;
}
);
unicode = 100;
},
{
color = 5;
glyphname = e;
kernLeft = kernLC_o2;
kernRight = kernLC_e1;
lastChange = "2022-02-25 03:02:49 +0000";
layers = (
{
anchors = (
{
name = bottom;
pos = (264,0);
},
{
name = right;
pos = (358,0);
},
{
name = top;
pos = (260,510);
}
);
layerId = master01;
shapes = (
{
closed = 1;
nodes = (
(340,-10,o),
(403,37,o),
(434,95,c),
(434,105,l),
(431,105,l),
(381,78,o),
(339,65,o),
(302,65,cs),
(171,65,o),
(129,155,o),
(129,251,cs),
(129,355,o),
(174,416,o),
(247,416,cs),
(306,416,o),
(343,377,o),
(358,284,c),
(376,288,l),
(119,288,l),
(119,242,l),
(428,242,l),
(433,247,l),
(433,384,o),
(368,460,o),
(263,460,cs),
(150,460,o),
(50,354,o),
(50,205,cs),
(50,75,o),
(130,-10,o),
(259,-10,cs)
);
}
);
width = 484;
}
);
unicode = 101;
},
{
color = 5;
glyphname = f;
kernLeft = kernLC_f2;
kernRight = kernLC_f1;
lastChange = "2022-02-25 03:02:49 +0000";
layers = (
{
layerId = master01;
shapes = (
{
closed = 1;
nodes = (
(268,0,l),
(268,16,l),
(197,46,l),
(197,530,ls),
(197,622,o),
(216,668,o),
(289,668,cs),
(315,668,o),
(334,665,o),
(354,657,cs),
(381,646,l),
(388,646,l),
(408,695,ls),
(411,702,o),
(412,708,o),
(412,713,cs),
(412,725,o),
(402,732,o),
(382,741,cs),
(373,745,o),
(358,750,o),
(346,750,cs),
(204,750,o),
(117,555,o),
(117,490,cs),
(117,48,l),
(54,16,l),
(54,0,l)
);
},
{
closed = 1;
nodes = (
(329,403,l),
(329,450,l),
(39,450,l),
(39,403,l)
);
}
);
width = 342;
}
);
unicode = 102;
},
{
color = 5;
glyphname = g;
kernLeft = kernLC_g3;
kernRight = kernLC_g3;
lastChange = "2022-02-25 03:02:49 +0000";
layers = (
{
anchors = (
{
name = top;
pos = (263,510);
}
);
layerId = master01;
shapes = (
{
closed = 1;
nodes = (
(360,142,o),
(436,210,o),
(436,301,cs),
(436,346,o),
(412,394,o),
(380,414,c),
(351,439,l),
(328,451,o),
(288,460,o),
(258,460,cs),
(156,460,o),
(80,391,o),
(80,301,cs),
(80,210,o),
(156,142,o),
(258,142,cs)
);
},
{
closed = 1;
nodes = (
(206,183,o),
(162,233.802,o),
(162,304,cs),
(162,367.472,o),
(194,420,o),
(251,420,cs),
(309,420,o),
(354,371.015,o),
(354,298,cs),
(354,235.571,o),
(321,183,o),
(268,183,cs)
);
},
{
closed = 1;
nodes = (
(496,450,l),
(334,441,l),
(334,387,l),
(387,387,l),
(403,402,l),
(496,396,l)
);
},
{
closed = 1;
nodes = (
(383,-240,o),
(473,-154,o),
(473,-68,cs),
(473,16,o),
(428,59,o),
(331,59,cs),
(211,59,ls),
(162,59,o),
(140,74,o),
(140,109,cs),
(140,131,o),
(152,151,o),
(185,161,c),
(185,178,l),
(150,178,l),
(150,167,l),
(96,139,l),
(78,121,o),
(70,101,o),
(70,75,cs),
(70,24,o),
(112,-10,o),
(185,-10,cs),
(292,-10,ls),
(373,-10,o),
(400,-29,o),
(400,-88,cs),
(400,-152,o),
(340,-212,o),
(251,-212,cs),
(184,-212,o),
(132,-169,o),
(132,-110,cs),
(132,-58,o),
(147,-24,o),
(195,-2,c),
(195,5,l),
(148,5,l),
(148,-11,l),
(79,-57,l),
(67,-75,o),
(61,-96,o),
(61,-121,cs),
(61,-188,o),
(112,-240,o),
(239,-240,cs)
);
}
);
width = 546;
}
);
unicode = 103;
},
{
color = 5;
glyphname = h;
kernLeft = kernLC_l2;
kernRight = kernLC_n1;
lastChange = "2022-02-25 03:02:49 +0000";
layers = (
{
anchors = (
{
name = bottom;
pos = (296,0);
},
{
name = top;
pos = (296,765);
}
);
layerId = master01;
shapes = (
{
closed = 1;
nodes = (
(262,0,l),
(262,16,l),
(191,45,l),
(191,750,l),
(185,750,l),
(51,695,l),
(51,688,l),
(111,636,l),
(111,48,l),
(48,16,l),
(48,0,l)
);
},
{
closed = 1;
nodes = (
(544,0,l),
(544,16,l),
(481,48,l),
(481,343,ls),
(481,420,o),
(425,460,o),
(347,460,cs),
(290,460,o),
(246,437,o),
(195,386,c),
(183,386,l),
(183,342,l),
(205,371,o),
(262,386,o),
(302,386,cs),
(360,386,o),
(401,355,o),
(401,296,cs),
(401,45,l),
(330,16,l),
(330,0,l)
);
}
);
width = 582;
}
);
unicode = 104;
},
{
color = 5;
glyphname = i;
kernLeft = kernLC_i2;
kernRight = kernLC_i1;
lastChange = "2022-02-25 03:02:49 +0000";
layers = (
{
anchors = (
{
name = bottom;
pos = (157,0);
},
{
name = right;
pos = (175,0);
},
{
name = top;
pos = (157,510);
}
);
layerId = master01;
shapes = (
{
closed = 1;
nodes = (
(260,0,l),
(260,16,l),
(197,48,l),
(197,460,l),
(191,460,l),
(57,405,l),
(57,398,l),
(117,346,l),
(117,48,l),
(54,16,l),
(54,0,l)
);
},
{
closed = 1;
nodes = (
(188,581,o),
(214,607,o),
(214,641,cs),
(214,676,o),
(188,701,o),
(154,701,cs),
(119,701,o),
(94,676,o),
(94,641,cs),
(94,607,o),
(119,581,o),
(154,581,cs)
);
}
);
width = 313;
}
);
unicode = 105;
},
{
color = 5;
glyphname = j;
kernLeft = kernLC_j2;
kernRight = kernLC_i1;
lastChange = "2022-02-25 03:02:49 +0000";
layers = (
{
anchors = (
{
name = top;
pos = (157,510);
}
);
layerId = master01;
shapes = (
{
closed = 1;
nodes = (
(164,-177,o),
(197,-101,o),
(197,0,cs),
(197,460,l),
(191,460,l),
(57,405,l),
(57,398,l),
(117,346,l),
(117,-10,ls),
(117,-122,o),
(100,-171,o),
(54,-214,c),
(54,-230,l)
);
},
{
closed = 1;
nodes = (
(188,581,o),
(214,607,o),
(214,641,cs),
(214,676,o),
(188,701,o),
(154,701,cs),
(119,701,o),
(94,676,o),
(94,641,cs),
(94,607,o),
(119,581,o),
(154,581,cs)
);
}
);
width = 314;
}
);
unicode = 106;
},
{
color = 5;
glyphname = k;
kernLeft = kernLC_l2;
kernRight = kernLC_k1;
lastChange = "2022-02-25 03:02:49 +0000";
layers = (
{
anchors = (
{
name = bottom;
pos = (295,0);
}
);
layerId = master01;
shapes = (
{
closed = 1;
nodes = (
(262,0,l),
(262,16,l),
(191,45,l),
(191,750,l),
(185,750,l),
(51,695,l),
(51,688,l),
(111,636,l),
(111,48,l),
(48,16,l),
(48,0,l)
);
},
{
closed = 1;
nodes = (
(530,0,l),
(530,16,l),
(466,50,l),
(244,294,l),
(244,257,l),
(429,399,l),
(493,434,l),
(493,450,l),
(303,450,l),
(303,434,l),
(352,398,l),
(352,392,l),
(191,255,l),
(191,240,l),
(360,52,l),
(398,0,l)
);
}
);
width = 558;
}
);
unicode = 107;
},
{
color = 5;
glyphname = l;
kernLeft = kernLC_l2;
kernRight = kernLC_l1;
lastChange = "2022-02-25 03:02:49 +0000";
layers = (
{
anchors = (
{
name = bottom;
pos = (147,0);
},
{
name = mid;
pos = (295,300);
},
{
name = right;
pos = (313,740);
},
{
name = top;
pos = (147,765);
}
);
layerId = master01;
shapes = (
{
closed = 1;
nodes = (
(250,0,l),
(250,16,l),
(187,48,l),
(187,750,l),
(181,750,l),
(47,695,l),
(47,688,l),
(107,636,l),
(107,48,l),
(44,16,l),
(44,0,l)
);
}
);
width = 294;
}
);
unicode = 108;
},
{
color = 5;
glyphname = m;
kernLeft = kernLC_n2;
kernRight = kernLC_n1;
lastChange = "2022-02-25 03:02:49 +0000";
layers = (
{
anchors = (
{
name = bottom;
pos = (431,0);
}
);
layerId = master01;
shapes = (
{
closed = 1;
nodes = (
(256,0,l),
(256,16,l),
(191,48,l),
(191,380,l),
(181,460,l),
(175,460,l),
(51,405,l),
(51,398,l),
(111,346,l),
(111,48,l),
(48,16,l),
(48,0,l)
);
},
{
closed = 1;
nodes = (
(540,0,l),
(540,16,l),
(471,48,l),
(471,343,l),
(471,420,o),
(417,460,o),
(342,460,cs),
(287,460,o),
(245,437,o),
(195,386,c),
(183,386,l),
(183,342,l),
(205,371,o),
(259,386,o),
(297,386,cs),
(352,386,o),
(391,355,o),
(391,296,cs),
(391,48,l),
(324,16,l),
(324,0,l)
);
},
{
closed = 1;
nodes = (
(822,0,l),
(822,16,l),
(759,48,l),
(759,343,ls),
(759,420,o),
(705,460,o),
(630,460,cs),
(571,460,o),
(527,433,o),
(471,374,c),
(460,374,l),
(460,328,l),
(484,366,o),
(532,386,o),
(585,386,cs),
(640,386,o),
(679,355,o),
(679,296,cs),
(679,48,l),
(608,16,l),
(608,0,l)
);
}
);
width = 860;
}
);
unicode = 109;
},
{
color = 5;
glyphname = n;
kernLeft = kernLC_n2;
kernRight = kernLC_n1;
lastChange = "2022-02-25 03:02:49 +0000";
layers = (
{
anchors = (
{
name = bottom;
pos = (296,0);
},
{
name = top;
pos = (296,510);
}
);
layerId = master01;
shapes = (
{
closed = 1;
nodes = (
(262,0,l),
(262,16,l),
(191,48,l),
(191,380,l),
(181,460,l),
(175,460,l),
(51,405,l),
(51,398,l),
(111,346,l),
(111,48,l),
(48,16,l),
(48,0,l)
);
},
{
closed = 1;
nodes = (
(544,0,l),
(544,16,l),
(481,48,l),
(481,343,ls),
(481,420,o),
(425,460,o),
(347,460,cs),
(290,460,o),
(246,437,o),
(195,386,c),
(183,386,l),
(183,342,l),
(205,371,o),
(262,386,o),
(302,386,cs),
(360,386,o),
(401,355,o),
(401,296,cs),
(401,48,l),
(330,16,l),
(330,0,l)
);
}
);
width = 582;
}
);
unicode = 110;
},
{
color = 5;
glyphname = o;
kernLeft = kernLC_o2;
kernRight = kernLC_o1;
lastChange = "2022-02-25 03:02:49 +0000";
layers = (
{
anchors = (
{
name = bottom;
pos = (276,0);
},
{
name = right;
pos = (306,0);
},
{
name = top;
pos = (267,510);
}
);
layerId = master01;
shapes = (
{
closed = 1;
nodes = (
(401,-10,o),
(490,91,o),
(490,225,cs),
(490,359,o),
(401,460,o),
(270,460,cs),
(139,460,o),
(50,359,o),
(50,225,cs),
(50,91,o),
(139,-10,o),
(270,-10,cs)
);
},
{
closed = 1;
nodes = (
(182.703,33,o),
(140,140,o),
(140,246,cs),
(140,333,o),
(176,418,o),
(258,418,cs),
(359,418,o),
(400,311,o),
(400,205,cs),
(400,119,o),
(365.299,33,o),
(284,33,cs)
);
}
);
width = 540;
}
);
unicode = 111;
},
{
color = 5;
glyphname = p;
kernLeft = kernLC_n2;
kernRight = kernLC_o1;
lastChange = "2022-02-25 03:02:49 +0000";
layers = (
{
layerId = master01;
shapes = (
{
closed = 1;
nodes = (
(262,-230,l),
(262,-214,l),
(191,-182,l),
(191,380,l),
(181,460,l),
(175,460,l),
(51,405,l),
(51,398,l),
(111,346,l),
(111,-182,l),
(48,-214,l),
(48,-230,l)
);
},
{
closed = 1;
nodes = (
(417,-10,o),
(519,83,o),
(519,247,cs),
(519,379,o),
(446,460,o),
(345,460,cs),
(291,460,o),
(247,442,o),
(196,399,c),
(181,399,l),
(181,354,l),
(215,379,o),
(254,391,o),
(290,391,cs),
(372,391,o),
(439,337,o),
(439,214,cs),
(439,87,o),
(385,38,o),
(321,38,cs),
(266,38,o),
(224,50,o),
(181,88,c),
(131,20,l),
(174,1,o),
(225,-10,o),
(292,-10,cs)
);
}
);
width = 567;
}
);
unicode = 112;
},
{
color = 5;
glyphname = q;
kernLeft = kernLC_o2;
kernRight = kernLC_q1;
lastChange = "2022-02-25 03:02:49 +0000";
layers = (
{
layerId = master01;
shapes = (
{
closed = 1;
nodes = (
(519,-230,l),
(519,-214,l),
(456,-183,l),
(456,460,l),
(450,460,l),
(382,427,l),
(439,427,l),
(384,447,o),
(347,460,o),
(289,460,cs),
(159,460,o),
(48,364,o),
(48,194,cs),
(48,68,o),
(121,-10,o),
(222,-10,cs),
(275,-10,o),
(324,10,o),
(370,50,c),
(388,50,l),
(388,97,l),
(355,72,o),
(310,59,o),
(277,59,cs),
(195,59,o),
(128,107,o),
(128,217,cs),
(128,357,o),
(191,411,o),
(266,411,cs),
(302,411,o),
(336,405,o),
(364,381,cs),
(375,372,o),
(376,370,o),
(376,321,c),
(376,-186,l),
(305,-214,l),
(305,-230,l)
);
}
);
width = 558;
}
);
unicode = 113;
},
{
color = 5;
glyphname = r;
kernLeft = kernLC_n2;
kernRight = kernLC_r1;
lastChange = "2022-02-25 03:02:49 +0000";
layers = (
{
anchors = (
{
name = bottom;
pos = (155,0);
},
{
name = top;
pos = (222,510);
}
);
layerId = master01;
shapes = (
{
closed = 1;
nodes = (
(266,0,l),
(266,16,l),
(195,48,l),
(195,367,l),
(185,460,l),
(179,460,l),
(55,405,l),
(55,398,l),
(115,346,l),
(115,48,l),
(52,16,l),
(52,0,l)
);
},
{
closed = 1;
nodes = (
(279,378,o),
(293,377,o),
(308,371,cs),
(346,356,l),
(353,356,l),
(373,405,ls),
(376,412,o),
(377,418,o),
(377,423,cs),
(377,435,o),
(362,445,o),
(347,451,cs),
(338,455,o),
(322,460,o),
(311,460,cs),
(277,460,o),
(244,450,o),
(198,375,c),
(187,375,l),
(187,322,l),
(208,360,o),
(234,378,o),
(266,378,cs)
);
}
);
width = 397;
}
);
unicode = 114;
},
{
color = 5;
glyphname = s;
kernLeft = kernLC_s2;
kernRight = kernLC_s1;
lastChange = "2022-02-25 03:02:49 +0000";
layers = (
{
anchors = (
{
name = bottom;
pos = (215,0);
},
{
name = top;
pos = (215,510);
}
);
layerId = master01;
shapes = (
{
closed = 1;
nodes = (
(279,-10,o),
(364,37,o),
(364,126,cs),
(364,220.015,o),
(299.231,238.891,o),
(242,266,cs),
(178.684,295.223,o),
(146,312,o),
(146,357,cs),
(146,397,o),
(176.224,421,o),
(221,421,cs),
(252.461,421,o),
(278.775,405.695,o),
(301,370,cs),
(334,317,l),
(348,317,l),
(348,426,l),
(306,447,o),
(266,460,o),
(217,460,cs),
(147,460,o),
(75,401,o),
(75,327,cs),
(75,260.44,o),
(112.716,230.129,o),
(181,199,cs),
(250.407,166.74,o),
(295,153.885,o),
(295,97,cs),
(295,53,o),
(264,26,o),
(210,26,cs),
(162,26,o),
(130,44,o),
(109,81,cs),
(77,136,l),
(63,136,l),
(63,24,l),
(110,0,o),
(150,-10,o),
(213,-10,cs)
);
}
);
width = 432;
}
);
unicode = 115;
},
{
color = 5;
glyphname = t;
kernLeft = kernLC_t2;
kernRight = kernLC_t1;
lastChange = "2022-02-25 03:02:49 +0000";
layers = (
{
anchors = (
{
name = bottom;
pos = (212,0);
},
{
name = right;
pos = (309,740);
},
{
name = top;
pos = (155,610);
}
);
layerId = master01;
shapes = (
{
closed = 1;
nodes = (
(271,-10,o),
(310,23,o),
(324,53,c),
(324,63,l),
(321,63,l),
(305,59,o),
(282,56,o),
(257,56,cs),
(215,56,o),
(180,72,o),
(180,106,cs),
(180,403,l),
(312,403,l),
(312,450,l),
(180,450,l),
(180,560,l),
(174,560,l),
(103,450,l),
(18,409,l),
(18,403,l),
(100,403,l),
(100,89,ls),
(100,26,o),
(149,-10,o),
(208,-10,c)
);
}
);
width = 354;
}
);
unicode = 116;
},
{
color = 5;
glyphname = u;
kernLeft = kernLC_u2;
kernRight = kernLC_u1;
lastChange = "2022-02-25 03:02:49 +0000";
layers = (
{
anchors = (
{
name = bottom;
pos = (270,0);
},
{
name = right;
pos = (457,0);
},
{
name = top;
pos = (270,510);
}
);
layerId = master01;
shapes = (
{
closed = 1;
nodes = (
(281,-10,o),
(325,12,o),
(376,63,c),
(389,63,l),
(389,108,l),
(367,79,o),
(310,64,o),
(270,64,cs),
(212,64,o),
(171,95,o),
(171,154,cs),
(171,450,l),
(28,450,l),
(28,434,l),
(91,403,l),
(91,107,ls),
(91,30,o),
(147,-10,o),
(225,-10,cs)
);
},
{
closed = 1;
nodes = (
(532,0,l),
(532,16,l),
(461,45,l),
(461,450,l),
(310,450,l),
(310,434,l),
(381,403,l),
(381,0,l)
);
}
);
width = 561;
}
);
unicode = 117;
},
{
color = 5;
glyphname = v;
kernLeft = kernLC_v3;
kernRight = kernLC_v3;
lastChange = "2022-02-25 03:02:49 +0000";
layers = (
{
layerId = master01;
shapes = (
{
closed = 1;
nodes = (
(242,0,l),
(278,83,l),
(278,119,l),
(262,119,l),
(134,398,l),
(134,404,l),
(216,434,l),
(216,450,l),
(-23,450,l),
(-23,434,l),
(44,403,l),
(227,0,l)
);
},
{
closed = 1;
nodes = (
(429,399,l),
(503,434,l),
(503,450,l),
(307,450,l),
(307,434,l),
(379,398,l),
(379,392,l),
(235,43,l),
(235,0,l),
(248,0,l)
);
}
);
width = 480;
}
);
unicode = 118;
},
{
color = 5;
glyphname = w;
kernLeft = kernLC_w3;
kernRight = kernLC_w3;
lastChange = "2022-02-25 03:02:49 +0000";
layers = (
{
anchors = (
{
name = top;
pos = (395,510);
}
);
layerId = master01;
shapes = (
{
closed = 1;
nodes = (
(216,0,l),
(252,81,l),
(252,121,l),
(238,121,l),
(134,398,l),
(134,404,l),
(216,434,l),
(216,450,l),
(-23,450,l),
(-23,434,l),
(44,403,l),
(201,0,l)
);
},
{
closed = 1;
nodes = (
(210,46,l),
(210,0,l),
(222,0,l),
(389,367,l),
(352,367,l),
(514,0,l),
(529,0,l),
(559,96,l),
(405,450,l),
(384,450,l)
);
},
{
closed = 1;
nodes = (
(702,399,l),
(776,434,l),
(776,450,l),
(580,450,l),
(580,434,l),
(652,398,l),
(652,392,l),
(551,124,l),
(526,124,l),
(526,0,l),
(535,0,l)
);
}
);
width = 753;
}
);
unicode = 119;
},
{
color = 5;
glyphname = x;
kernLeft = kernLC_x3;
kernRight = kernLC_x3;
lastChange = "2022-02-25 03:02:49 +0000";
layers = (
{
layerId = master01;
shapes = (
{
closed = 1;
nodes = (
(470,0,l),
(470,16,l),
(429,47,l),
(170,398,l),
(170,404,l),
(238,434,l),
(238,450,l),
(31,450,l),
(31,434,l),
(78,403,l),
(337,52,l),
(337,46,l),
(276,16,l),
(276,0,l)
);
},
{
closed = 1;
nodes = (
(201,0,l),
(201,16,l),
(139,52,l),
(139,58,l),
(251,224,l),
(229,247,l),
(80,51,l),
(26,16,l),
(26,0,l)
);
},
{
closed = 1;
nodes = (
(287,450,l),
(287,434,l),
(344,398,l),
(344,392,l),
(243,243,l),
(264,220,l),
(400,399,l),
(453,434,l),
(453,450,l)
);
}
);
width = 496;
}
);
unicode = 120;
},
{
color = 5;
glyphname = y;
kernLeft = kernLC_y3;
kernRight = kernLC_y3;
lastChange = "2022-02-25 03:02:49 +0000";
layers = (
{
anchors = (
{
name = bottom;
pos = (298,-28);
},
{
name = top;
pos = (264,510);
}
);
layerId = master01;
shapes = (
{
closed = 1;
nodes = (
(-23,434,l),
(44,403,l),
(231,0,l),
(284,72,l),
(284,108,l),
(267,108,l),
(134,398,l),
(134,403,l),
(216,434,l),
(216,450,l),
(-23,450,l)
);
},
{
closed = 1;
nodes = (
(116,-241,o),
(151,-221,o),
(178,-183,cs),
(208,-141,o),
(212,-126,o),
(231,-79,cs),
(428,400,l),
(503,434,l),
(503,450,l),
(307,450,l),
(307,434,l),
(382,398,l),
(382,392,l),
(254,67,l),
(192,-70,ls),
(153,-155,o),
(148,-158,o),
(99,-158,cs),
(53,-158,l),
(49,-162,l),
(49,-212,ls),
(49,-234,o),
(53,-241,o),
(83,-241,cs)
);
}
);
width = 480;
}
);
unicode = 121;
},
{
color = 5;
glyphname = z;
kernLeft = kernLC_z3;
kernRight = kernLC_z3;
lastChange = "2022-02-25 03:02:49 +0000";
layers = (
{
anchors = (
{
name = bottom;
pos = (243,0);
},
{
name = top;
pos = (243,510);
}
);
layerId = master01;
shapes = (
{
closed = 1;
nodes = (
(407,0,l),
(407,151,l),
(391,151,l),
(342,8,l),
(381,44,l),
(157,44,l),
(157,14,l),
(399,432,l),
(399,450,l),
(148,450,ls),
(132,450,o),
(102,456,o),
(85,460,c),
(80,460,l),
(69,306,l),
(85,306,l),
(145,440,l),
(105,406,l),
(312,406,l),
(312,436,l),
(70,18,l),
(70,0,l)
);
}
);
width = 482;
}
);
unicode = 122;
},
{
glyphname = uni05D2.alt_quoteright;
layers = (
{
layerId = master01;
shapes = (
{
closed = 1;
nodes = (
(164.45,569.219,o),
(171.571,575.06,o),
(183.721,575.06,cs),
(190.723,575.06,o),
(199.396,573.119,o),
(210,568,cs),
(223.676,561.398,o),
(228.527,552.767,o),
(228.527,545.065,cs),
(228.527,540.965,o),
(227.152,537.127,o),
(225,534,cs),
(197.476,494,o),
(136.263,427.95,o),
(105,421,cs),
(101.713,420.27,o),
(98.591,419.931,o),
(95.678,419.931,cs),
(82.216,419.931,o),
(73.237,427.16,o),
(73.237,436.31,cs),
(73.237,437.828,o),
(73.484,439.399,o),
(74,441,cs),
(78.831,456,o),
(110.758,488,o),
(161,564,cs)
);
},
{
closed = 1;
nodes = (
(-0.818,7.727,o),
(9.099,8.025,o),
(18.752,8.025,cs),
(62.19,8.025,o),
(100.273,2,o),
(133,2,cs),
(208,2,o),
(243,100,o),
(243,178,cs),
(243,210,o),
(278,219,o),
(314,219,cs),
(324,219,o),
(334,213,o),
(334,200,cs),
(334,92,o),
(236,-44,o),
(132,-44,cs),
(104,-44,o),
(65.111,-39.765,o),
(32.272,-39.765,cs),
(22.889,-39.765,o),
(14,-40.111,o),
(6,-41,cs),
(-53,-47.555,o),
(-78.219,-69.095,o),
(-126,-75,cs),
(-141.556,-76.923,o),
(-156.122,-77.783,o),
(-169.584,-77.783,cs),
(-233.147,-77.783,o),
(-272.12,-58.599,o),
(-274.589,-41.419,cs),
(-274.705,-40.61,o),
(-274.767,-39.823,o),
(-274.767,-39.068,cs),
(-274.767,-34.729,o),
(-272.723,-31.474,o),
(-267.227,-31.474,cs),
(-266.659,-31.474,o),
(-266.054,-31.509,o),
(-265.411,-31.581,cs),
(-245.574,-33.797,o),
(-228.851,-34.762,o),
(-214.368,-34.762,cs),
(-128.526,-34.762,o),
(-121.377,-0.884,o),
(-11,7,cs)
);
}
);
width = 364;
}
);
},
{
glyphname = uni05D3.alt_quoteright;
layers = (
{
layerId = master01;
shapes = (
{
closed = 1;
nodes = (
(189.45,569.219,o),
(196.571,575.06,o),
(208.72,575.06,cs),
(215.723,575.06,o),
(224.396,573.119,o),
(235,568,cs),
(248.675,561.398,o),
(253.528,552.767,o),
(253.528,545.065,cs),
(253.528,540.964,o),
(252.152,537.127,o),
(250,534,cs),
(222.476,494,o),
(161.263,427.95,o),
(130,421,cs),
(126.713,420.269,o),
(123.59,419.931,o),
(120.678,419.931,cs),
(107.216,419.931,o),
(98.237,427.16,o),
(98.237,436.309,cs),
(98.237,437.828,o),
(98.485,439.4,o),
(99,441,cs),
(103.831,456,o),
(135.758,488,o),
(186,564,cs)
);
},
{
closed = 1;
nodes = (
(100.888,261.365,o),
(142.865,272.77,o),
(181.31,272.77,cs),
(228.649,272.77,o),
(270.633,255.478,o),
(270.633,178.988,cs),
(270.633,173.622,o),
(270.426,167.964,o),
(270,162,cs),
(264,78,o),
(210.802,0,o),
(122,0,cs),
(103.86,0,o),
(97.249,7.507,o),
(97.249,15.87,cs),
(97.249,25.487,o),
(105.992,36.236,o),
(116,38,cs),
(156,45.053,o),
(182.208,88,o),
(189,153,cs),
(189.652,159.239,o),
(189.967,164.983,o),
(189.967,170.268,cs),
(189.967,214.233,o),
(168.183,226.359,o),
(137.545,226.359,cs),
(105.164,226.359,o),
(62.895,212.815,o),
(26,209,cs),
(18.919,208.268,o),
(12.396,207.925,o),
(6.4,207.925,cs),
(-37.098,207.925,o),
(-52.895,225.954,o),
(-52.895,244.116,cs),
(-52.895,259.872,o),
(-41.006,275.728,o),
(-25,280,cs),
(-18.829,281.647,o),
(-13.904,282.345,o),
(-9.74,282.345,cs),
(13.304,282.345,o),
(13.008,260.975,o),
(71.483,260.975,cs),
(72.633,260.975,o),
(73.805,260.983,o),
(75,261,cs)
);
}
);
width = 299;
}
);
},
{
glyphname = uni05D2.alt_quotesingle;
layers = (
{
layerId = master01;
shapes = (
{
closed = 1;
nodes = (
(164.45,569.219,o),
(171.571,575.06,o),
(183.721,575.06,cs),
(190.723,575.06,o),
(199.396,573.119,o),
(210,568,cs),
(223.676,561.398,o),
(228.527,552.767,o),
(228.527,545.065,cs),
(228.527,540.965,o),
(227.152,537.127,o),
(225,534,cs),
(197.476,494,o),
(136.263,427.95,o),
(105,421,cs),
(101.713,420.27,o),
(98.591,419.931,o),
(95.678,419.931,cs),
(82.216,419.931,o),
(73.237,427.16,o),
(73.237,436.31,cs),
(73.237,437.828,o),
(73.484,439.399,o),
(74,441,cs),
(78.831,456,o),
(110.758,488,o),
(161,564,cs)
);
},
{
closed = 1;
nodes = (
(-0.818,7.727,o),
(9.099,8.025,o),
(18.752,8.025,cs),
(62.19,8.025,o),
(100.273,2,o),
(133,2,cs),
(208,2,o),
(243,100,o),
(243,178,cs),
(243,210,o),
(278,219,o),
(314,219,cs),
(324,219,o),
(334,213,o),
(334,200,cs),
(334,92,o),
(236,-44,o),
(132,-44,cs),
(104,-44,o),
(65.111,-39.765,o),
(32.272,-39.765,cs),
(22.889,-39.765,o),
(14,-40.111,o),
(6,-41,cs),
(-53,-47.555,o),
(-78.219,-69.095,o),
(-126,-75,cs),
(-141.556,-76.923,o),
(-156.122,-77.783,o),
(-169.584,-77.783,cs),
(-233.147,-77.783,o),
(-272.12,-58.599,o),
(-274.589,-41.419,cs),
(-274.705,-40.61,o),
(-274.767,-39.823,o),
(-274.767,-39.068,cs),
(-274.767,-34.729,o),
(-272.723,-31.474,o),
(-267.227,-31.474,cs),
(-266.659,-31.474,o),
(-266.054,-31.509,o),
(-265.411,-31.581,cs),
(-245.574,-33.797,o),
(-228.851,-34.762,o),
(-214.368,-34.762,cs),
(-128.526,-34.762,o),
(-121.377,-0.884,o),
(-11,7,cs)
);
}
);
width = 364;
}
);
},
{
glyphname = uni05D3.alt_quotesingle;
layers = (
{
layerId = master01;
shapes = (
{
closed = 1;
nodes = (
(189.45,569.219,o),
(196.571,575.06,o),
(208.72,575.06,cs),
(215.723,575.06,o),
(224.396,573.119,o),
(235,568,cs),
(248.675,561.398,o),
(253.528,552.767,o),
(253.528,545.065,cs),
(253.528,540.964,o),
(252.152,537.127,o),
(250,534,cs),
(222.476,494,o),
(161.263,427.95,o),
(130,421,cs),
(126.713,420.269,o),
(123.59,419.931,o),
(120.678,419.931,cs),
(107.216,419.931,o),
(98.237,427.16,o),
(98.237,436.309,cs),
(98.237,437.828,o),
(98.485,439.4,o),
(99,441,cs),
(103.831,456,o),
(135.758,488,o),
(186,564,cs)
);
},
{
closed = 1;
nodes = (
(100.888,261.365,o),
(142.865,272.77,o),
(181.31,272.77,cs),
(228.649,272.77,o),
(270.633,255.478,o),
(270.633,178.988,cs),
(270.633,173.622,o),
(270.426,167.964,o),
(270,162,cs),
(264,78,o),
(210.802,0,o),
(122,0,cs),
(103.86,0,o),
(97.249,7.507,o),
(97.249,15.87,cs),
(97.249,25.487,o),
(105.992,36.236,o),
(116,38,cs),
(156,45.053,o),
(182.208,88,o),
(189,153,cs),
(189.652,159.239,o),
(189.967,164.983,o),
(189.967,170.268,cs),
(189.967,214.233,o),
(168.183,226.359,o),
(137.545,226.359,cs),
(105.164,226.359,o),
(62.895,212.815,o),
(26,209,cs),
(18.919,208.268,o),
(12.396,207.925,o),
(6.4,207.925,cs),
(-37.098,207.925,o),
(-52.895,225.954,o),
(-52.895,244.116,cs),
(-52.895,259.872,o),
(-41.006,275.728,o),
(-25,280,cs),
(-18.829,281.647,o),
(-13.904,282.345,o),
(-9.74,282.345,cs),
(13.304,282.345,o),
(13.008,260.975,o),
(71.483,260.975,cs),
(72.633,260.975,o),
(73.805,260.983,o),
(75,261,cs)
);
}
);
width = 299;
}
);
},
{
glyphname = uni05D2.alt_uni05F3;
layers = (
{
layerId = master01;
shapes = (
{
closed = 1;
nodes = (
(164.45,569.219,o),
(171.571,575.06,o),
(183.721,575.06,cs),
(190.723,575.06,o),
(199.396,573.119,o),
(210,568,cs),
(223.676,561.398,o),
(228.527,552.767,o),
(228.527,545.065,cs),
(228.527,540.965,o),
(227.152,537.127,o),
(225,534,cs),
(197.476,494,o),
(136.263,427.95,o),
(105,421,cs),
(101.713,420.27,o),
(98.591,419.931,o),
(95.678,419.931,cs),
(82.216,419.931,o),
(73.237,427.16,o),
(73.237,436.31,cs),
(73.237,437.828,o),
(73.484,439.399,o),
(74,441,cs),
(78.831,456,o),
(110.758,488,o),
(161,564,cs)
);
},
{
closed = 1;
nodes = (
(-0.818,7.727,o),
(9.099,8.025,o),
(18.752,8.025,cs),
(62.19,8.025,o),
(100.273,2,o),
(133,2,cs),
(208,2,o),
(243,100,o),
(243,178,cs),
(243,210,o),
(278,219,o),
(314,219,cs),
(324,219,o),
(334,213,o),
(334,200,cs),
(334,92,o),
(236,-44,o),
(132,-44,cs),
(104,-44,o),
(65.111,-39.765,o),
(32.272,-39.765,cs),
(22.889,-39.765,o),
(14,-40.111,o),
(6,-41,cs),
(-53,-47.555,o),
(-78.219,-69.095,o),
(-126,-75,cs),
(-141.556,-76.923,o),
(-156.122,-77.783,o),
(-169.584,-77.783,cs),
(-233.147,-77.783,o),
(-272.12,-58.599,o),
(-274.589,-41.419,cs),
(-274.705,-40.61,o),
(-274.767,-39.823,o),
(-274.767,-39.068,cs),
(-274.767,-34.729,o),
(-272.723,-31.474,o),
(-267.227,-31.474,cs),
(-266.659,-31.474,o),
(-266.054,-31.509,o),
(-265.411,-31.581,cs),
(-245.574,-33.797,o),
(-228.851,-34.762,o),
(-214.368,-34.762,cs),
(-128.526,-34.762,o),
(-121.377,-0.884,o),
(-11,7,cs)
);
}
);
width = 364;
}
);
},
{
glyphname = uni05D3.alt_uni05F3;
layers = (
{
layerId = master01;
shapes = (
{
closed = 1;
nodes = (
(189.45,569.219,o),
(196.571,575.06,o),
(208.72,575.06,cs),
(215.723,575.06,o),
(224.396,573.119,o),
(235,568,cs),
(248.675,561.398,o),
(253.528,552.767,o),
(253.528,545.065,cs),
(253.528,540.964,o),
(252.152,537.127,o),
(250,534,cs),
(222.476,494,o),
(161.263,427.95,o),
(130,421,cs),
(126.713,420.269,o),
(123.59,419.931,o),
(120.678,419.931,cs),
(107.216,419.931,o),
(98.237,427.16,o),
(98.237,436.309,cs),
(98.237,437.828,o),
(98.485,439.4,o),
(99,441,cs),
(103.831,456,o),
(135.758,488,o),
(186,564,cs)
);
},
{
closed = 1;
nodes = (
(100.888,261.365,o),
(142.865,272.77,o),
(181.31,272.77,cs),
(228.649,272.77,o),
(270.633,255.478,o),
(270.633,178.988,cs),
(270.633,173.622,o),
(270.426,167.964,o),
(270,162,cs),
(264,78,o),
(210.802,0,o),
(122,0,cs),
(103.86,0,o),
(97.249,7.507,o),
(97.249,15.87,cs),
(97.249,25.487,o),
(105.992,36.236,o),
(116,38,cs),
(156,45.053,o),
(182.208,88,o),
(189,153,cs),
(189.652,159.239,o),
(189.967,164.983,o),
(189.967,170.268,cs),
(189.967,214.233,o),
(168.183,226.359,o),
(137.545,226.359,cs),
(105.164,226.359,o),
(62.895,212.815,o),
(26,209,cs),
(18.919,208.268,o),
(12.396,207.925,o),
(6.4,207.925,cs),
(-37.098,207.925,o),
(-52.895,225.954,o),
(-52.895,244.116,cs),
(-52.895,259.872,o),
(-41.006,275.728,o),
(-25,280,cs),
(-18.829,281.647,o),
(-13.904,282.345,o),
(-9.74,282.345,cs),
(13.304,282.345,o),
(13.008,260.975,o),
(71.483,260.975,cs),
(72.633,260.975,o),
(73.805,260.983,o),
(75,261,cs)
);
}
);
width = 299;
}
);
},
{
glyphname = uni05D0;
layers = (
{
layerId = master01;
shapes = (
{
closed = 1;
nodes = (
(181.601,414,o),
(99,-1,o),
(-49,-1,cs),
(-67.14,-1,o),
(-73.751,6.507,o),
(-73.751,14.87,cs),
(-73.751,24.487,o),
(-65.008,35.235,o),
(-55,37,cs),
(41,53.925,o),
(147,629.018,o),
(273.198,629.018,cs),
(303.694,629.018,o),
(315.062,611.529,o),
(315.062,588.93,cs),
(315.062,557.401,o),
(299.455,520.943,o),
(267.728,520.943,cs),
(264.646,520.943,o),
(261.405,521.283,o),
(258,522,cs),
(254.721,522.69,o),
(251.562,523.076,o),
(248.548,523.076,cs),
(237.889,523.076,o),
(229.028,518.252,o),
(223,505,cs)
);
}
);
width = 140;
}
);
unicode = 1488;
},
{
glyphname = uni05D1;
layers = (
{
layerId = master01;
shapes = (
{
closed = 1;
nodes = (
(-29.046,0,o),
(-69.951,46.58,o),
(-69.951,67.954,cs),
(-69.951,74.318,o),
(-66.325,78.447,o),
(-59.237,78.447,cs),
(-56.874,78.447,o),
(-54.126,77.988,o),
(-51,77,cs),
(-37.881,72.854,o),
(-1.931,45.616,o),
(49.445,45.616,cs),
(52.894,45.616,o),
(56.413,45.739,o),
(60,46,cs),
(115,50,o),
(161.672,93,o),
(166,147,cs),
(166.202,149.522,o),
(166.3,151.952,o),
(166.3,154.29,cs),
(166.3,192.068,o),
(138,208,o),
(106,208,cs),
(71,208,o),
(56,193.782,o),
(40,185,cs),
(33.484,181.423,o),
(27.927,180,o),
(23.353,180,cs),
(15.994,180,o),
(11.178,183.683,o),
(9,188,cs),
(8.384,189.222,o),
(8.086,190.567,o),
(8.086,192.014,cs),
(8.086,211.956,o),
(64.371,250.889,o),
(122.452,250.926,cs),
(178.919,250.926,o),
(243.554,224.154,o),
(243.554,159.363,cs),
(243.554,155.18,o),
(243.391,151.134,o),
(243,147,cs),
(234.018,52,o),
(149,0,o),
(59,0,cs)
);
}
);
width = 274;
}
);
unicode = 1489;
},
{
glyphname = uni05D2;
layers = (
{
layerId = master01;
shapes = (
{
closed = 1;
nodes = (
(199,48,o),
(258,10,o),
(298,10,cs),
(373,10,o),
(405,100,o),
(405,178,cs),
(405,210,o),
(440,219,o),
(476,219,cs),
(486,219,o),
(496,213,o),
(496,200,cs),
(496,92,o),
(396,-37,o),
(292,-37,cs),
(256,-37,o),
(204,-5,o),
(168,-5,cs),
(139,-5,o),
(83,-34,o),
(46,-34,cs),
(-44,-34,o),
(-113,13,o),
(-113,34,cs),
(-113,40,o),
(-111,43,o),
(-103,43,cs),
(-68,43,o),
(-45,16,o),
(5,16,cs),
(66,16,o),
(106,48,o),
(151,48,cs)
);
}
);
width = 526;
}
);
unicode = 1490;
},
{
glyphname = uni05D3;
layers = (
{
layerId = master01;
shapes = (
{
closed = 1;
nodes = (
(49.808,309.165,o),
(175,282.005,o),
(175,177,cs),
(175,103.973,o),
(122,0,o),
(25,0,cs),
(6.86,0,o),
(0.249,7.507,o),
(0.249,15.87,cs),
(0.249,25.487,o),
(8.992,36.235,o),
(19,38,cs),
(71,47.169,o),
(87.208,103,o),
(94,168,cs),
(94.508,172.862,o),
(94.754,177.485,o),
(94.754,181.884,cs),
(94.754,256.194,o),
(24.502,266.3,o),
(-40,277,cs),
(-145.011,294.42,o),
(-177.744,328.348,o),
(-177.744,345.555,cs),
(-177.744,352.005,o),
(-173.144,356.106,o),
(-166.028,356.106,cs),
(-165.372,356.106,o),
(-164.696,356.071,o),
(-164,356,cs),
(-146,354.168,o),
(-90,319.134,o),
(-18,314,cs)
);
}
);
width = 204;
}
);
unicode = 1491;
},
{
glyphname = uni05D4;
layers = (
{
layerId = master01;
shapes = (
{
closed = 1;
nodes = (
(110.223,80,o),
(170.299,51.927,o),
(220.603,51.927,cs),
(233.113,51.927,o),
(245.019,53.664,o),
(255.974,58,cs),
(274.974,65.521,o),
(299.974,100.966,o),
(299.974,159,cs),
(299.974,191,o),
(333.974,200,o),
(369.974,200,cs),
(379.974,200,o),
(390.974,194,o),
(390.974,181,cs),
(390.974,94.977,o),
(333.974,32.402,o),
(266.974,17,cs),
(253.559,13.916,o),
(241.088,12.674,o),
(229.335,12.674,cs),
(180.638,12.674,o),
(144.253,34,o),
(103.974,34,cs),
(70.011,34,o),
(62.642,17.026,o),
(62.642,-1.882,cs),
(62.642,-16.377,o),
(66.974,-32.01,o),
(66.974,-42,cs),
(66.974,-53,o),
(66.974,-59,o),
(47.974,-59,cs),
(13.974,-59,o),
(-5.703,-24,o),
(-7.026,7,cs),
(-7.158,10.084,o),
(-7.243,13.191,o),
(-7.243,16.294,cs),
(-7.243,48.402,o),
(1.877,80,o),
(62.974,80,cs)
);
}
);
width = 420;
}
);
unicode = 1492;
},
{
glyphname = uni05D5;
layers = (
{
layerId = master01;
shapes = (
{
closed = 1;
nodes = (
(120,206,o),
(82,126,o),
(44,67,cs),
(20,29,o),
(-4,0,o),
(-18,0,cs),
(-37,0,o),
(-37,6,o),
(-37,17,cs),
(-37,30,o),
(15,141,o),
(39,229,cs),
(45,250,o),
(64,251,o),
(84,251,cs),
(85,251,o),
(85,251,o),
(86,251,cs),
(106,251,o),
(120,251,o),
(120,230,cs)
);
}
);
width = 150;
}
);
unicode = 1493;
},
{
glyphname = uni05D6;
layers = (
{
layerId = master01;
shapes = (
{
closed = 1;
nodes = (
(-35,-1,o),
(-46,5,o),
(-46,18,cs),
(-46,28.198,o),
(46,274,o),
(146,274,cs),
(165,274,o),
(179,257,o),
(179,238,cs),
(179,201,o),
(152,166,o),
(128,166,cs),
(113,166,o),
(94.175,165.886,o),
(85,152,cs),
(17.299,49.533,o),
(0,-1,o),
(-25,-1,cs)
);
}
);
width = 180;
}
);
unicode = 1494;
},
{
glyphname = uni05D7;
layers = (
{
layerId = master01;
shapes = (
{
closed = 1;
nodes = (
(-56.942,0.018,o),
(-63.553,7.525,o),
(-63.553,15.887,cs),
(-63.553,25.504,o),
(-54.81,36.253,o),
(-44.802,38.018,cs),
(0,45.917,o),
(44.505,158.267,o),
(65,230,cs),
(71,251,o),
(82,251,o),
(102,251,cs),
(103,251,o),
(103,251,o),
(104,251,cs),
(122.633,251,o),
(136,251,o),
(137.806,234.017,c),
(156.613,243.168,o),
(184.536,251.616,o),
(224.093,251.616,cs),
(230.122,251.616,o),
(236.422,251.42,o),
(243,251,cs),
(284.353,248.36,o),
(322,230.01,o),
(322,182,cs),
(322,99.994,o),
(257.827,0,o),
(181,0,cs),
(170.381,0,o),
(165.554,5.492,o),
(165.554,12.347,cs),
(165.554,19.694,o),
(171.099,28.606,o),
(181,34,cs),
(205,47.074,o),
(229.657,86,o),
(238,164,cs),
(238.358,167.346,o),
(238.528,170.458,o),
(238.528,173.353,cs),
(238.528,208.514,o),
(213.403,211.67,o),
(194,213,cs),
(192.705,213.089,o),
(191.4,213.132,o),
(190.088,213.132,cs),
(170.884,213.132,o),
(149.98,203.962,o),
(133.117,195.263,c),
(113.478,116.306,o),
(37.635,0.018,o),
(-38.802,0.018,cs)
);
}
);
width = 352;
}
);
unicode = 1495;
},
{
glyphname = uni05D8;
layers = (
{
layerId = master01;
shapes = (
{
closed = 1;
nodes = (
(86.493,133.816,o),
(85.332,127.051,o),
(85.332,120.151,cs),
(85.332,90.801,o),
(106.329,59,o),
(134,59,cs),
(209,59,o),
(242,137,o),
(242,215,cs),
(242,247,o),
(277,256,o),
(313,256,cs),
(323,256,o),
(333,250,o),
(333,237,cs),
(333,129,o),
(236,18,o),
(132,18,cs),
(87.739,18,o),
(60.598,37.352,o),
(46,66,c),
(25.944,35.113,o),
(-2.011,0,o),
(-18,0,cs),
(-37,0,o),
(-37,6,o),
(-37,17,cs),
(-37,30,o),
(13,134,o),
(37,222,cs),
(43,243,o),
(62,244,o),
(82,244,cs),
(83,244,o),
(83,244,o),
(84,244,cs),
(104,244,o),
(118,244,o),
(118,223,cs),
(118,214,o),
(104,177,o),
(89,140,cs)
);
}
);
width = 355;
}
);
unicode = 1496;
},
{
glyphname = uni05D9;
layers = (
{
layerId = master01;
shapes = (
{
closed = 1;
nodes = (
(0,105,o),
(0,94,o),
(24,181,cs),
(30,202,o),
(49,204,o),
(69,204,cs),
(70,204,o),
(71,204,o),
(72,204,cs),
(92,204,o),
(105,204,o),
(105,183,cs),
(105,143,o),
(53,76,o),
(20,76,cs),
(2,76,o),
(0,81,o),
(0,92,cs)
);
}
);
width = 135;
}
);
unicode = 1497;
},
{
glyphname = uni05DA;
layers = (
{
layerId = master01;
shapes = (
{
closed = 1;
nodes = (
(123.283,-122,o),
(166,-234.39,o),
(26,-361,cs),
(18.158,-368.092,o),
(10.041,-371.058,o),
(3.184,-371.058,cs),
(-6.742,-371.058,o),
(-14.03,-364.845,o),
(-14.03,-355.935,cs),
(-14.03,-350.375,o),
(-11.192,-343.764,o),
(-4.386,-336.958,cs),
(75.677,-256.896,o),
(52.849,-101,o),
(159,143,cs),
(164.219,154.997,o),
(166.529,164.889,o),
(166.529,173.007,cs),
(166.529,199.886,o),
(141.208,207.317,o),
(112.349,207.317,cs),
(78.001,207.317,o),
(38.641,196.79,o),
(31,196,cs),
(23.733,195.249,o),
(17.053,194.897,o),
(10.927,194.897,cs),
(-32.213,194.897,o),
(-47.895,212.307,o),
(-47.895,229.915,cs),
(-47.895,245.246,o),
(-36.006,260.728,o),
(-20,265,cs),
(-13.95,266.615,o),
(-9.033,267.302,o),
(-4.878,267.302,cs),
(18.803,267.302,o),
(17.707,244.987,o),
(60.239,244.987,cs),
(60.818,244.987,o),
(61.405,244.992,o),
(62,245,cs),
(89.413,245.386,o),
(131.764,254.223,o),
(168.431,254.223,cs),
(208.254,254.223,o),
(241.374,243.799,o),
(241.374,200.803,cs),
(241.374,185.186,o),
(237.004,165.272,o),
(227,140,cs)
);
}
);
width = 273;
}
);
unicode = 1498;
},
{
glyphname = uni05DB;
layers = (
{
layerId = master01;
shapes = (
{
closed = 1;
nodes = (
(49.493,156.582,o),
(47.088,156.38,o),
(44.793,156.38,cs),
(30.735,156.38,o),
(20.816,163.965,o),
(17,176,cs),
(16.231,178.424,o),
(15.841,181.047,o),
(15.841,183.809,cs),
(15.841,210.74,o),
(52.939,250.872,o),
(138.451,250.926,cs),
(194.918,250.926,o),
(259.554,224.154,o),
(259.554,159.363,cs),
(259.554,155.18,o),
(259.391,151.134,o),
(259,147,cs),
(250.018,52,o),
(165,0,o),
(75,0,cs),
(-13.046,0,o),
(-53.951,46.58,o),
(-53.951,67.954,cs),
(-53.951,74.318,o),
(-50.325,78.447,o),
(-43.237,78.447,cs),
(-40.874,78.447,o),
(-38.126,77.988,o),
(-35,77,cs),
(-21.881,72.854,o),
(14.069,45.616,o),
(65.445,45.616,cs),
(68.894,45.616,o),
(72.413,45.739,o),
(76,46,cs),
(131,50,o),
(177.673,93,o),
(182,147,cs),
(182.202,149.522,o),
(182.3,151.952,o),
(182.3,154.29,cs),
(182.3,188.935,o),
(160.182,213.617,o),
(131.833,213.617,cs),
(129.269,213.617,o),
(126.654,213.415,o),
(124,213,cs),
(90,207.688,o),
(106,166,o),
(52,157,cs)
);
}
);
width = 289;
}
);
unicode = 1499;
},
{
glyphname = uni05DC;
layers = (
{
layerId = master01;
shapes = (
{
closed = 1;
nodes = (
(266.747,575.009,o),
(263,583,o),
(251,583,cs),
(193,583,o),
(46,285,o),
(46,106,cs),
(46,73.984,o),
(63,43,o),
(89,43,cs),
(145,43,o),
(165,87,o),
(186,133,cs),
(194,153,o),
(219,153,o),
(234,153,cs),
(254,153,o),
(262,149,o),
(262,133,cs),
(262,75,o),
(188,0,o),
(88,0,cs),
(9,0,o),
(0,93,o),
(0,124,cs),
(0,310,o),
(147,624.025,o),
(266,629,cs),
(270.283,629.179,o),
(274.555,629.309,o),
(278.769,629.309,cs),
(313.891,629.309,o),
(345,620.311,o),
(345,556,cs),
(345,415,o),
(160,108,o),
(100,108,cs),
(89,108,o),
(87,111,o),
(87,122,cs),
(87,137.809,o),
(267.079,419.166,o),
(267.079,561.891,cs),
(267.079,563.614,o),
(267.053,565.318,o),
(267,567,cs)
);
}
);
width = 300;
}
);
unicode = 1500;
},
{
glyphname = uni05DD;
layers = (
{
layerId = master01;
shapes = (
{
closed = 1;
nodes = (
(238.149,251,o),
(269.588,209.727,o),
(269.588,159.202,cs),
(269.588,155.188,o),
(269.389,151.115,o),
(269,147,cs),
(260.203,54,o),
(187,0,o),
(98,0,cs),
(27.492,0,o),
(-0.335,40.145,o),
(-0.335,93.624,cs),
(-0.335,97.031,o),
(-0.222,100.492,o),
(0,104,cs),
(5.696,194,o),
(66,251,o),
(160,251,cs)
);
},
{
closed = 1;
nodes = (
(112,42.161,o),
(179.407,52.317,o),
(192,147,cs),
(192.542,151.073,o),
(192.807,155.057,o),
(192.807,158.919,cs),
(192.807,189.191,o),
(176.493,212,o),
(149,212,cs),
(107,212,o),
(61.519,161,o),
(58,94,cs),
(57.904,92.166,o),
(57.856,90.375,o),
(57.856,88.628,cs),
(57.856,58.093,o),
(72.377,40.768,o),
(95.309,40.768,cs),
(96.836,40.768,o),
(98.4,40.845,o),
(100,41,cs)
);
}
);
width = 300;
}
);
unicode = 1501;
},
{
glyphname = uni05DE;
layers = (
{
layerId = master01;
shapes = (
{
closed = 1;
nodes = (
(120,214.802,o),
(97.607,168.821,o),
(82,122,cs),
(78.654,111.96,o),
(77.147,102.285,o),
(77.147,93.331,cs),
(77.147,63.041,o),
(94.389,41,o),
(116,41,cs),
(252,41,o),
(244,273,o),
(380,273,cs),
(399,273,o),
(406,258,o),
(406,239,cs),
(406,202,o),
(379,167,o),
(355,167,cs),
(340,167,o),
(321.175,166.886,o),
(312,153,cs),
(258.367,71.829,o),
(217,0,o),
(114,0,cs),
(69.739,0,o),
(50.764,26.274,o),
(36.166,54.923,c),
(14.888,23.023,o),
(-5.525,0,o),
(-18,0,cs),
(-37,0,o),
(-37,6,o),
(-37,17,cs),
(-37,30,o),
(15,141,o),
(39,229,cs),
(45,250,o),
(64,251,o),
(84,251,cs),
(85,251,o),
(85,251,o),
(86,251,cs),
(106,251,o),
(120,251,o),
(120,230,cs)
);
}
);
width = 406;
}
);
unicode = 1502;
},
{
glyphname = uni05DF;
layers = (
{
layerId = master01;
shapes = (
{
closed = 1;
nodes = (
(199,237,o),
(199,231,o),
(199,220,cs),
(199,200.765,o),
(-11.057,-130.146,o),
(-96.195,-352.571,cs),
(-102.082,-367.949,o),
(-114.338,-371.358,o),
(-128.551,-371.358,cs),
(-133.191,-371.358,o),
(-138.039,-370.995,o),
(-142.941,-370.566,cs),
(-143.938,-370.479,o),
(-143.938,-370.479,o),
(-144.934,-370.392,cs),
(-163.68,-368.751,o),
(-177.136,-367.575,o),
(-177.136,-350.014,cs),
(-177.136,-273.4,o),
(129.153,237,o),
(180,237,cs)
);
}
);
width = 219;
}
);
unicode = 1503;
},
{
glyphname = uni05E0;
layers = (
{
layerId = master01;
shapes = (
{
closed = 1;
nodes = (
(-56.942,0.018,o),
(-63.553,7.525,o),
(-63.553,15.887,cs),
(-63.553,25.504,o),
(-54.81,36.253,o),
(-44.802,38.018,cs),
(0,45.917,o),
(36.505,157.267,o),
(57,229,cs),
(63,250,o),
(82,251,o),
(102,251,cs),
(103,251,o),
(103,251,o),
(104,251,cs),
(124,251,o),
(138,251,o),
(138,230,cs),
(138,156.973,o),
(50,0.018,o),
(-38.802,0.018,cs)
);
}
);
width = 168;
}
);
unicode = 1504;
},
{
glyphname = uni05E1;
layers = (
{
layerId = master01;
shapes = (
{
closed = 1;
nodes = (
(276.576,251,o),
(305.55,206.034,o),
(305.55,158.49,cs),
(305.55,154.67,o),
(305.362,150.832,o),
(305,147,cs),
(296.014,52,o),
(200,0,o),
(121,0,cs),
(76.739,0,o),
(50.764,26.274,o),
(36.166,54.923,c),
(14.888,23.023,o),
(-5.525,0,o),
(-18,0,cs),
(-37,0,o),
(-37,6,o),
(-37,17,cs),
(-37,30,o),
(15,141,o),
(39,229,cs),
(45,250,o),
(64,251,o),
(84,251,cs),
(85,251,o),
(85,251,o),
(86,251,cs),
(106,251,o),
(120,251,o),
(120,230,cs),
(120,229.722,o),
(119.995,229.437,o),
(119.984,229.143,c),
(142.62,242.148,o),
(168.256,251,o),
(196,251,c)
);
},
{
closed = 1;
nodes = (
(79.783,114.966,o),
(78.55,107.455,o),
(78.55,99.88,cs),
(78.55,70.646,o),
(95.203,41,o),
(123,41,cs),
(181,41,o),
(224,97,o),
(228,147,cs),
(228.202,149.522,o),
(228.3,151.952,o),
(228.3,154.29,cs),
(228.3,192.068,o),
(202.79,204.491,o),
(180.773,206.074,cs),
(176.391,206.389,o),
(172.235,206.544,o),
(168.291,206.544,cs),
(109.687,206.544,o),
(97.865,172.343,o),
(82,122,cs)
);
}
);
width = 340;
}
);
unicode = 1505;
},
{
glyphname = uni05E2;
layers = (
{
layerId = master01;
shapes = (
{
closed = 1;
nodes = (
(180.394,52.005,o),
(240.382,81.778,o),
(244,212,cs),
(244.889,243.987,o),
(279,253,o),
(315,253,cs),
(324.966,253,o),
(335,247.041,o),
(335,234,cs),
(335,234,ls),
(333.963,38,o),
(159,0.018,o),
(-38.802,0.018,cs),
(-56.942,0.018,o),
(-63.553,7.525,o),
(-63.553,15.887,cs),
(-63.553,25.504,o),
(-54.81,36.253,o),
(-44.802,38.018,cs),
(0,45.917,o),
(36.505,157.267,o),
(57,229,cs),
(63,250,o),
(82,251,o),
(102,251,cs),
(103,251,o),
(103,251,o),
(104,251,cs),
(124,251,o),
(138,251,o),
(138,230,cs),
(138,182.391,o),
(100.598,99.11,o),
(49.956,46.905,c)
);
}
);
width = 365;
}
);
unicode = 1506;
},
{
glyphname = uni05E3;
layers = (
{
layerId = master01;
shapes = (
{
closed = 1;
nodes = (
(281.021,629.163,o),
(281.805,629.232,o),
(282.548,629.232,cs),
(289.849,629.232,o),
(293.311,622.537,o),
(293.311,615.182,cs),
(293.311,607.641,o),
(289.672,599.407,o),
(282.802,596.982,cs),
(208.406,570.729,o),
(137,-1,o),
(-41,-1,cs),
(-59.14,-1,o),
(-65.751,6.507,o),
(-65.751,14.87,cs),
(-65.751,24.487,o),
(-57.008,35.236,o),
(-47,37,cs),
(11.226,47.267,o),
(63.602,234.084,o),
(124.882,395.302,c),
(100.944,398.667,o),
(78.905,404.204,o),
(56.58,404.204,cs),
(53.015,404.204,o),
(49.442,404.063,o),
(45.853,403.749,cs),
(15.299,401.076,o),
(7.557,386.502,o),
(7.557,369.83,cs),
(7.557,353.887,o),
(14.637,336.024,o),
(15.617,324.813,cs),
(16.576,313.855,o),
(17.099,307.878,o),
(-1.828,306.222,cs),
(-3.249,306.097,o),
(-4.651,306.037,o),
(-6.032,306.037,cs),
(-37.567,306.037,o),
(-58.52,337.701,o),
(-62.371,367.178,cs),
(-63.261,373.989,o),
(-63.932,380.935,o),
(-63.932,387.745,cs),
(-63.932,415.667,o),
(-52.658,441.306,o),
(1,446,cs),
(4.942,446.345,o),
(8.991,446.502,o),
(13.13,446.502,cs),
(51.549,446.502,o),
(97.78,433.011,o),
(138.952,431.371,c),
(180.276,534.292,o),
(225.951,619.455,o),
(280.198,629.018,cs)
);
}
);
width = 170;
}
);
unicode = 1507;
},
{
glyphname = uni05E4;
layers = (
{
layerId = master01;
shapes = (
{
closed = 1;
nodes = (
(-12,101,o),
(6.206,141.223,o),
(31,228,cs),
(37,249,o),
(56,251,o),
(76,251,cs),
(77,251,o),
(78,251,o),
(79,251,cs),
(99,251,o),
(112,251,o),
(112,230,cs),
(112,227.668,o),
(111.871,225.226,o),
(111.622,222.691,c),
(134.365,238.036,o),
(165.562,250.907,o),
(196.605,250.926,cs),
(283.252,250.926,o),
(318.01,213.623,o),
(318.01,138.225,cs),
(318.01,65.288,o),
(259.962,-40,o),
(75,-40,cs),
(-22.355,-40,o),
(-214.267,-58.605,o),
(-280,-94,cs),
(-281.648,-94.888,o),
(-283.13,-95.284,o),
(-284.44,-95.284,cs),
(-289.15,-95.284,o),
(-291.633,-90.155,o),
(-291.633,-84.309,cs),
(-291.633,-60.405,o),
(-235.533,-28.081,o),
(-150,-13,cs),
(-58,3.222,o),
(47.078,3.896,o),
(76,6,cs),
(191,14.364,o),
(237.299,76,o),
(240.75,131.8,cs),
(240.952,135.064,o),
(241.051,138.197,o),
(241.051,141.206,cs),
(241.051,193.688,o),
(210.995,208,o),
(174,208,cs),
(146.594,208,o),
(117.533,191.842,o),
(98.894,177.163,c),
(78.061,126.971,o),
(36.807,72,o),
(8,72,cs),
(-12,72,o),
(-12,77,o),
(-12,88,cs)
);
}
);
width = 348;
}
);
unicode = 1508;
},
{
glyphname = uni05E5;
layers = (
{
layerId = master01;
shapes = (
{
closed = 1;
nodes = (
(18.343,-214,o),
(-58,-343.378,o),
(-112.358,-368.757,cs),
(-118.748,-371.74,o),
(-123.997,-373.007,o),
(-128.223,-373.007,cs),
(-133.537,-373.007,o),
(-137.235,-371.005,o),
(-139.555,-367.894,cs),
(-141.876,-365.053,o),
(-142.893,-361.432,o),
(-142.893,-357.58,cs),
(-142.893,-350.248,o),
(-139.209,-342.078,o),
(-133.828,-336.854,cs),
(-112,-315.658,o),
(-89.158,-280.944,o),
(-67.512,-234.787,cs),
(-1.955,-95,o),
(42.072,103.85,o),
(45,148,cs),
(42.777,156.065,o),
(23.345,156.168,o),
(23.345,187.537,cs),
(23.345,189.806,o),
(23.447,192.239,o),
(23.664,194.85,cs),
(25.59,218.002,o),
(42.664,250.85,o),
(88.664,250.85,cs),
(107.09,250.85,o),
(135.7,249.152,o),
(140.091,216.044,c),
(145.205,215.375,o),
(150.946,214.945,o),
(157.299,214.945,cs),
(181.674,214.945,o),
(215.061,221.283,o),
(256.664,244.85,cs),
(274.994,255.233,o),
(288.24,259.582,o),
(296.864,259.582,cs),
(305.323,259.582,o),
(309.335,255.397,o),
(309.335,248.618,cs),
(309.335,220.524,o),
(240.434,147.875,o),
(133.665,143.897,c),
(126.074,104.181,o),
(110.287,43.602,o),
(77.5,-48.258,cs)
);
}
);
width = 309;
}
);
unicode = 1509;
},
{
glyphname = uni05E6;
layers = (
{
layerId = master01;
shapes = (
{
closed = 1;
nodes = (
(67.686,589.323,o),
(72.279,589.481,o),
(76.781,589.481,cs),
(193.307,589.481,o),
(248,483.546,o),
(248,394,cs),
(248,368.713,o),
(246.092,344.351,o),
(242.563,321.004,c),
(316.286,353.248,o),
(396.93,408.937,o),
(478.141,494.684,cs),
(496.639,514.215,o),
(510.796,521.256,o),
(520.355,521.256,cs),
(530.021,521.256,o),
(534.986,514.058,o),
(534.986,505.295,cs),
(534.986,499.329,o),
(532.685,492.639,o),
(528,487,cs),
(421.879,359.271,o),
(318.683,286.54,o),
(226.798,252.142,c),
(178.332,95.945,o),
(57.64,0,o),
(-20,0,cs),
(-28,0,o),
(-33,4.268,o),
(-33,13,cs),
(-33,23,o),
(-21,28.195,o),
(-17,32,cs),
(2.5,50.55,o),
(96.25,91.776,o),
(141.906,230.292,c),
(126.657,228.206,o),
(111.873,227.213,o),
(97.604,227.213,cs),
(-37.328,227.213,o),
(-126.198,315.985,o),
(-126.198,408.454,cs),
(-126.198,410.967,o),
(-126.132,413.483,o),
(-126,416,cs),
(-120.644,518,o),
(-53,581,o),
(63,589,cs)
);
},
{
closed = 1;
nodes = (
(163.59,325.761,o),
(167,362.537,o),
(167,404,cs),
(167,490.006,o),
(120,548,o),
(53,548,cs),
(-26.404,548,o),
(-76.354,487,o),
(-81,423,cs),
(-81.227,419.879,o),
(-81.339,416.79,o),
(-81.339,413.736,cs),
(-81.339,339.175,o),
(-14.475,285.202,o),
(87.18,285.202,cs),
(109.164,285.202,o),
(132.775,287.726,o),
(157.688,293.112,c)
);
}
);
width = 231;
}
);
unicode = 1510;
},
{
glyphname = uni05E7;
layers = (
{
layerId = master01;
shapes = (
{
closed = 1;
nodes = (
(49,211,o),
(83,220,o),
(119,220,cs),
(129,220,o),
(140,214,o),
(140,201,cs),
(140,101,o),
(95.82,21.798,o),
(1,0,cs),
(-86,-20,o),
(-194,-371,o),
(-285,-371,cs),
(-304,-371,o),
(-318,-354,o),
(-318,-335,cs),
(-318,-298,o),
(-291,-263,o),
(-267,-263,cs),
(-252,-263,o),
(-250,-263,o),
(-241,-249,cs),
(-167,-137,o),
(-98.894,4.729,o),
(-30,32,cs),
(18,51,o),
(49,84,o),
(49,179,cs)
);
}
);
width = 170;
}
);
unicode = 1511;
},
{
glyphname = uni05E8;
layers = (
{
layerId = master01;
shapes = (
{
closed = 1;
nodes = (
(88.211,604.057,o),
(90.4,604.086,o),
(92.568,604.086,cs),
(200.154,604.086,o),
(254,534.104,o),
(254,440,cs),
(254,202,o),
(97,0,o),
(-2,0,cs),
(-10,0,o),
(-15,4.268,o),
(-15,13,cs),
(-15,23,o),
(-3,28.195,o),
(1,32,cs),
(27,56.733,o),
(167,164.78,o),
(167,447,cs),
(167,528,o),
(129.138,568,o),
(71,568,cs),
(-8.673,568,o),
(-63.109,498.11,o),
(-63.109,418.004,cs),
(-63.109,359.104,o),
(-16.902,319.146,o),
(54.529,319.146,cs),
(63.317,319.146,o),
(72.487,319.751,o),
(82,321,cs),
(95.445,322.765,o),
(106.1,323.532,o),
(114.369,323.532,cs),
(131.814,323.532,o),
(138.641,320.119,o),
(138.641,315.465,cs),
(138.641,310.511,o),
(130.903,304.149,o),
(120,299,cs),
(88.369,284.062,o),
(56.328,277.276,o),
(26.253,277.276,cs),
(-58.72,277.276,o),
(-128,331.448,o),
(-128,409,cs),
(-128,521.752,o),
(-30,601,o),
(86,604,cs)
);
}
);
width = 246;
}
);
unicode = 1512;
},
{
glyphname = uni05E9;
layers = (
{
layerId = master01;
shapes = (
{
closed = 1;
nodes = (
(213,48.8,o),
(290.914,74,o),
(292,162,cs),
(292.395,193.998,o),
(327,203,o),
(363,203,cs),
(373,203,o),
(383,197,o),
(383,184,cs),
(383,76,o),
(284,0,o),
(156,0,cs),
(82.815,0,o),
(52.8,22.047,o),
(41.52,38.617,c),
(16.596,15.331,o),
(-11.064,0.018,o),
(-38.802,0.018,cs),
(-54.737,0.018,o),
(-61.7,5.485,o),
(-63.117,12.31,cs),
(-63.413,13.471,o),
(-63.553,14.67,o),
(-63.553,15.887,cs),
(-63.553,25.504,o),
(-54.81,36.253,o),
(-44.802,38.018,cs),
(-38.694,39.774,o),
(-32.768,42.626,o),
(-27.034,46.442,cs),
(2.244,68.783,o),
(28.603,129.528,o),
(47.206,184.647,c),
(42.123,190.022,o),
(30.637,194.352,o),
(30.637,219.726,cs),
(30.637,222.265,o),
(30.752,225.016,o),
(31,228,cs),
(32.926,251.152,o),
(50,284,o),
(96,284,cs),
(114.391,284,o),
(142.93,282.309,o),
(147.402,249.378,c),
(149.313,249.239,o),
(151.314,249.162,o),
(153.408,249.162,cs),
(169.25,249.162,o),
(190.403,253.57,o),
(218,269,cs),
(233.966,277.927,o),
(245.791,281.677,o),
(253.836,281.677,cs),
(262.887,281.677,o),
(267.155,276.932,o),
(267.155,269.472,cs),
(267.155,242.929,o),
(213.113,182.018,o),
(128.207,178.252,c),
(116.39,142.02,o),
(94.7,100.766,o),
(67.696,67.079,c),
(80.477,56.823,o),
(100.551,43.067,o),
(141.625,43.067,cs),
(147.622,43.067,o),
(154.066,43.36,o),
(161,44,cs)
);
}
);
width = 413;
}
);
unicode = 1513;
},
{
glyphname = uni05EA;
layers = (
{
layerId = master01;
shapes = (
{
closed = 1;
nodes = (
(95.463,67.672,o),
(110,59,o),
(134,59,cs),
(209,59,o),
(242,137,o),
(242,215,cs),
(242,247,o),
(277,256,o),
(313,256,cs),
(323,256,o),
(333,250,o),
(333,237,cs),
(333,129,o),
(236,18,o),
(132,18,cs),
(107.277,18,o),
(84.838,24.677,o),
(74,36,c),
(22.048,-128.162,o),
(-167.069,-372,o),
(-452,-372,cs),
(-564.042,-372,o),
(-633.17,-300.329,o),
(-633.17,-214.122,cs),
(-633.17,-157.987,o),
(-603.859,-95.688,o),
(-538,-43,cs),
(-518.736,-27.589,o),
(-500.571,-20.835,o),
(-488.282,-20.835,cs),
(-478.56,-20.835,o),
(-472.516,-25.062,o),
(-472.516,-32.572,cs),
(-472.516,-41.195,o),
(-480.484,-54.146,o),
(-500,-70,cs),
(-546.015,-107.379,o),
(-568.683,-158.108,o),
(-568.683,-204.255,cs),
(-568.683,-267.421,o),
(-526.21,-322,o),
(-443,-322,cs),
(-232,-322,o),
(-43.013,-104,o),
(6,91,cs),
(9.704,105.738,o),
(29.199,113.821,o),
(48.473,113.821,cs),
(66.672,113.821,o),
(84.674,106.614,o),
(89,91,cs)
);
}
);
width = 363;
}
);
unicode = 1514;
},
{
glyphname = uni05D0.alt;
layers = (
{
layerId = master01;
shapes = (
{
closed = 1;
nodes = (
(272.838,629.163,o),
(273.621,629.232,o),
(274.364,629.232,cs),
(281.665,629.232,o),
(285.127,622.537,o),
(285.127,615.183,cs),
(285.127,607.642,o),
(281.488,599.406,o),
(274.618,596.982,cs),
(200.223,570.729,o),
(128.816,-1,o),
(-49.184,-1,cs),
(-67.323,-1,o),
(-73.935,6.507,o),
(-73.935,14.87,cs),
(-73.935,24.487,o),
(-65.191,35.235,o),
(-55.184,37,cs),
(45.816,54.809,o),
(129.216,603.846,o),
(272.015,629.018,cs)
);
}
);
width = 140;
}
);
},
{
glyphname = uni05D1.alt;
layers = (
{
layerId = master01;
shapes = (
{
closed = 1;
nodes = (
(234.214,51.172,o),
(149,0,o),
(59,0,cs),
(-29.046,0,o),
(-69.951,46.58,o),
(-69.951,67.954,cs),
(-69.951,74.318,o),
(-66.325,78.447,o),
(-59.237,78.447,cs),
(-56.874,78.447,o),
(-54.126,77.988,o),
(-51,77,cs),
(-37.881,72.854,o),
(-1.931,45.616,o),
(49.445,45.616,cs),
(52.894,45.616,o),
(56.413,45.739,o),
(60,46,cs),
(115,50,o),
(156.716,80.268,o),
(165,141,cs),
(166.179,149.646,o),
(166.749,157.214,o),
(166.749,163.822,cs),
(166.749,197.016,o),
(152.39,206.017,o),
(128.897,206.017,cs),
(107.299,206.017,o),
(77.981,198.41,o),
(45,195,cs),
(37.733,194.249,o),
(31.058,193.897,o),
(24.941,193.897,cs),
(-17.799,193.897,o),
(-33.298,211.037,o),
(-33.298,228.504,cs),
(-33.298,243.969,o),
(-21.149,259.69,o),
(-5,264,cs),
(1.049,265.615,o),
(5.945,266.302,o),
(10.063,266.302,cs),
(33.533,266.302,o),
(31.726,243.987,o),
(74.239,243.987,cs),
(74.817,243.987,o),
(75.405,243.992,o),
(76,244,cs),
(103.92,244.393,o),
(139.263,253.904,o),
(170.255,253.904,cs),
(210.373,253.904,o),
(243.201,237.966,o),
(243.201,165.679,cs),
(243.201,157.805,o),
(242.812,149.263,o),
(242,140,cs)
);
}
);
width = 274;
}
);
},
{
glyphname = uni05D2.alt;
layers = (
{
layerId = master01;
shapes = (
{
closed = 1;
nodes = (
(-0.818,7.727,o),
(9.099,8.025,o),
(18.752,8.025,cs),
(62.19,8.025,o),
(100.273,2,o),
(133,2,cs),
(208,2,o),
(243,100,o),
(243,178,cs),
(243,210,o),
(278,219,o),
(314,219,cs),
(324,219,o),
(334,213,o),
(334,200,cs),
(334,92,o),
(236,-44,o),
(132,-44,cs),
(104,-44,o),
(65.111,-39.765,o),
(32.272,-39.765,cs),
(22.889,-39.765,o),
(14,-40.111,o),
(6,-41,cs),
(-53,-47.555,o),
(-78.219,-69.095,o),
(-126,-75,cs),
(-141.556,-76.923,o),
(-156.122,-77.783,o),
(-169.584,-77.783,cs),
(-233.147,-77.783,o),
(-272.12,-58.599,o),
(-274.589,-41.419,cs),
(-274.705,-40.61,o),
(-274.767,-39.823,o),
(-274.767,-39.068,cs),
(-274.767,-34.729,o),
(-272.723,-31.474,o),
(-267.227,-31.474,cs),
(-266.659,-31.474,o),
(-266.054,-31.509,o),
(-265.411,-31.581,cs),
(-245.574,-33.797,o),
(-228.851,-34.762,o),
(-214.368,-34.762,cs),
(-128.526,-34.762,o),
(-121.377,-0.884,o),
(-11,7,cs)
);
}
);
width = 364;
}
);
},
{
glyphname = uni05D3.alt;
layers = (
{
layerId = master01;
shapes = (
{
closed = 1;
nodes = (
(100.888,261.365,o),
(142.865,272.77,o),
(181.31,272.77,cs),
(228.649,272.77,o),
(270.633,255.478,o),
(270.633,178.988,cs),
(270.633,173.622,o),
(270.426,167.964,o),
(270,162,cs),
(264,78,o),
(210.802,0,o),
(122,0,cs),
(103.86,0,o),
(97.249,7.507,o),
(97.249,15.87,cs),
(97.249,25.487,o),
(105.992,36.236,o),
(116,38,cs),
(156,45.053,o),
(182.208,88,o),
(189,153,cs),
(189.652,159.239,o),
(189.967,164.983,o),
(189.967,170.268,cs),
(189.967,214.233,o),
(168.183,226.359,o),
(137.545,226.359,cs),
(105.164,226.359,o),
(62.895,212.815,o),
(26,209,cs),
(18.919,208.268,o),
(12.396,207.925,o),
(6.4,207.925,cs),
(-37.098,207.925,o),
(-52.895,225.954,o),
(-52.895,244.116,cs),
(-52.895,259.872,o),
(-41.006,275.728,o),
(-25,280,cs),
(-18.829,281.647,o),
(-13.904,282.345,o),
(-9.74,282.345,cs),
(13.304,282.345,o),
(13.008,260.975,o),
(71.483,260.975,cs),
(72.633,260.975,o),
(73.805,260.983,o),
(75,261,cs)
);
}
);
width = 299;
}
);
},
{
glyphname = uni05D4.alt;
layers = (
{
layerId = master01;
shapes = (
{
closed = 1;
nodes = (
(62.88,217.377,o),
(62.82,218.712,o),
(62.82,220.009,cs),
(62.82,248.723,o),
(91.846,257.945,o),
(126.16,260.945,cs),
(126.888,261.009,o),
(127.623,261.041,o),
(128.362,261.041,cs),
(137.744,261.041,o),
(147.686,255.852,o),
(148.736,243.848,cs),
(149.445,235.747,o),
(149.782,228.03,o),
(149.782,220.671,cs),
(149.782,81.429,o),
(29.314,70.162,o),
(29.314,13.713,cs),
(29.314,6.902,o),
(31.068,-0.568,o),
(35,-9,cs),
(36.747,-12.746,o),
(37.887,-17.051,o),
(37.887,-21.238,cs),
(37.887,-28.193,o),
(34.74,-34.819,o),
(26,-38,cs),
(19.5,-40.366,o),
(11.265,-42.092,o),
(2.838,-42.092,cs),
(-10.775,-42.092,o),
(-24.888,-37.588,o),
(-33,-24,cs),
(-41.736,-9.366,o),
(-45.426,2.86,o),
(-45.426,13.577,cs),
(-45.426,71.872,o),
(63.754,85.509,o),
(63.754,199.203,cs),
(63.754,204.574,o),
(63.51,210.168,o),
(63,216,cs)
);
}
);
width = 180;
}
);
},
{
glyphname = uni05D5.alt;
layers = (
{
layerId = master01;
shapes = (
{
closed = 1;
nodes = (
(223.534,461.476,o),
(19.632,-35.087,o),
(-35.338,-35.087,cs),
(-35.644,-35.087,o),
(-35.945,-35.072,o),
(-36.242,-35.041,cs),
(-49.809,-33.626,o),
(-52.993,-29.438,o),
(-52.993,-23.127,cs),
(-52.993,-20.716,o),
(-52.528,-17.995,o),
(-52,-15,cs),
(-48.661,3.943,o),
(89.115,319.579,o),
(157.254,542.005,cs),
(161.997,557.487,o),
(172.251,560.861,o),
(185.356,560.861,cs),
(189.928,560.861,o),
(194.847,560.451,o),
(200,560,cs),
(200.996,559.912,o),
(200.996,559.912,o),
(201.992,559.825,cs),
(220.262,558.227,o),
(233.361,556.994,o),
(233.361,540.737,cs),
(233.361,539.266,o),
(233.254,537.671,o),
(233.033,535.941,cs)
);
}
);
width = 138;
}
);
},
{
glyphname = uni05D9.alt;
layers = (
{
layerId = master01;
shapes = (
{
closed = 1;
nodes = (
(-27,44,o),
(-16.794,48.223,o),
(8,135,cs),
(14,156,o),
(33,158,o),
(53,158,cs),
(54,158,o),
(55,158,o),
(56,158,cs),
(76,158,o),
(89,158,o),
(89,137,cs),
(89,97,o),
(26,15,o),
(-7,15,cs),
(-27,15,o),
(-27,20,o),
(-27,31,cs)
);
}
);
width = 119;
}
);
},
{
glyphname = uni05E1.alt;
layers = (
{
layerId = master01;
shapes = (
{
closed = 1;
nodes = (
(200.992,59.505,o),
(229.143,184,o),
(242,229,cs),
(248,250,o),
(267,251,o),
(287,251,cs),
(288,251,o),
(288,251,o),
(289,251,cs),
(309,251,o),
(323,251,o),
(323,230,cs),
(323,229.722,o),
(322.995,229.437,o),
(322.984,229.143,c),
(345.62,242.148,o),
(371.256,251,o),
(399,251,c),
(479.576,251,o),
(508.55,206.034,o),
(508.55,158.49,cs),
(508.55,154.67,o),
(508.362,150.832,o),
(508,147,cs),
(499.014,52,o),
(403,0,o),
(324,0,cs),
(279.739,0,o),
(255.764,26.274,o),
(241.166,54.923,c),
(196.108,4.823,o),
(140.362,-17.232,o),
(89.632,-17.232,cs),
(13.225,-17.232,o),
(-51.805,32.801,o),
(-51.805,112.4,cs),
(-51.805,151.389,o),
(-36.203,197.473,o),
(1.307,248.244,cs),
(19.071,272.29,o),
(38.003,284.031,o),
(49.742,284.031,cs),
(56.832,284.031,o),
(61.299,279.747,o),
(61.299,271.303,cs),
(61.299,262.588,o),
(56.541,249.441,o),
(45,232,cs),
(16.996,189.679,o),
(4.017,148.77,o),
(4.017,115.125,cs),
(4.017,66.037,o),
(31.645,32.409,o),
(80.54,32.409,cs),
(90.78,32.409,o),
(101.953,33.883,o),
(114,37,cs)
);
},
{
closed = 1;
nodes = (
(282.783,114.966,o),
(281.55,107.455,o),
(281.55,99.88,cs),
(281.55,70.646,o),
(298.203,41,o),
(326,41,cs),
(384,41,o),
(427,97,o),
(431,147,cs),
(431.202,149.522,o),
(431.3,151.952,o),
(431.3,154.29,cs),
(431.3,192.068,o),
(405.79,204.49,o),
(383.773,206.074,cs),
(379.391,206.389,o),
(375.235,206.544,o),
(371.292,206.544,cs),
(312.687,206.544,o),
(300.865,172.343,o),
(285,122,cs)
);
}
);
width = 545;
}
);
},
{
glyphname = uni05E6.alt;
layers = (
{
layerId = master01;
shapes = (
{
closed = 1;
nodes = (
(45.005,184.098,o),
(30.961,197.137,o),
(30.961,220.831,cs),
(30.961,221.544,o),
(30.974,222.267,o),
(31,223,cs),
(31.746,244,o),
(46,279,o),
(91,279,cs),
(102.62,279,o),
(115.315,275.76,o),
(125.577,269.379,c),
(136.259,276.633,o),
(152.959,286.024,o),
(176.605,347.586,cs),
(183.621,365.851,o),
(194.496,370.592,o),
(203.422,370.592,cs),
(206.006,370.592,o),
(208.427,370.195,o),
(210.543,369.613,cs),
(218.37,367.462,o),
(223.956,353.108,o),
(223.956,332.425,cs),
(223.956,293.944,o),
(204.621,233.555,o),
(144.422,189.104,c),
(136.888,49.653,o),
(31.25,0,o),
(-77,0,c),
(-88.157,0,o),
(-95.387,6.262,o),
(-95.387,14.267,cs),
(-95.387,25.635,o),
(-80.809,40.518,o),
(-42.198,45.982,cs),
(14.364,53.987,o),
(54.238,87.489,o),
(54.238,170.576,cs),
(54.238,172.895,o),
(54.206,175.253,o),
(54.144,177.649,cs),
(53.238,178.166,o),
(52.516,178.624,o),
(52,179,cs)
);
}
);
width = 194;
}
);
},
{
glyphname = uni05E8.alt;
layers = (
{
layerId = master01;
shapes = (
{
closed = 1;
nodes = (
(158.007,294.052,o),
(160,294.078,o),
(161.977,294.078,cs),
(240.061,294.078,o),
(294.183,253.341,o),
(294.183,151.269,cs),
(294.183,142.623,o),
(293.795,133.538,o),
(293,124,cs),
(285.025,28.308,o),
(205,-103.396,o),
(31,-142,cs),
(29.797,-142.267,o),
(28.648,-142.392,o),
(27.556,-142.392,cs),
(18.802,-142.392,o),
(13.705,-134.374,o),
(13.705,-127.271,cs),
(13.705,-127.159,o),
(13.706,-127.046,o),
(13.709,-126.935,cs),
(13.938,-116.936,o),
(26.102,-111.978,o),
(31.2,-109.858,cs),
(180,-48,o),
(207.888,46.978,o),
(219,108,cs),
(222.234,125.758,o),
(224.298,144.294,o),
(224.298,162.043,cs),
(224.298,213.527,o),
(206.927,258.384,o),
(150.337,258.384,cs),
(147.336,258.384,o),
(144.225,258.258,o),
(141,258,cs),
(91,254,o),
(67.803,214.985,o),
(65,158,cs),
(64.898,155.934,o),
(64.848,153.895,o),
(64.848,151.884,cs),
(64.848,101.237,o),
(96.542,68.215,o),
(133.88,68.215,cs),
(138.841,68.215,o),
(143.901,68.798,o),
(149,70,cs),
(158.031,72.129,o),
(166.071,73.058,o),
(172.902,73.058,cs),
(188.831,73.058,o),
(198.185,68.005,o),
(198.185,61.326,cs),
(198.185,57.231,o),
(194.67,52.526,o),
(187,48,cs),
(164.07,34.469,o),
(139.904,28.238,o),
(116.836,28.238,cs),
(54.392,28.238,o),
(0,73.897,o),
(0,144,cs),
(0,238.005,o),
(61,291.543,o),
(156,294,cs)
);
}
);
width = 337;
}
);
},
{
glyphname = uni05D0.yud;
layers = (
{
layerId = master01;
shapes = (
{
closed = 1;
nodes = (
(356.472,630,o),
(368.066,612.556,o),
(368.066,589.104,cs),
(368.066,588.08,o),
(368.044,587.045,o),
(368,586,cs),
(366.751,556.035,o),
(351.954,521.921,o),
(320.143,521.921,cs),
(316.936,521.921,o),
(313.556,522.267,o),
(310,523,cs),
(306.873,523.644,o),
(303.882,524.014,o),
(301.029,524.014,cs),
(290.479,524.014,o),
(281.804,518.955,o),
(275,504,cs),
(233.6,413,o),
(151,-2,o),
(3,-2,cs),
(-62,-2,o),
(-77,85,o),
(-77,85,c),
(-33,120,ls),
(-33,120,o),
(-33.226,116.424,o),
(-33.226,110.793,cs),
(-33.226,89.959,o),
(-30.128,41,o),
(-1,41,cs),
(88,41,o),
(199.802,630,o),
(326,630,cs)
);
}
);
width = 209;
}
);
},
{
glyphname = uni05D8.yud;
layers = (
{
layerId = master01;
shapes = (
{
closed = 1;
nodes = (
(88,27.716,o),
(50,0,o),
(-1,0,cs),
(-62,0,o),
(-77,85,o),
(-77,85,c),
(-33,120,ls),
(-33,120,o),
(-33.132,117.388,o),
(-33.132,113.115,cs),
(-33.132,93.884,o),
(-30.455,41,o),
(-1,41,cs),
(53,41,o),
(96.857,204,o),
(102,222,cs),
(108,243,o),
(127,244,o),
(147,244,cs),
(148,244,o),
(148,244,o),
(149,244,cs),
(169,244,o),
(183,244,o),
(183,223,cs),
(183,214,o),
(169,177,o),
(154,140,cs),
(151.493,133.816,o),
(150.333,127.051,o),
(150.333,120.151,cs),
(150.333,90.801,o),
(171.329,59,o),
(199,59,cs),
(274,59,o),
(307,137,o),
(307,215,cs),
(307,247,o),
(342,256,o),
(378,256,cs),
(388,256,o),
(398,250,o),
(398,237,cs),
(398,129,o),
(301,18,o),
(197,18,cs),
(152.739,18,o),
(125.598,37.352,o),
(111,66,c)
);
}
);
width = 420;
}
);
},
{
glyphname = uni05E1.yud;
layers = (
{
layerId = master01;
shapes = (
{
closed = 1;
nodes = (
(82,21.44,o),
(41,0,o),
(-1,0,cs),
(-62,0,o),
(-77,85,o),
(-77,85,c),
(-33,120,ls),
(-33,120,o),
(-33.132,117.388,o),
(-33.132,113.115,cs),
(-33.132,93.884,o),
(-30.455,41,o),
(-1,41,cs),
(53,41,o),
(98.857,211,o),
(104,229,cs),
(110,250,o),
(129,251,o),
(149,251,cs),
(150,251,o),
(150,251,o),
(151,251,cs),
(171,251,o),
(185,251,o),
(185,230,cs),
(185,229.722,o),
(184.995,229.437,o),
(184.984,229.143,c),
(207.62,242.148,o),
(233.256,251,o),
(261,251,c),
(341.576,251,o),
(370.55,206.034,o),
(370.55,158.49,cs),
(370.55,154.67,o),
(370.362,150.832,o),
(370,147,cs),
(361.014,52,o),
(265,0,o),
(186,0,cs),
(141.739,0,o),
(117.764,26.274,o),
(103.166,54.923,c)
);
},
{
closed = 1;
nodes = (
(144.783,114.966,o),
(143.55,107.455,o),
(143.55,99.88,cs),
(143.55,70.646,o),
(160.203,41,o),
(188,41,cs),
(246,41,o),
(289,97,o),
(293,147,cs),
(293.202,149.522,o),
(293.3,151.952,o),
(293.3,154.29,cs),
(293.3,192.068,o),
(267.79,204.49,o),
(245.773,206.074,cs),
(241.391,206.389,o),
(237.235,206.544,o),
(233.292,206.544,cs),
(174.687,206.544,o),
(162.865,172.343,o),
(147,122,cs)
);
}
);
width = 405;
}
);
},
{
glyphname = uni05D0.alt.yud;
layers = (
{
layerId = master01;
shapes = (
{
closed = 1;
nodes = (
(-62,-2,o),
(-77,85,o),
(-77,85,c),
(-33,120,ls),
(-33,120,o),
(-33.226,116.424,o),
(-33.226,110.793,cs),
(-33.226,89.959,o),
(-30.128,41,o),
(-1,41,cs),
(94,41,o),
(184.201,603.829,o),
(327,629,cs),
(327.823,629.145,o),
(328.606,629.214,o),
(329.35,629.214,cs),
(336.651,629.214,o),
(340.113,622.52,o),
(340.113,615.165,cs),
(340.113,607.624,o),
(336.474,599.389,o),
(329.604,596.965,cs),
(255.207,570.713,o),
(184,-2,o),
(3,-2,cs)
);
}
);
width = 212;
}
);
},
{
glyphname = uni05D1_quoteright;
layers = (
{
layerId = master01;
shapes = (
{
closed = 1;
nodes = (
(-29.046,0,o),
(-69.951,46.58,o),
(-69.951,67.954,cs),
(-69.951,74.318,o),
(-66.325,78.447,o),
(-59.237,78.447,cs),
(-56.874,78.447,o),
(-54.126,77.988,o),
(-51,77,cs),
(-37.881,72.854,o),
(-1.931,45.616,o),
(49.445,45.616,cs),
(52.894,45.616,o),
(56.413,45.739,o),
(60,46,cs),
(115,50,o),
(161.672,93,o),
(166,147,cs),
(166.202,149.522,o),
(166.3,151.952,o),
(166.3,154.29,cs),
(166.3,192.068,o),
(138,208,o),
(106,208,cs),
(71,208,o),
(56,193.782,o),
(40,185,cs),
(33.484,181.423,o),
(27.927,180,o),
(23.353,180,cs),
(15.994,180,o),
(11.178,183.683,o),
(9,188,cs),
(8.384,189.222,o),
(8.086,190.567,o),
(8.086,192.014,cs),
(8.086,211.881,o),
(64.224,250.853,o),
(122.227,250.926,cs),
(122.452,250.926,ls),
(178.919,250.926,o),
(243.554,224.154,o),
(243.554,159.363,cs),
(243.554,159.073,o),
(243.552,158.782,o),
(243.55,158.49,cs),
(243.516,154.67,o),
(243.362,150.832,o),
(243,147,cs),
(234.018,52,o),
(149,0,o),
(59,0,cs)
);
},
{
closed = 1;
nodes = (
(179.45,569.219,o),
(186.571,575.06,o),
(198.72,575.06,cs),
(205.723,575.06,o),
(214.396,573.119,o),
(225,568,cs),
(238.675,561.398,o),
(243.528,552.767,o),
(243.528,545.065,cs),
(243.528,540.964,o),
(242.152,537.127,o),
(240,534,cs),
(212.476,494,o),
(151.263,427.95,o),
(120,421,cs),
(116.713,420.269,o),
(113.59,419.931,o),
(110.678,419.931,cs),
(97.216,419.931,o),
(88.237,427.16,o),
(88.237,436.309,cs),
(88.237,437.828,o),
(88.485,439.4,o),
(89,441,cs),
(93.831,456,o),
(125.758,488,o),
(176,564,cs)
);
}
);
width = 274;
}
);
},
{
glyphname = uni05D1_uni05F3;
layers = (
{
layerId = master01;
shapes = (
{
closed = 1;
nodes = (
(-29.046,0,o),
(-69.951,46.58,o),
(-69.951,67.954,cs),
(-69.951,74.318,o),
(-66.325,78.447,o),
(-59.237,78.447,cs),
(-56.874,78.447,o),
(-54.126,77.988,o),
(-51,77,cs),
(-37.881,72.854,o),
(-1.931,45.616,o),
(49.445,45.616,cs),
(52.894,45.616,o),
(56.413,45.739,o),
(60,46,cs),
(115,50,o),
(161.672,93,o),
(166,147,cs),
(166.202,149.522,o),
(166.3,151.952,o),
(166.3,154.29,cs),
(166.3,192.068,o),
(138,208,o),
(106,208,cs),
(71,208,o),
(56,193.782,o),
(40,185,cs),
(33.484,181.423,o),
(27.927,180,o),
(23.353,180,cs),
(15.994,180,o),
(11.178,183.683,o),
(9,188,cs),
(8.384,189.222,o),
(8.086,190.567,o),
(8.086,192.014,cs),
(8.086,211.881,o),
(64.224,250.853,o),
(122.227,250.926,cs),
(122.452,250.926,ls),
(178.919,250.926,o),
(243.554,224.154,o),
(243.554,159.363,cs),
(243.554,159.073,o),
(243.552,158.782,o),
(243.55,158.49,cs),
(243.516,154.67,o),
(243.362,150.832,o),
(243,147,cs),
(234.018,52,o),
(149,0,o),
(59,0,cs)
);
},
{
closed = 1;
nodes = (
(179.45,569.219,o),
(186.571,575.06,o),
(198.72,575.06,cs),
(205.723,575.06,o),
(214.396,573.119,o),
(225,568,cs),
(238.675,561.398,o),
(243.528,552.767,o),
(243.528,545.065,cs),
(243.528,540.964,o),
(242.152,537.127,o),
(240,534,cs),
(212.476,494,o),
(151.263,427.95,o),
(120,421,cs),
(116.713,420.269,o),
(113.59,419.931,o),
(110.678,419.931,cs),
(97.216,419.931,o),
(88.237,427.16,o),
(88.237,436.309,cs),
(88.237,437.828,o),
(88.485,439.4,o),
(89,441,cs),
(93.831,456,o),
(125.758,488,o),
(176,564,cs)
);
}
);
width = 274;
}
);
},
{
glyphname = uni05D1_quotesingle;
layers = (
{
layerId = master01;
shapes = (
{
closed = 1;
nodes = (
(-29.046,0,o),
(-69.951,46.58,o),
(-69.951,67.954,cs),
(-69.951,74.318,o),
(-66.325,78.447,o),
(-59.237,78.447,cs),
(-56.874,78.447,o),
(-54.126,77.988,o),
(-51,77,cs),
(-37.881,72.854,o),
(-1.931,45.616,o),
(49.445,45.616,cs),
(52.894,45.616,o),
(56.413,45.739,o),
(60,46,cs),
(115,50,o),
(161.672,93,o),
(166,147,cs),
(166.202,149.522,o),
(166.3,151.952,o),
(166.3,154.29,cs),
(166.3,192.068,o),
(138,208,o),
(106,208,cs),
(71,208,o),
(56,193.782,o),
(40,185,cs),
(33.484,181.423,o),
(27.927,180,o),
(23.353,180,cs),
(15.994,180,o),
(11.178,183.683,o),
(9,188,cs),
(8.384,189.222,o),
(8.086,190.567,o),
(8.086,192.014,cs),
(8.086,211.881,o),
(64.224,250.853,o),
(122.227,250.926,cs),
(122.452,250.926,ls),
(178.919,250.926,o),
(243.554,224.154,o),
(243.554,159.363,cs),
(243.554,159.073,o),
(243.552,158.782,o),
(243.55,158.49,cs),
(243.516,154.67,o),
(243.362,150.832,o),
(243,147,cs),
(234.018,52,o),
(149,0,o),
(59,0,cs)
);
},
{
closed = 1;
nodes = (
(179.45,569.219,o),
(186.571,575.06,o),
(198.72,575.06,cs),
(205.723,575.06,o),
(214.396,573.119,o),
(225,568,cs),
(238.675,561.398,o),
(243.528,552.767,o),
(243.528,545.065,cs),
(243.528,540.964,o),
(242.152,537.127,o),
(240,534,cs),
(212.476,494,o),
(151.263,427.95,o),
(120,421,cs),
(116.713,420.269,o),
(113.59,419.931,o),
(110.678,419.931,cs),
(97.216,419.931,o),
(88.237,427.16,o),
(88.237,436.309,cs),
(88.237,437.828,o),
(88.485,439.4,o),
(89,441,cs),
(93.831,456,o),
(125.758,488,o),
(176,564,cs)
);
}
);
width = 274;
}
);
},
{
glyphname = uni05D2_quoteright;
layers = (
{
layerId = master01;
shapes = (
{
closed = 1;
nodes = (
(302.45,569.219,o),
(309.571,575.06,o),
(321.72,575.06,cs),
(328.723,575.06,o),
(337.396,573.119,o),
(348,568,cs),
(361.675,561.398,o),
(366.528,552.767,o),
(366.528,545.065,cs),
(366.528,540.964,o),
(365.152,537.127,o),
(363,534,cs),
(335.476,494,o),
(274.263,427.95,o),
(243,421,cs),
(239.713,420.269,o),
(236.59,419.931,o),
(233.678,419.931,cs),
(220.216,419.931,o),
(211.237,427.16,o),
(211.237,436.309,cs),
(211.237,437.828,o),
(211.485,439.4,o),
(212,441,cs),
(216.831,456,o),
(248.758,488,o),
(299,564,cs)
);
},
{
closed = 1;
nodes = (
(199,48,o),
(258,10,o),
(298,10,cs),
(373,10,o),
(405,100,o),
(405,178,cs),
(405,210,o),
(440,219,o),
(476,219,cs),
(486,219,o),
(496,213,o),
(496,200,cs),
(496,92,o),
(396,-37,o),
(292,-37,cs),
(256,-37,o),
(204,-5,o),
(168,-5,cs),
(139,-5,o),
(83,-34,o),
(46,-34,cs),
(-44,-34,o),
(-113,13,o),
(-113,34,cs),
(-113,40,o),
(-111,43,o),
(-103,43,cs),
(-68,43,o),
(-45,16,o),
(5,16,cs),
(66,16,o),
(106,48,o),
(151,48,cs)
);
}
);
width = 526;
}
);
},
{
glyphname = uni05D2_quoteright_uni05D5;
layers = (
{
layerId = master01;
shapes = (
{
closed = 1;
nodes = (
(354.45,569.219,o),
(361.571,575.06,o),
(373.72,575.06,cs),
(380.723,575.06,o),
(389.396,573.119,o),
(400,568,cs),
(413.675,561.398,o),
(418.528,552.767,o),
(418.528,545.065,cs),
(418.528,540.964,o),
(417.152,537.127,o),
(415,534,cs),
(387.476,494,o),
(326.263,427.95,o),
(295,421,cs),
(291.713,420.269,o),
(288.59,419.931,o),
(285.678,419.931,cs),
(272.216,419.931,o),
(263.237,427.16,o),
(263.237,436.309,cs),
(263.237,437.828,o),
(263.485,439.4,o),
(264,441,cs),
(268.831,456,o),
(300.758,488,o),
(351,564,cs)
);
},
{
closed = 1;
nodes = (
(199,48,o),
(258,10,o),
(298,10,cs),
(373,10,o),
(405,100,o),
(405,178,cs),
(405,210,o),
(440,219,o),
(476,219,cs),
(486,219,o),
(496,213,o),
(496,200,cs),
(496,92,o),
(396,-37,o),
(292,-37,cs),
(256,-37,o),
(204,-5,o),
(168,-5,cs),
(139,-5,o),
(83,-34,o),
(46,-34,cs),
(-44,-34,o),
(-113,13,o),
(-113,34,cs),
(-113,40,o),
(-111,43,o),
(-103,43,cs),
(-68,43,o),
(-45,16,o),
(5,16,cs),
(66,16,o),
(106,48,o),
(151,48,cs)
);
},
{
closed = 1;
nodes = (
(159,280,o),
(121,200,o),
(83,141,cs),
(59,103,o),
(36,74,o),
(22,74,cs),
(3,74,o),
(3,79,o),
(3,90,cs),
(3,103,o),
(54,214,o),
(78,302,cs),
(84,323,o),
(103,324,o),
(123,324,cs),
(124,324,o),
(125,324,o),
(126,324,cs),
(127.739,324,o),
(129.425,324.008,o),
(131.055,324.008,cs),
(148.163,324.008,o),
(159,323.174,o),
(159,304,cs)
);
}
);
width = 526;
}
);
},
{
glyphname = uni05D2_quoteright_uni05D9;
layers = (
{
layerId = master01;
shapes = (
{
closed = 1;
nodes = (
(302.45,569.219,o),
(309.571,575.06,o),
(321.72,575.06,cs),
(328.723,575.06,o),
(337.396,573.119,o),
(348,568,cs),
(361.675,561.398,o),
(366.528,552.767,o),
(366.528,545.065,cs),
(366.528,540.964,o),
(365.152,537.127,o),
(363,534,cs),
(335.476,494,o),
(274.263,427.95,o),
(243,421,cs),
(239.713,420.269,o),
(236.59,419.931,o),
(233.678,419.931,cs),
(220.216,419.931,o),
(211.237,427.16,o),
(211.237,436.309,cs),
(211.237,437.828,o),
(211.485,439.4,o),
(212,441,cs),
(216.831,456,o),
(248.758,488,o),
(299,564,cs)
);
},
{
closed = 1;
nodes = (
(0,105,o),
(0,94,o),
(24,181,cs),
(30,202,o),
(49,204,o),
(69,204,cs),
(70,204,o),
(71,204,o),
(72,204,cs),
(92,204,o),
(105,204,o),
(105,183,cs),
(105,143,o),
(53,76,o),
(20,76,cs),
(2,76,o),
(0,81,o),
(0,92,cs)
);
},
{
closed = 1;
nodes = (
(199,48,o),
(258,10,o),
(298,10,cs),
(373,10,o),
(405,100,o),
(405,178,cs),
(405,210,o),
(440,219,o),
(476,219,cs),
(486,219,o),
(496,213,o),
(496,200,cs),
(496,92,o),
(396,-37,o),
(292,-37,cs),
(256,-37,o),
(204,-5,o),
(168,-5,cs),
(139,-5,o),
(83,-34,o),
(46,-34,cs),
(-44,-34,o),
(-113,13,o),
(-113,34,cs),
(-113,40,o),
(-111,43,o),
(-103,43,cs),
(-68,43,o),
(-45,16,o),
(5,16,cs),
(66,16,o),
(106,48,o),
(151,48,cs)
);
}
);
width = 526;
}
);
},
{
glyphname = uni05D2_uni05D5;
layers = (
{
layerId = master01;
shapes = (
{
closed = 1;
nodes = (
(199,48,o),
(258,10,o),
(298,10,cs),
(373,10,o),
(405,100,o),
(405,178,cs),
(405,210,o),
(440,219,o),
(476,219,cs),
(486,219,o),
(496,213,o),
(496,200,cs),
(496,92,o),
(396,-37,o),
(292,-37,cs),
(256,-37,o),
(204,-5,o),
(168,-5,cs),
(139,-5,o),
(83,-34,o),
(46,-34,cs),
(-44,-34,o),
(-113,13,o),
(-113,34,cs),
(-113,40,o),
(-111,43,o),
(-103,43,cs),
(-68,43,o),
(-45,16,o),
(5,16,cs),
(66,16,o),
(106,48,o),
(151,48,cs)
);
},
{
closed = 1;
nodes = (
(159,280,o),
(121,200,o),
(83,141,cs),
(59,103,o),
(36,74,o),
(22,74,cs),
(3,74,o),
(3,79,o),
(3,90,cs),
(3,103,o),
(54,214,o),
(78,302,cs),
(84,323,o),
(103,324,o),
(123,324,cs),
(124,324,o),
(125,324,o),
(126,324,cs),
(127.739,324,o),
(129.425,324.008,o),
(131.055,324.008,cs),
(148.163,324.008,o),
(159,323.174,o),
(159,304,cs)
);
}
);
width = 526;
}
);
},
{
glyphname = uni05D2_uni05D9;
layers = (
{
layerId = master01;
shapes = (
{
closed = 1;
nodes = (
(0,105,o),
(0,94,o),
(24,181,cs),
(30,202,o),
(49,204,o),
(69,204,cs),
(70,204,o),
(71,204,o),
(72,204,cs),
(92,204,o),
(105,204,o),
(105,183,cs),
(105,143,o),
(53,76,o),
(20,76,cs),
(2,76,o),
(0,81,o),
(0,92,cs)
);
},
{
closed = 1;
nodes = (
(199,48,o),
(258,10,o),
(298,10,cs),
(373,10,o),
(405,100,o),
(405,178,cs),
(405,210,o),
(440,219,o),
(476,219,cs),
(486,219,o),
(496,213,o),
(496,200,cs),
(496,92,o),
(396,-37,o),
(292,-37,cs),
(256,-37,o),
(204,-5,o),
(168,-5,cs),
(139,-5,o),
(83,-34,o),
(46,-34,cs),
(-44,-34,o),
(-113,13,o),
(-113,34,cs),
(-113,40,o),
(-111,43,o),
(-103,43,cs),
(-68,43,o),
(-45,16,o),
(5,16,cs),
(66,16,o),
(106,48,o),
(151,48,cs)
);
}
);
width = 526;
}
);
},
{
glyphname = uni05D2_uni05F3;
layers = (
{
layerId = master01;
shapes = (
{
closed = 1;
nodes = (
(302.45,569.219,o),
(309.571,575.06,o),
(321.72,575.06,cs),
(328.723,575.06,o),
(337.396,573.119,o),
(348,568,cs),
(361.675,561.398,o),
(366.528,552.767,o),
(366.528,545.065,cs),
(366.528,540.964,o),
(365.152,537.127,o),
(363,534,cs),
(335.476,494,o),
(274.263,427.95,o),
(243,421,cs),
(239.713,420.269,o),
(236.59,419.931,o),
(233.678,419.931,cs),
(220.216,419.931,o),
(211.237,427.16,o),
(211.237,436.309,cs),
(211.237,437.828,o),
(211.485,439.4,o),
(212,441,cs),
(216.831,456,o),
(248.758,488,o),
(299,564,cs)
);
},
{
closed = 1;
nodes = (
(199,48,o),
(258,10,o),
(298,10,cs),
(373,10,o),
(405,100,o),
(405,178,cs),
(405,210,o),
(440,219,o),
(476,219,cs),
(486,219,o),
(496,213,o),
(496,200,cs),
(496,92,o),
(396,-37,o),
(292,-37,cs),
(256,-37,o),
(204,-5,o),
(168,-5,cs),
(139,-5,o),
(83,-34,o),
(46,-34,cs),
(-44,-34,o),
(-113,13,o),
(-113,34,cs),
(-113,40,o),
(-111,43,o),
(-103,43,cs),
(-68,43,o),
(-45,16,o),
(5,16,cs),
(66,16,o),
(106,48,o),
(151,48,cs)
);
}
);
width = 526;
}
);
},
{
glyphname = uni05D2_uni05F3_uni05D5;
layers = (
{
layerId = master01;
shapes = (
{
closed = 1;
nodes = (
(354.45,569.219,o),
(361.571,575.06,o),
(373.72,575.06,cs),
(380.723,575.06,o),
(389.396,573.119,o),
(400,568,cs),
(413.675,561.398,o),
(418.528,552.767,o),
(418.528,545.065,cs),
(418.528,540.964,o),
(417.152,537.127,o),
(415,534,cs),
(387.476,494,o),
(326.263,427.95,o),
(295,421,cs),
(291.713,420.269,o),
(288.59,419.931,o),
(285.678,419.931,cs),
(272.216,419.931,o),
(263.237,427.16,o),
(263.237,436.309,cs),
(263.237,437.828,o),
(263.485,439.4,o),
(264,441,cs),
(268.831,456,o),
(300.758,488,o),
(351,564,cs)
);
},
{
closed = 1;
nodes = (
(199,48,o),
(258,10,o),
(298,10,cs),
(373,10,o),
(405,100,o),
(405,178,cs),
(405,210,o),
(440,219,o),
(476,219,cs),
(486,219,o),
(496,213,o),
(496,200,cs),
(496,92,o),
(396,-37,o),
(292,-37,cs),
(256,-37,o),
(204,-5,o),
(168,-5,cs),
(139,-5,o),
(83,-34,o),
(46,-34,cs),
(-44,-34,o),
(-113,13,o),
(-113,34,cs),
(-113,40,o),
(-111,43,o),
(-103,43,cs),
(-68,43,o),
(-45,16,o),
(5,16,cs),
(66,16,o),
(106,48,o),
(151,48,cs)
);
},
{
closed = 1;
nodes = (
(159,280,o),
(121,200,o),
(83,141,cs),
(59,103,o),
(36,74,o),
(22,74,cs),
(3,74,o),
(3,79,o),
(3,90,cs),
(3,103,o),
(54,214,o),
(78,302,cs),
(84,323,o),
(103,324,o),
(123,324,cs),
(124,324,o),
(125,324,o),
(126,324,cs),
(127.739,324,o),
(129.425,324.008,o),
(131.055,324.008,cs),
(148.163,324.008,o),
(159,323.174,o),
(159,304,cs)
);
}
);
width = 526;
}
);
},
{
glyphname = uni05D2_uni05F3_uni05D9;
layers = (
{
layerId = master01;
shapes = (
{
closed = 1;
nodes = (
(302.45,569.219,o),
(309.571,575.06,o),
(321.72,575.06,cs),
(328.723,575.06,o),
(337.396,573.119,o),
(348,568,cs),
(361.675,561.398,o),
(366.528,552.767,o),
(366.528,545.065,cs),
(366.528,540.964,o),
(365.152,537.127,o),
(363,534,cs),
(335.476,494,o),
(274.263,427.95,o),
(243,421,cs),
(239.713,420.269,o),
(236.59,419.931,o),
(233.678,419.931,cs),
(220.216,419.931,o),
(211.237,427.16,o),
(211.237,436.309,cs),
(211.237,437.828,o),
(211.485,439.4,o),
(212,441,cs),
(216.831,456,o),
(248.758,488,o),
(299,564,cs)
);
},
{
closed = 1;
nodes = (
(0,105,o),
(0,94,o),
(24,181,cs),
(30,202,o),
(49,204,o),
(69,204,cs),
(70,204,o),
(71,204,o),
(72,204,cs),
(92,204,o),
(105,204,o),
(105,183,cs),
(105,143,o),
(53,76,o),
(20,76,cs),
(2,76,o),
(0,81,o),
(0,92,cs)
);
},
{
closed = 1;
nodes = (
(199,48,o),
(258,10,o),
(298,10,cs),
(373,10,o),
(405,100,o),
(405,178,cs),
(405,210,o),
(440,219,o),
(476,219,cs),
(486,219,o),
(496,213,o),
(496,200,cs),
(496,92,o),
(396,-37,o),
(292,-37,cs),
(256,-37,o),
(204,-5,o),
(168,-5,cs),
(139,-5,o),
(83,-34,o),
(46,-34,cs),
(-44,-34,o),
(-113,13,o),
(-113,34,cs),
(-113,40,o),
(-111,43,o),
(-103,43,cs),
(-68,43,o),
(-45,16,o),
(5,16,cs),
(66,16,o),
(106,48,o),
(151,48,cs)
);
}
);
width = 526;
}
);
},
{
glyphname = uni05D2_quotesingle;
layers = (
{
layerId = master01;
shapes = (
{
closed = 1;
nodes = (
(302.45,569.219,o),
(309.571,575.06,o),
(321.72,575.06,cs),
(328.723,575.06,o),
(337.396,573.119,o),
(348,568,cs),
(361.675,561.398,o),
(366.528,552.767,o),
(366.528,545.065,cs),
(366.528,540.964,o),
(365.152,537.127,o),
(363,534,cs),
(335.476,494,o),
(274.263,427.95,o),
(243,421,cs),
(239.713,420.269,o),
(236.59,419.931,o),
(233.678,419.931,cs),
(220.216,419.931,o),
(211.237,427.16,o),
(211.237,436.309,cs),
(211.237,437.828,o),
(211.485,439.4,o),
(212,441,cs),
(216.831,456,o),
(248.758,488,o),
(299,564,cs)
);
},
{
closed = 1;
nodes = (
(199,48,o),
(258,10,o),
(298,10,cs),
(373,10,o),
(405,100,o),
(405,178,cs),
(405,210,o),
(440,219,o),
(476,219,cs),
(486,219,o),
(496,213,o),
(496,200,cs),
(496,92,o),
(396,-37,o),
(292,-37,cs),
(256,-37,o),
(204,-5,o),
(168,-5,cs),
(139,-5,o),
(83,-34,o),
(46,-34,cs),
(-44,-34,o),
(-113,13,o),
(-113,34,cs),
(-113,40,o),
(-111,43,o),
(-103,43,cs),
(-68,43,o),
(-45,16,o),
(5,16,cs),
(66,16,o),
(106,48,o),
(151,48,cs)
);
}
);
width = 526;
}
);
},
{
glyphname = uni05D2_quotesingle_uni05D5;
layers = (
{
layerId = master01;
shapes = (
{
closed = 1;
nodes = (
(354.45,569.219,o),
(361.571,575.06,o),
(373.72,575.06,cs),
(380.723,575.06,o),
(389.396,573.119,o),
(400,568,cs),
(413.675,561.398,o),
(418.528,552.767,o),
(418.528,545.065,cs),
(418.528,540.964,o),
(417.152,537.127,o),
(415,534,cs),
(387.476,494,o),
(326.263,427.95,o),
(295,421,cs),
(291.713,420.269,o),
(288.59,419.931,o),
(285.678,419.931,cs),
(272.216,419.931,o),
(263.237,427.16,o),
(263.237,436.309,cs),
(263.237,437.828,o),
(263.485,439.4,o),
(264,441,cs),
(268.831,456,o),
(300.758,488,o),
(351,564,cs)
);
},
{
closed = 1;
nodes = (
(199,48,o),
(258,10,o),
(298,10,cs),
(373,10,o),
(405,100,o),
(405,178,cs),
(405,210,o),
(440,219,o),
(476,219,cs),
(486,219,o),
(496,213,o),
(496,200,cs),
(496,92,o),
(396,-37,o),
(292,-37,cs),
(256,-37,o),
(204,-5,o),
(168,-5,cs),
(139,-5,o),
(83,-34,o),
(46,-34,cs),
(-44,-34,o),
(-113,13,o),
(-113,34,cs),
(-113,40,o),
(-111,43,o),
(-103,43,cs),
(-68,43,o),
(-45,16,o),
(5,16,cs),
(66,16,o),
(106,48,o),
(151,48,cs)
);
},
{
closed = 1;
nodes = (
(159,280,o),
(121,200,o),
(83,141,cs),
(59,103,o),
(36,74,o),
(22,74,cs),
(3,74,o),
(3,79,o),
(3,90,cs),
(3,103,o),
(54,214,o),
(78,302,cs),
(84,323,o),
(103,324,o),
(123,324,cs),
(124,324,o),
(125,324,o),
(126,324,cs),
(127.739,324,o),
(129.425,324.008,o),
(131.055,324.008,cs),
(148.163,324.008,o),
(159,323.174,o),
(159,304,cs)
);
}
);
width = 526;
}
);
},
{
glyphname = uni05D2_quotesingle_uni05D9;
layers = (
{
layerId = master01;
shapes = (
{
closed = 1;
nodes = (
(302.45,569.219,o),
(309.571,575.06,o),
(321.72,575.06,cs),
(328.723,575.06,o),
(337.396,573.119,o),
(348,568,cs),
(361.675,561.398,o),
(366.528,552.767,o),
(366.528,545.065,cs),
(366.528,540.964,o),
(365.152,537.127,o),
(363,534,cs),
(335.476,494,o),
(274.263,427.95,o),
(243,421,cs),
(239.713,420.269,o),
(236.59,419.931,o),
(233.678,419.931,cs),
(220.216,419.931,o),
(211.237,427.16,o),
(211.237,436.309,cs),
(211.237,437.828,o),
(211.485,439.4,o),
(212,441,cs),
(216.831,456,o),
(248.758,488,o),
(299,564,cs)
);
},
{
closed = 1;
nodes = (
(0,105,o),
(0,94,o),
(24,181,cs),
(30,202,o),
(49,204,o),
(69,204,cs),
(70,204,o),
(71,204,o),
(72,204,cs),
(92,204,o),
(105,204,o),
(105,183,cs),
(105,143,o),
(53,76,o),
(20,76,cs),
(2,76,o),
(0,81,o),
(0,92,cs)
);
},
{
closed = 1;
nodes = (
(199,48,o),
(258,10,o),
(298,10,cs),
(373,10,o),
(405,100,o),
(405,178,cs),
(405,210,o),
(440,219,o),
(476,219,cs),
(486,219,o),
(496,213,o),
(496,200,cs),
(496,92,o),
(396,-37,o),
(292,-37,cs),
(256,-37,o),
(204,-5,o),
(168,-5,cs),
(139,-5,o),
(83,-34,o),
(46,-34,cs),
(-44,-34,o),
(-113,13,o),
(-113,34,cs),
(-113,40,o),
(-111,43,o),
(-103,43,cs),
(-68,43,o),
(-45,16,o),
(5,16,cs),
(66,16,o),
(106,48,o),
(151,48,cs)
);
}
);
width = 526;
}
);
},
{
glyphname = uni05D3_quoteright;
layers = (
{
layerId = master01;
shapes = (
{
closed = 1;
nodes = (
(179.45,569.219,o),
(186.571,575.06,o),
(198.72,575.06,cs),
(205.723,575.06,o),
(214.396,573.119,o),
(225,568,cs),
(238.675,561.398,o),
(243.528,552.767,o),
(243.528,545.065,cs),
(243.528,540.964,o),
(242.152,537.127,o),
(240,534,cs),
(212.476,494,o),
(151.263,427.95,o),
(120,421,cs),
(116.713,420.269,o),
(113.59,419.931,o),
(110.678,419.931,cs),
(97.216,419.931,o),
(88.237,427.16,o),
(88.237,436.309,cs),
(88.237,437.828,o),
(88.485,439.4,o),
(89,441,cs),
(93.831,456,o),
(125.758,488,o),
(176,564,cs)
);
},
{
closed = 1;
nodes = (
(49.808,309.165,o),
(175,282.005,o),
(175,177,cs),
(175,103.973,o),
(122,0,o),
(25,0,cs),
(6.86,0,o),
(0.249,7.507,o),
(0.249,15.87,cs),
(0.249,25.487,o),
(8.992,36.235,o),
(19,38,cs),
(71,47.169,o),
(87.208,103,o),
(94,168,cs),
(94.508,172.862,o),
(94.754,177.485,o),
(94.754,181.884,cs),
(94.754,256.194,o),
(24.502,266.3,o),
(-40,277,cs),
(-145.011,294.42,o),
(-177.744,328.348,o),
(-177.744,345.555,cs),
(-177.744,352.005,o),
(-173.144,356.106,o),
(-166.028,356.106,cs),
(-165.372,356.106,o),
(-164.696,356.071,o),
(-164,356,cs),
(-146,354.168,o),
(-90,319.134,o),
(-18,314,cs)
);
}
);
width = 204;
}
);
},
{
glyphname = uni05D3_quoteright_uni05D9;
layers = (
{
layerId = master01;
shapes = (
{
closed = 1;
nodes = (
(-20,39,o),
(-9.794,43.223,o),
(15,130,cs),
(21,151,o),
(40,153,o),
(60,153,cs),
(61,153,o),
(62,153,o),
(63,153,cs),
(83,153,o),
(96,153,o),
(96,132,cs),
(96,125.54,o),
(94.357,117.985,o),
(91.462,109.856,cs),
(91.301,108.377,o),
(91.283,106.931,o),
(91.223,105.52,cs),
(91.179,104.505,o),
(91.158,103.481,o),
(91.158,102.448,cs),
(91.158,74.652,o),
(106.876,40.995,o),
(136.351,40.995,cs),
(136.567,40.995,o),
(136.783,40.996,o),
(137,41,cs),
(197,42,o),
(237,113.207,o),
(243,168,cs),
(243.508,172.862,o),
(243.754,177.485,o),
(243.754,181.884,cs),
(243.754,256.194,o),
(173.502,266.3,o),
(109,277,cs),
(3.989,294.42,o),
(-28.744,328.348,o),
(-28.744,345.555,cs),
(-28.744,352.005,o),
(-24.144,356.106,o),
(-17.027,356.106,cs),
(-16.372,356.106,o),
(-15.696,356.071,o),
(-15,356,cs),
(3,354.168,o),
(59,319.134,o),
(131,314,cs),
(198.808,309.165,o),
(323.062,282,o),
(324,177,cs),
(324.004,176.525,o),
(324.006,176.05,o),
(324.006,175.574,cs),
(324.006,89.997,o),
(255.331,0,o),
(135,0,cs),
(94.302,0,o),
(69.064,22.214,o),
(53.916,48.062,c),
(35.486,26.377,o),
(14.747,10,o),
(0,10,c),
(-20,10,o),
(-20,15,o),
(-20,26,cs)
);
},
{
closed = 1;
nodes = (
(328.45,569.219,o),
(335.571,575.06,o),
(347.72,575.06,cs),
(354.723,575.06,o),
(363.396,573.119,o),
(374,568,cs),
(387.675,561.398,o),
(392.528,552.767,o),
(392.528,545.065,cs),
(392.528,540.964,o),
(391.152,537.127,o),
(389,534,cs),
(361.476,494,o),
(300.263,427.95,o),
(269,421,cs),
(265.713,420.269,o),
(262.59,419.931,o),
(259.678,419.931,cs),
(246.216,419.931,o),
(237.237,427.16,o),
(237.237,436.309,cs),
(237.237,437.828,o),
(237.485,439.4,o),
(238,441,cs),
(242.831,456,o),
(274.758,488,o),
(325,564,cs)
);
}
);
width = 352;
}
);
},
{
glyphname = u05D3_quoteright_u05D9_u05D9;
layers = (
{
layerId = master01;
shapes = (
{
closed = 1;
nodes = (
(328.45,569.219,o),
(335.571,575.06,o),
(347.72,575.06,cs),
(354.723,575.06,o),
(363.396,573.119,o),
(374,568,cs),
(387.675,561.398,o),
(392.528,552.767,o),
(392.528,545.065,cs),
(392.528,540.964,o),
(391.152,537.127,o),
(389,534,cs),
(361.476,494,o),
(300.263,427.95,o),
(269,421,cs),
(265.713,420.269,o),
(262.59,419.931,o),
(259.678,419.931,cs),
(246.216,419.931,o),
(237.237,427.16,o),
(237.237,436.309,cs),
(237.237,437.828,o),
(237.485,439.4,o),
(238,441,cs),
(242.831,456,o),
(274.758,488,o),
(325,564,cs)
);
},
{
closed = 1;
nodes = (
(0,97,o),
(0,86,o),
(24,173,cs),
(30,194,o),
(49,196,o),
(69,196,cs),
(70,196,o),
(71,196,o),
(72,196,cs),
(92,196,o),
(105,196,o),
(105,175,cs),
(105,135,o),
(53,68,o),
(20,68,cs),
(0,68,o),
(0,73,o),
(0,84,cs)
);
},
{
closed = 1;
nodes = (
(135,97,o),
(135,86,o),
(159,173,cs),
(165,194,o),
(184,196,o),
(204,196,cs),
(205,196,o),
(206,196,o),
(207,196,cs),
(227,196,o),
(240,196,o),
(240,175,cs),
(240,135,o),
(188,68,o),
(155,68,cs),
(135,68,o),
(135,73,o),
(135,84,cs)
);
},
{
closed = 1;
nodes = (
(269,308.23,o),
(400,288.018,o),
(400,177,cs),
(400,103.973,o),
(347,0,o),
(250,0,cs),
(231.86,0,o),
(225.249,7.507,o),
(225.249,15.87,cs),
(225.249,25.487,o),
(233.992,36.236,o),
(244,38,cs),
(296,47.169,o),
(312.208,103,o),
(319,168,cs),
(319.487,172.657,o),
(319.722,177.101,o),
(319.722,181.343,cs),
(319.722,266.366,o),
(225.074,270.206,o),
(160,281,cs),
(46.44,299.838,o),
(5.63,342.692,o),
(5.63,360.309,cs),
(5.63,365.156,o),
(8.72,368.093,o),
(14.234,368.093,cs),
(14.798,368.093,o),
(15.387,368.062,o),
(16,368,cs),
(34,366.168,o),
(110.268,326.055,o),
(182,318,cs)
);
}
);
width = 430;
}
);
},
{
glyphname = uni05D3_uni05D9;
layers = (
{
layerId = master01;
shapes = (
{
closed = 1;
nodes = (
(-20,39,o),
(-9.794,43.223,o),
(15,130,cs),
(21,151,o),
(40,153,o),
(60,153,cs),
(61,153,o),
(62,153,o),
(63,153,cs),
(83,153,o),
(96,153,o),
(96,132,cs),
(96,125.54,o),
(94.357,117.985,o),
(91.462,109.856,cs),
(91.301,108.377,o),
(91.283,106.931,o),
(91.223,105.52,cs),
(91.179,104.505,o),
(91.158,103.481,o),
(91.158,102.448,cs),
(91.158,74.652,o),
(106.876,40.995,o),
(136.351,40.995,cs),
(136.567,40.995,o),
(136.783,40.996,o),
(137,41,cs),
(197,42,o),
(237,113.207,o),
(243,168,cs),
(243.508,172.862,o),
(243.754,177.485,o),
(243.754,181.884,cs),
(243.754,256.194,o),
(173.502,266.3,o),
(109,277,cs),
(3.989,294.42,o),
(-28.744,328.348,o),
(-28.744,345.555,cs),
(-28.744,352.005,o),
(-24.144,356.106,o),
(-17.027,356.106,cs),
(-16.372,356.106,o),
(-15.696,356.071,o),
(-15,356,cs),
(3,354.168,o),
(59,319.134,o),
(131,314,cs),
(198.808,309.165,o),
(323.062,282,o),
(324,177,cs),
(324.004,176.525,o),
(324.006,176.05,o),
(324.006,175.574,cs),
(324.006,89.997,o),
(255.331,0,o),
(135,0,cs),
(94.302,0,o),
(69.064,22.214,o),
(53.916,48.062,c),
(35.486,26.377,o),
(14.747,10,o),
(0,10,c),
(-20,10,o),
(-20,15,o),
(-20,26,cs)
);
}
);
width = 354;
}
);
},
{
glyphname = uni05D3_uni05D9_uni05D9;
layers = (
{
layerId = master01;
shapes = (
{
closed = 1;
nodes = (
(0,97,o),
(0,86,o),
(24,173,cs),
(30,194,o),
(49,196,o),
(69,196,cs),
(70,196,o),
(71,196,o),
(72,196,cs),
(92,196,o),
(105,196,o),
(105,175,cs),
(105,135,o),
(53,68,o),
(20,68,cs),
(0,68,o),
(0,73,o),
(0,84,cs)
);
},
{
closed = 1;
nodes = (
(135,97,o),
(135,86,o),
(159,173,cs),
(165,194,o),
(184,196,o),
(204,196,cs),
(205,196,o),
(206,196,o),
(207,196,cs),
(227,196,o),
(240,196,o),
(240,175,cs),
(240,135,o),
(188,68,o),
(155,68,cs),
(135,68,o),
(135,73,o),
(135,84,cs)
);
},
{
closed = 1;
nodes = (
(269,308.23,o),
(400,288.018,o),
(400,177,cs),
(400,103.973,o),
(347,0,o),
(250,0,cs),
(231.86,0,o),
(225.249,7.507,o),
(225.249,15.87,cs),
(225.249,25.487,o),
(233.992,36.236,o),
(244,38,cs),
(296,47.169,o),
(312.208,103,o),
(319,168,cs),
(319.487,172.657,o),
(319.722,177.101,o),
(319.722,181.343,cs),
(319.722,266.366,o),
(225.074,270.206,o),
(160,281,cs),
(46.44,299.838,o),
(5.63,342.692,o),
(5.63,360.309,cs),
(5.63,365.156,o),
(8.72,368.093,o),
(14.234,368.093,cs),
(14.798,368.093,o),
(15.387,368.062,o),
(16,368,cs),
(34,366.168,o),
(110.268,326.055,o),
(182,318,cs)
);
}
);
width = 430;
}
);
},
{
glyphname = uni05D3_uni05D9_uni05D9_uni05D5;
layers = (
{
layerId = master01;
shapes = (
{
closed = 1;
nodes = (
(392,308.23,o),
(523,288.018,o),
(523,177,cs),
(523,103.973,o),
(470,0,o),
(373,0,cs),
(354.86,0,o),
(348.249,7.507,o),
(348.249,15.87,cs),
(348.249,25.487,o),
(356.992,36.236,o),
(367,38,cs),
(419,47.169,o),
(435.208,103,o),
(442,168,cs),
(442.487,172.657,o),
(442.722,177.101,o),
(442.722,181.343,cs),
(442.722,266.366,o),
(348.074,270.206,o),
(283,281,cs),
(254.835,285.672,o),
(194.155,292.432,o),
(132.339,304.829,c),
(95.556,210.949,o),
(57.614,107.008,o),
(32.746,17.995,cs),
(28.412,2.483,o),
(18.059,-0.884,o),
(4.931,-0.884,cs),
(0.257,-0.884,o),
(-4.769,-0.457,o),
(-10,0,cs),
(-10.996,0.088,o),
(-10.996,0.088,o),
(-11.992,0.175,cs),
(-30.359,1.782,o),
(-40.247,2.944,o),
(-40.247,19.504,cs),
(-40.247,20.909,o),
(-40.176,22.423,o),
(-40.033,24.059,cs),
(-36.924,59.595,o),
(11.229,192.114,o),
(66.656,320.558,c),
(3.361,338.831,o),
(-48.082,365.177,o),
(-48.082,404.073,cs),
(-48.082,407.295,o),
(-47.729,410.603,o),
(-47,414,cs),
(-34.77,471.024,o),
(30.236,484.678,o),
(86.958,484.678,cs),
(107.182,484.678,o),
(126.352,482.942,o),
(141.703,480.818,c),
(176.659,548.122,o),
(207.675,595.17,o),
(224.738,595.17,cs),
(225.252,595.17,o),
(225.754,595.127,o),
(226.242,595.041,cs),
(239.8,592.65,o),
(242.987,588.889,o),
(242.987,582.878,cs),
(242.987,580.593,o),
(242.526,577.983,o),
(242,575,cs),
(240.192,564.742,o),
(197.206,467.491,o),
(148.301,345.151,c),
(204.491,331.8,o),
(265.395,322.448,o),
(305,318,cs)
);
},
{
closed = 1;
nodes = (
(258,97,o),
(258,86,o),
(282,173,cs),
(288,194,o),
(307,196,o),
(327,196,cs),
(328,196,o),
(329,196,o),
(330,196,cs),
(350,196,o),
(363,196,o),
(363,175,cs),
(363,135,o),
(311,68,o),
(278,68,cs),
(258,68,o),
(258,73,o),
(258,84,cs)
);
},
{
closed = 1;
nodes = (
(123,97,o),
(123,86,o),
(147,173,cs),
(153,194,o),
(172,196,o),
(192,196,cs),
(193,196,o),
(194,196,o),
(195,196,cs),
(215,196,o),
(228,196,o),
(228,175,cs),
(228,135,o),
(176,68,o),
(143,68,cs),
(123,68,o),
(123,73,o),
(123,84,cs)
);
},
{
closed = 1;
nodes = (
(113.687,454.985,o),
(98.009,456.744,o),
(82.666,456.744,cs),
(50.048,456.744,o),
(18.945,448.794,o),
(11,421,cs),
(10.469,419.144,o),
(10.211,417.306,o),
(10.211,415.487,cs),
(10.211,395.428,o),
(41.607,377.671,o),
(85.258,362.88,c),
(99.323,394.282,o),
(113.58,424.741,o),
(127.447,452.705,c)
);
}
);
width = 553;
}
);
},
{
glyphname = uni05D3_uni05F3;
layers = (
{
layerId = master01;
shapes = (
{
closed = 1;
nodes = (
(179.45,569.219,o),
(186.571,575.06,o),
(198.72,575.06,cs),
(205.723,575.06,o),
(214.396,573.119,o),
(225,568,cs),
(238.675,561.398,o),
(243.528,552.767,o),
(243.528,545.065,cs),
(243.528,540.964,o),
(242.152,537.127,o),
(240,534,cs),
(212.476,494,o),
(151.263,427.95,o),
(120,421,cs),
(116.713,420.269,o),
(113.59,419.931,o),
(110.678,419.931,cs),
(97.216,419.931,o),
(88.237,427.16,o),
(88.237,436.309,cs),
(88.237,437.828,o),
(88.485,439.4,o),
(89,441,cs),
(93.831,456,o),
(125.758,488,o),
(176,564,cs)
);
},
{
closed = 1;
nodes = (
(49.808,309.165,o),
(175,282.005,o),
(175,177,cs),
(175,103.973,o),
(122,0,o),
(25,0,cs),
(6.86,0,o),
(0.249,7.507,o),
(0.249,15.87,cs),
(0.249,25.487,o),
(8.992,36.235,o),
(19,38,cs),
(71,47.169,o),
(87.208,103,o),
(94,168,cs),
(94.508,172.862,o),
(94.754,177.485,o),
(94.754,181.884,cs),
(94.754,256.194,o),
(24.502,266.3,o),
(-40,277,cs),
(-145.011,294.42,o),
(-177.744,328.348,o),
(-177.744,345.555,cs),
(-177.744,352.005,o),
(-173.144,356.106,o),
(-166.028,356.106,cs),
(-165.372,356.106,o),
(-164.696,356.071,o),
(-164,356,cs),
(-146,354.168,o),
(-90,319.134,o),
(-18,314,cs)
);
}
);
width = 204;
}
);
},
{
glyphname = uni05D3_uni05F3_uni05D9;
layers = (
{
layerId = master01;
shapes = (
{
closed = 1;
nodes = (
(-20,39,o),
(-9.794,43.223,o),
(15,130,cs),
(21,151,o),
(40,153,o),
(60,153,cs),
(61,153,o),
(62,153,o),
(63,153,cs),
(83,153,o),
(96,153,o),
(96,132,cs),
(96,125.54,o),
(94.357,117.985,o),
(91.462,109.856,cs),
(91.301,108.377,o),
(91.283,106.931,o),
(91.223,105.52,cs),
(91.179,104.505,o),
(91.158,103.481,o),
(91.158,102.448,cs),
(91.158,74.652,o),
(106.876,40.995,o),
(136.351,40.995,cs),
(136.567,40.995,o),
(136.783,40.996,o),
(137,41,cs),
(197,42,o),
(237,113.207,o),
(243,168,cs),
(243.508,172.862,o),
(243.754,177.485,o),
(243.754,181.884,cs),
(243.754,256.194,o),
(173.502,266.3,o),
(109,277,cs),
(3.989,294.42,o),
(-28.744,328.348,o),
(-28.744,345.555,cs),
(-28.744,352.005,o),
(-24.144,356.106,o),
(-17.027,356.106,cs),
(-16.372,356.106,o),
(-15.696,356.071,o),
(-15,356,cs),
(3,354.168,o),
(59,319.134,o),
(131,314,cs),
(198.808,309.165,o),
(323.062,282,o),
(324,177,cs),
(324.004,176.525,o),
(324.006,176.05,o),
(324.006,175.574,cs),
(324.006,89.997,o),
(255.331,0,o),
(135,0,cs),
(94.302,0,o),
(69.064,22.214,o),
(53.916,48.062,c),
(35.486,26.377,o),
(14.747,10,o),
(0,10,c),
(-20,10,o),
(-20,15,o),
(-20,26,cs)
);
},
{
closed = 1;
nodes = (
(328.45,569.219,o),
(335.571,575.06,o),
(347.72,575.06,cs),
(354.723,575.06,o),
(363.396,573.119,o),
(374,568,cs),
(387.675,561.398,o),
(392.528,552.767,o),
(392.528,545.065,cs),
(392.528,540.964,o),
(391.152,537.127,o),
(389,534,cs),
(361.476,494,o),
(300.263,427.95,o),
(269,421,cs),
(265.713,420.269,o),
(262.59,419.931,o),
(259.678,419.931,cs),
(246.216,419.931,o),
(237.237,427.16,o),
(237.237,436.309,cs),
(237.237,437.828,o),
(237.485,439.4,o),
(238,441,cs),
(242.831,456,o),
(274.758,488,o),
(325,564,cs)
);
}
);
width = 352;
}
);
},
{
glyphname = uni05D3_uni05F3_uni05D9_uni05D9;
layers = (
{
layerId = master01;
shapes = (
{
closed = 1;
nodes = (
(328.45,569.219,o),
(335.571,575.06,o),
(347.72,575.06,cs),
(354.723,575.06,o),
(363.396,573.119,o),
(374,568,cs),
(387.675,561.398,o),
(392.528,552.767,o),
(392.528,545.065,cs),
(392.528,540.964,o),
(391.152,537.127,o),
(389,534,cs),
(361.476,494,o),
(300.263,427.95,o),
(269,421,cs),
(265.713,420.269,o),
(262.59,419.931,o),
(259.678,419.931,cs),
(246.216,419.931,o),
(237.237,427.16,o),
(237.237,436.309,cs),
(237.237,437.828,o),
(237.485,439.4,o),
(238,441,cs),
(242.831,456,o),
(274.758,488,o),
(325,564,cs)
);
},
{
closed = 1;
nodes = (
(0,97,o),
(0,86,o),
(24,173,cs),
(30,194,o),
(49,196,o),
(69,196,cs),
(70,196,o),
(71,196,o),
(72,196,cs),
(92,196,o),
(105,196,o),
(105,175,cs),
(105,135,o),
(53,68,o),
(20,68,cs),
(0,68,o),
(0,73,o),
(0,84,cs)
);
},
{
closed = 1;
nodes = (
(135,97,o),
(135,86,o),
(159,173,cs),
(165,194,o),
(184,196,o),
(204,196,cs),
(205,196,o),
(206,196,o),
(207,196,cs),
(227,196,o),
(240,196,o),
(240,175,cs),
(240,135,o),
(188,68,o),
(155,68,cs),
(135,68,o),
(135,73,o),
(135,84,cs)
);
},
{
closed = 1;
nodes = (
(269,308.23,o),
(400,288.018,o),
(400,177,cs),
(400,103.973,o),
(347,0,o),
(250,0,cs),
(231.86,0,o),
(225.249,7.507,o),
(225.249,15.87,cs),
(225.249,25.487,o),
(233.992,36.236,o),
(244,38,cs),
(296,47.169,o),
(312.208,103,o),
(319,168,cs),
(319.487,172.657,o),
(319.722,177.101,o),
(319.722,181.343,cs),
(319.722,266.366,o),
(225.074,270.206,o),
(160,281,cs),
(46.44,299.838,o),
(5.63,342.692,o),
(5.63,360.309,cs),
(5.63,365.156,o),
(8.72,368.093,o),
(14.234,368.093,cs),
(14.798,368.093,o),
(15.387,368.062,o),
(16,368,cs),
(34,366.168,o),
(110.268,326.055,o),
(182,318,cs)
);
}
);
width = 430;
}
);
},
{
glyphname = uni05D3_quotesingle;
layers = (
{
layerId = master01;
shapes = (
{
closed = 1;
nodes = (
(179.45,569.219,o),
(186.571,575.06,o),
(198.72,575.06,cs),
(205.723,575.06,o),
(214.396,573.119,o),
(225,568,cs),
(238.675,561.398,o),
(243.528,552.767,o),
(243.528,545.065,cs),
(243.528,540.964,o),
(242.152,537.127,o),
(240,534,cs),
(212.476,494,o),
(151.263,427.95,o),
(120,421,cs),
(116.713,420.269,o),
(113.59,419.931,o),
(110.678,419.931,cs),
(97.216,419.931,o),
(88.237,427.16,o),
(88.237,436.309,cs),
(88.237,437.828,o),
(88.485,439.4,o),
(89,441,cs),
(93.831,456,o),
(125.758,488,o),
(176,564,cs)
);
},
{
closed = 1;
nodes = (
(49.808,309.165,o),
(175,282.005,o),
(175,177,cs),
(175,103.973,o),
(122,0,o),
(25,0,cs),
(6.86,0,o),
(0.249,7.507,o),
(0.249,15.87,cs),
(0.249,25.487,o),
(8.992,36.235,o),
(19,38,cs),
(71,47.169,o),
(87.208,103,o),
(94,168,cs),
(94.508,172.862,o),
(94.754,177.485,o),
(94.754,181.884,cs),
(94.754,256.194,o),
(24.502,266.3,o),
(-40,277,cs),
(-145.011,294.42,o),
(-177.744,328.348,o),
(-177.744,345.555,cs),
(-177.744,352.005,o),
(-173.144,356.106,o),
(-166.028,356.106,cs),
(-165.372,356.106,o),
(-164.696,356.071,o),
(-164,356,cs),
(-146,354.168,o),
(-90,319.134,o),
(-18,314,cs)
);
}
);
width = 204;
}
);
},
{
glyphname = uni05D3_quotesingle_uni05D9;
layers = (
{
layerId = master01;
shapes = (
{
closed = 1;
nodes = (
(-20,39,o),
(-9.794,43.223,o),
(15,130,cs),
(21,151,o),
(40,153,o),
(60,153,cs),
(61,153,o),
(62,153,o),
(63,153,cs),
(83,153,o),
(96,153,o),
(96,132,cs),
(96,125.54,o),
(94.357,117.985,o),
(91.462,109.856,cs),
(91.301,108.377,o),
(91.283,106.931,o),
(91.223,105.52,cs),
(91.179,104.505,o),
(91.158,103.481,o),
(91.158,102.448,cs),
(91.158,74.652,o),
(106.876,40.995,o),
(136.351,40.995,cs),
(136.567,40.995,o),
(136.783,40.996,o),
(137,41,cs),
(197,42,o),
(237,113.207,o),
(243,168,cs),
(243.508,172.862,o),
(243.754,177.485,o),
(243.754,181.884,cs),
(243.754,256.194,o),
(173.502,266.3,o),
(109,277,cs),
(3.989,294.42,o),
(-28.744,328.348,o),
(-28.744,345.555,cs),
(-28.744,352.005,o),
(-24.144,356.106,o),
(-17.027,356.106,cs),
(-16.372,356.106,o),
(-15.696,356.071,o),
(-15,356,cs),
(3,354.168,o),
(59,319.134,o),
(131,314,cs),
(198.808,309.165,o),
(323.062,282,o),
(324,177,cs),
(324.004,176.525,o),
(324.006,176.05,o),
(324.006,175.574,cs),
(324.006,89.997,o),
(255.331,0,o),
(135,0,cs),
(94.302,0,o),
(69.064,22.214,o),
(53.916,48.062,c),
(35.486,26.377,o),
(14.747,10,o),
(0,10,c),
(-20,10,o),
(-20,15,o),
(-20,26,cs)
);
},
{
closed = 1;
nodes = (
(328.45,569.219,o),
(335.571,575.06,o),
(347.72,575.06,cs),
(354.723,575.06,o),
(363.396,573.119,o),
(374,568,cs),
(387.675,561.398,o),
(392.528,552.767,o),
(392.528,545.065,cs),
(392.528,540.964,o),
(391.152,537.127,o),
(389,534,cs),
(361.476,494,o),
(300.263,427.95,o),
(269,421,cs),
(265.713,420.269,o),
(262.59,419.931,o),
(259.678,419.931,cs),
(246.216,419.931,o),
(237.237,427.16,o),
(237.237,436.309,cs),
(237.237,437.828,o),
(237.485,439.4,o),
(238,441,cs),
(242.831,456,o),
(274.758,488,o),
(325,564,cs)
);
}
);
width = 352;
}
);
},
{
glyphname = u05D3_quotesingle_u05D9_u05D9;
layers = (
{
layerId = master01;
shapes = (
{
closed = 1;
nodes = (
(328.45,569.219,o),
(335.571,575.06,o),
(347.72,575.06,cs),
(354.723,575.06,o),
(363.396,573.119,o),
(374,568,cs),
(387.675,561.398,o),
(392.528,552.767,o),
(392.528,545.065,cs),
(392.528,540.964,o),
(391.152,537.127,o),
(389,534,cs),
(361.476,494,o),
(300.263,427.95,o),
(269,421,cs),
(265.713,420.269,o),
(262.59,419.931,o),
(259.678,419.931,cs),
(246.216,419.931,o),
(237.237,427.16,o),
(237.237,436.309,cs),
(237.237,437.828,o),
(237.485,439.4,o),
(238,441,cs),
(242.831,456,o),
(274.758,488,o),
(325,564,cs)
);
},
{
closed = 1;
nodes = (
(0,97,o),
(0,86,o),
(24,173,cs),
(30,194,o),
(49,196,o),
(69,196,cs),
(70,196,o),
(71,196,o),
(72,196,cs),
(92,196,o),
(105,196,o),
(105,175,cs),
(105,135,o),
(53,68,o),
(20,68,cs),
(0,68,o),
(0,73,o),
(0,84,cs)
);
},
{
closed = 1;
nodes = (
(135,97,o),
(135,86,o),
(159,173,cs),
(165,194,o),
(184,196,o),
(204,196,cs),
(205,196,o),
(206,196,o),
(207,196,cs),
(227,196,o),
(240,196,o),
(240,175,cs),
(240,135,o),
(188,68,o),
(155,68,cs),
(135,68,o),
(135,73,o),
(135,84,cs)
);
},
{
closed = 1;
nodes = (
(269,308.23,o),
(400,288.018,o),
(400,177,cs),
(400,103.973,o),
(347,0,o),
(250,0,cs),
(231.86,0,o),
(225.249,7.507,o),
(225.249,15.87,cs),
(225.249,25.487,o),
(233.992,36.236,o),
(244,38,cs),
(296,47.169,o),
(312.208,103,o),
(319,168,cs),
(319.487,172.657,o),
(319.722,177.101,o),
(319.722,181.343,cs),
(319.722,266.366,o),
(225.074,270.206,o),
(160,281,cs),
(46.44,299.838,o),
(5.63,342.692,o),
(5.63,360.309,cs),
(5.63,365.156,o),
(8.72,368.093,o),
(14.234,368.093,cs),
(14.798,368.093,o),
(15.387,368.062,o),
(16,368,cs),
(34,366.168,o),
(110.268,326.055,o),
(182,318,cs)
);
}
);
width = 430;
}
);
},
{
glyphname = uni05D4_quoteright;
layers = (
{
layerId = master01;
shapes = (
{
closed = 1;
nodes = (
(115.45,569.219,o),
(122.571,575.06,o),
(134.72,575.06,cs),
(141.723,575.06,o),
(150.396,573.119,o),
(161,568,cs),
(174.675,561.398,o),
(179.528,552.767,o),
(179.528,545.065,cs),
(179.528,540.964,o),
(178.152,537.127,o),
(176,534,cs),
(148.476,494,o),
(87.263,427.95,o),
(56,421,cs),
(52.713,420.269,o),
(49.59,419.931,o),
(46.678,419.931,cs),
(33.216,419.931,o),
(24.237,427.16,o),
(24.237,436.309,cs),
(24.237,437.828,o),
(24.485,439.4,o),
(25,441,cs),
(29.831,456,o),
(61.758,488,o),
(112,564,cs)
);
},
{
closed = 1;
nodes = (
(62.88,217.377,o),
(62.82,218.712,o),
(62.82,220.009,cs),
(62.82,248.723,o),
(91.846,257.945,o),
(126.16,260.945,cs),
(126.888,261.009,o),
(127.623,261.041,o),
(128.362,261.041,cs),
(137.744,261.041,o),
(147.686,255.852,o),
(148.736,243.848,cs),
(149.445,235.747,o),
(149.782,228.03,o),
(149.782,220.671,cs),
(149.782,81.429,o),
(29.314,70.162,o),
(29.314,13.713,cs),
(29.314,6.902,o),
(31.068,-0.568,o),
(35,-9,cs),
(36.747,-12.746,o),
(37.887,-17.051,o),
(37.887,-21.238,cs),
(37.887,-28.193,o),
(34.74,-34.819,o),
(26,-38,cs),
(19.5,-40.366,o),
(11.265,-42.092,o),
(2.838,-42.092,cs),
(-10.775,-42.092,o),
(-24.888,-37.588,o),
(-33,-24,cs),
(-41.736,-9.366,o),
(-45.426,2.86,o),
(-45.426,13.577,cs),
(-45.426,71.872,o),
(63.754,85.509,o),
(63.754,199.203,cs),
(63.754,204.574,o),
(63.51,210.168,o),
(63,216,cs)
);
}
);
width = 180;
}
);
},
{
glyphname = uni05D4_uni05F3;
layers = (
{
layerId = master01;
shapes = (
{
closed = 1;
nodes = (
(115.45,569.219,o),
(122.571,575.06,o),
(134.72,575.06,cs),
(141.723,575.06,o),
(150.396,573.119,o),
(161,568,cs),
(174.675,561.398,o),
(179.528,552.767,o),
(179.528,545.065,cs),
(179.528,540.964,o),
(178.152,537.127,o),
(176,534,cs),
(148.476,494,o),
(87.263,427.95,o),
(56,421,cs),
(52.713,420.269,o),
(49.59,419.931,o),
(46.678,419.931,cs),
(33.216,419.931,o),
(24.237,427.16,o),
(24.237,436.309,cs),
(24.237,437.828,o),
(24.485,439.4,o),
(25,441,cs),
(29.831,456,o),
(61.758,488,o),
(112,564,cs)
);
},
{
closed = 1;
nodes = (
(62.88,217.377,o),
(62.82,218.712,o),
(62.82,220.009,cs),
(62.82,248.723,o),
(91.846,257.945,o),
(126.16,260.945,cs),
(126.888,261.009,o),
(127.623,261.041,o),
(128.362,261.041,cs),
(137.744,261.041,o),
(147.686,255.852,o),
(148.736,243.848,cs),
(149.445,235.747,o),
(149.782,228.03,o),
(149.782,220.671,cs),
(149.782,81.429,o),
(29.314,70.162,o),
(29.314,13.713,cs),
(29.314,6.902,o),
(31.068,-0.568,o),
(35,-9,cs),
(36.747,-12.746,o),
(37.887,-17.051,o),
(37.887,-21.238,cs),
(37.887,-28.193,o),
(34.74,-34.819,o),
(26,-38,cs),
(19.5,-40.366,o),
(11.265,-42.092,o),
(2.838,-42.092,cs),
(-10.775,-42.092,o),
(-24.888,-37.588,o),
(-33,-24,cs),
(-41.736,-9.366,o),
(-45.426,2.86,o),
(-45.426,13.577,cs),
(-45.426,71.872,o),
(63.754,85.509,o),
(63.754,199.203,cs),
(63.754,204.574,o),
(63.51,210.168,o),
(63,216,cs)
);
}
);
width = 180;
}
);
},
{
glyphname = uni05D4_quotesingle;
layers = (
{
layerId = master01;
shapes = (
{
closed = 1;
nodes = (
(115.45,569.219,o),
(122.571,575.06,o),
(134.72,575.06,cs),
(141.723,575.06,o),
(150.396,573.119,o),
(161,568,cs),
(174.675,561.398,o),
(179.528,552.767,o),
(179.528,545.065,cs),
(179.528,540.964,o),
(178.152,537.127,o),
(176,534,cs),
(148.476,494,o),
(87.263,427.95,o),
(56,421,cs),
(52.713,420.269,o),
(49.59,419.931,o),
(46.678,419.931,cs),
(33.216,419.931,o),
(24.237,427.16,o),
(24.237,436.309,cs),
(24.237,437.828,o),
(24.485,439.4,o),
(25,441,cs),
(29.831,456,o),
(61.758,488,o),
(112,564,cs)
);
},
{
closed = 1;
nodes = (
(62.88,217.377,o),
(62.82,218.712,o),
(62.82,220.009,cs),
(62.82,248.723,o),
(91.846,257.945,o),
(126.16,260.945,cs),
(126.888,261.009,o),
(127.623,261.041,o),
(128.362,261.041,cs),
(137.744,261.041,o),
(147.686,255.852,o),
(148.736,243.848,cs),
(149.445,235.747,o),
(149.782,228.03,o),
(149.782,220.671,cs),
(149.782,81.429,o),
(29.314,70.162,o),
(29.314,13.713,cs),
(29.314,6.902,o),
(31.068,-0.568,o),
(35,-9,cs),
(36.747,-12.746,o),
(37.887,-17.051,o),
(37.887,-21.238,cs),
(37.887,-28.193,o),
(34.74,-34.819,o),
(26,-38,cs),
(19.5,-40.366,o),
(11.265,-42.092,o),
(2.838,-42.092,cs),
(-10.775,-42.092,o),
(-24.888,-37.588,o),
(-33,-24,cs),
(-41.736,-9.366,o),
(-45.426,2.86,o),
(-45.426,13.577,cs),
(-45.426,71.872,o),
(63.754,85.509,o),
(63.754,199.203,cs),
(63.754,204.574,o),
(63.51,210.168,o),
(63,216,cs)
);
}
);
width = 180;
}
);
},
{
glyphname = uni05D6_quoteright;
layers = (
{
layerId = master01;
shapes = (
{
closed = 1;
nodes = (
(185.45,569.219,o),
(192.571,575.06,o),
(204.72,575.06,cs),
(211.723,575.06,o),
(220.396,573.119,o),
(231,568,cs),
(244.675,561.398,o),
(249.528,552.767,o),
(249.528,545.065,cs),
(249.528,540.964,o),
(248.152,537.127,o),
(246,534,cs),
(218.476,494,o),
(157.263,427.95,o),
(126,421,cs),
(122.713,420.269,o),
(119.59,419.931,o),
(116.678,419.931,cs),
(103.216,419.931,o),
(94.237,427.16,o),
(94.237,436.309,cs),
(94.237,437.828,o),
(94.485,439.4,o),
(95,441,cs),
(99.831,456,o),
(131.758,488,o),
(182,564,cs)
);
},
{
closed = 1;
nodes = (
(-35,-1,o),
(-46,5,o),
(-46,18,cs),
(-46,28.198,o),
(46,274,o),
(146,274,cs),
(165,274,o),
(179,257,o),
(179,238,cs),
(179,201,o),
(152,166,o),
(128,166,cs),
(113,166,o),
(94.175,165.886,o),
(85,152,cs),
(17.299,49.533,o),
(0,-1,o),
(-25,-1,cs)
);
}
);
width = 180;
}
);
},
{
glyphname = uni05D6_uni05F3;
layers = (
{
layerId = master01;
shapes = (
{
closed = 1;
nodes = (
(185.45,569.219,o),
(192.571,575.06,o),
(204.72,575.06,cs),
(211.723,575.06,o),
(220.396,573.119,o),
(231,568,cs),
(244.675,561.398,o),
(249.528,552.767,o),
(249.528,545.065,cs),
(249.528,540.964,o),
(248.152,537.127,o),
(246,534,cs),
(218.476,494,o),
(157.263,427.95,o),
(126,421,cs),
(122.713,420.269,o),
(119.59,419.931,o),
(116.678,419.931,cs),
(103.216,419.931,o),
(94.237,427.16,o),
(94.237,436.309,cs),
(94.237,437.828,o),
(94.485,439.4,o),
(95,441,cs),
(99.831,456,o),
(131.758,488,o),
(182,564,cs)
);
},
{
closed = 1;
nodes = (
(-35,-1,o),
(-46,5,o),
(-46,18,cs),
(-46,28.198,o),
(46,274,o),
(146,274,cs),
(165,274,o),
(179,257,o),
(179,238,cs),
(179,201,o),
(152,166,o),
(128,166,cs),
(113,166,o),
(94.175,165.886,o),
(85,152,cs),
(17.299,49.533,o),
(0,-1,o),
(-25,-1,cs)
);
}
);
width = 180;
}
);
},
{
glyphname = uni05D6_quotesingle;
layers = (
{
layerId = master01;
shapes = (
{
closed = 1;
nodes = (
(185.45,569.219,o),
(192.571,575.06,o),
(204.72,575.06,cs),
(211.723,575.06,o),
(220.396,573.119,o),
(231,568,cs),
(244.675,561.398,o),
(249.528,552.767,o),
(249.528,545.065,cs),
(249.528,540.964,o),
(248.152,537.127,o),
(246,534,cs),
(218.476,494,o),
(157.263,427.95,o),
(126,421,cs),
(122.713,420.269,o),
(119.59,419.931,o),
(116.678,419.931,cs),
(103.216,419.931,o),
(94.237,427.16,o),
(94.237,436.309,cs),
(94.237,437.828,o),
(94.485,439.4,o),
(95,441,cs),
(99.831,456,o),
(131.758,488,o),
(182,564,cs)
);
},
{
closed = 1;
nodes = (
(-35,-1,o),
(-46,5,o),
(-46,18,cs),
(-46,28.198,o),
(46,274,o),
(146,274,cs),
(165,274,o),
(179,257,o),
(179,238,cs),
(179,201,o),
(152,166,o),
(128,166,cs),
(113,166,o),
(94.175,165.886,o),
(85,152,cs),
(17.299,49.533,o),
(0,-1,o),
(-25,-1,cs)
);
}
);
width = 180;
}
);
},
{
glyphname = uni05DF_quoteright;
layers = (
{
layerId = master01;
shapes = (
{
closed = 1;
nodes = (
(185.45,569.219,o),
(192.571,575.06,o),
(204.72,575.06,cs),
(211.723,575.06,o),
(220.396,573.119,o),
(231,568,cs),
(244.675,561.398,o),
(249.528,552.767,o),
(249.528,545.065,cs),
(249.528,540.964,o),
(248.152,537.127,o),
(246,534,cs),
(218.476,494,o),
(157.263,427.95,o),
(126,421,cs),
(122.713,420.269,o),
(119.59,419.931,o),
(116.678,419.931,cs),
(103.216,419.931,o),
(94.237,427.16,o),
(94.237,436.309,cs),
(94.237,437.828,o),
(94.485,439.4,o),
(95,441,cs),
(99.831,456,o),
(131.758,488,o),
(182,564,cs)
);
},
{
closed = 1;
nodes = (
(-170.423,-271.628,o),
(126,237,o),
(180,237,cs),
(199,237,o),
(199,231,o),
(199,220,cs),
(199,200.765,o),
(-11.057,-130.146,o),
(-96.195,-352.571,cs),
(-102.082,-367.949,o),
(-114.338,-371.358,o),
(-128.551,-371.358,cs),
(-133.191,-371.358,o),
(-138.039,-370.995,o),
(-142.941,-370.566,cs),
(-143.938,-370.479,o),
(-143.938,-370.479,o),
(-144.934,-370.392,cs),
(-163.68,-368.751,o),
(-177.136,-367.575,o),
(-177.136,-350.014,cs),
(-177.136,-348.911,o),
(-177.083,-347.744,o),
(-176.975,-346.508,cs)
);
}
);
width = 219;
}
);
},
{
glyphname = uni05DF_uni05F3;
layers = (
{
layerId = master01;
shapes = (
{
closed = 1;
nodes = (
(185.45,569.219,o),
(192.571,575.06,o),
(204.72,575.06,cs),
(211.723,575.06,o),
(220.396,573.119,o),
(231,568,cs),
(244.675,561.398,o),
(249.528,552.767,o),
(249.528,545.065,cs),
(249.528,540.964,o),
(248.152,537.127,o),
(246,534,cs),
(218.476,494,o),
(157.263,427.95,o),
(126,421,cs),
(122.713,420.269,o),
(119.59,419.931,o),
(116.678,419.931,cs),
(103.216,419.931,o),
(94.237,427.16,o),
(94.237,436.309,cs),
(94.237,437.828,o),
(94.485,439.4,o),
(95,441,cs),
(99.831,456,o),
(131.758,488,o),
(182,564,cs)
);
},
{
closed = 1;
nodes = (
(-170.423,-271.628,o),
(126,237,o),
(180,237,cs),
(199,237,o),
(199,231,o),
(199,220,cs),
(199,200.765,o),
(-11.057,-130.146,o),
(-96.195,-352.571,cs),
(-102.082,-367.949,o),
(-114.338,-371.358,o),
(-128.551,-371.358,cs),
(-133.191,-371.358,o),
(-138.039,-370.995,o),
(-142.941,-370.566,cs),
(-143.938,-370.479,o),
(-143.938,-370.479,o),
(-144.934,-370.392,cs),
(-163.68,-368.751,o),
(-177.136,-367.575,o),
(-177.136,-350.014,cs),
(-177.136,-348.911,o),
(-177.083,-347.744,o),
(-176.975,-346.508,cs)
);
}
);
width = 219;
}
);
},
{
glyphname = uni05DF_quotesingle;
layers = (
{
layerId = master01;
shapes = (
{
closed = 1;
nodes = (
(185.45,569.219,o),
(192.571,575.06,o),
(204.72,575.06,cs),
(211.723,575.06,o),
(220.396,573.119,o),
(231,568,cs),
(244.675,561.398,o),
(249.528,552.767,o),
(249.528,545.065,cs),
(249.528,540.964,o),
(248.152,537.127,o),
(246,534,cs),
(218.476,494,o),
(157.263,427.95,o),
(126,421,cs),
(122.713,420.269,o),
(119.59,419.931,o),
(116.678,419.931,cs),
(103.216,419.931,o),
(94.237,427.16,o),
(94.237,436.309,cs),
(94.237,437.828,o),
(94.485,439.4,o),
(95,441,cs),
(99.831,456,o),
(131.758,488,o),
(182,564,cs)
);
},
{
closed = 1;
nodes = (
(-170.423,-271.628,o),
(126,237,o),
(180,237,cs),
(199,237,o),
(199,231,o),
(199,220,cs),
(199,200.765,o),
(-11.057,-130.146,o),
(-96.195,-352.571,cs),
(-102.082,-367.949,o),
(-114.338,-371.358,o),
(-128.551,-371.358,cs),
(-133.191,-371.358,o),
(-138.039,-370.995,o),
(-142.941,-370.566,cs),
(-143.938,-370.479,o),
(-143.938,-370.479,o),
(-144.934,-370.392,cs),
(-163.68,-368.751,o),
(-177.136,-367.575,o),
(-177.136,-350.014,cs),
(-177.136,-348.911,o),
(-177.083,-347.744,o),
(-176.975,-346.508,cs)
);
}
);
width = 219;
}
);
},
{
glyphname = uni05E1_quoteright;
layers = (
{
layerId = master01;
shapes = (
{
closed = 1;
nodes = (
(195.992,59.505,o),
(224.143,184,o),
(237,229,cs),
(243,250,o),
(262,251,o),
(282,251,cs),
(283,251,o),
(283,251,o),
(284,251,cs),
(304,251,o),
(318,251,o),
(318,230,cs),
(318,229.722,o),
(317.995,229.437,o),
(317.984,229.143,c),
(340.62,242.148,o),
(366.256,251,o),
(394,251,c),
(474.576,251,o),
(503.55,206.034,o),
(503.55,158.49,cs),
(503.55,154.67,o),
(503.362,150.832,o),
(503,147,cs),
(494.014,52,o),
(398,0,o),
(319,0,cs),
(274.739,0,o),
(250.764,26.274,o),
(236.166,54.923,c),
(191.108,4.823,o),
(135.362,-17.232,o),
(84.632,-17.232,cs),
(8.225,-17.232,o),
(-56.805,32.801,o),
(-56.805,112.4,cs),
(-56.805,151.389,o),
(-41.203,197.473,o),
(-3.693,248.244,cs),
(14.071,272.29,o),
(33.003,284.031,o),
(44.742,284.031,cs),
(51.832,284.031,o),
(56.299,279.747,o),
(56.299,271.303,cs),
(56.299,262.588,o),
(51.541,249.441,o),
(40,232,cs),
(11.996,189.679,o),
(-0.983,148.77,o),
(-0.983,115.125,cs),
(-0.983,66.037,o),
(26.645,32.409,o),
(75.54,32.409,cs),
(85.78,32.409,o),
(96.953,33.883,o),
(109,37,cs)
);
},
{
closed = 1;
nodes = (
(277.783,114.966,o),
(276.55,107.455,o),
(276.55,99.88,cs),
(276.55,70.646,o),
(293.203,41,o),
(321,41,cs),
(379,41,o),
(422,97,o),
(426,147,cs),
(426.202,149.522,o),
(426.3,151.952,o),
(426.3,154.29,cs),
(426.3,192.068,o),
(400.79,204.49,o),
(378.773,206.074,cs),
(374.391,206.389,o),
(370.235,206.544,o),
(366.292,206.544,cs),
(307.687,206.544,o),
(295.865,172.343,o),
(280,122,cs)
);
},
{
closed = 1;
nodes = (
(156.45,569.219,o),
(163.571,575.06,o),
(175.72,575.06,cs),
(182.723,575.06,o),
(191.396,573.119,o),
(202,568,cs),
(215.675,561.398,o),
(220.528,552.767,o),
(220.528,545.065,cs),
(220.528,540.964,o),
(219.152,537.127,o),
(217,534,cs),
(189.476,494,o),
(128.263,427.95,o),
(97,421,cs),
(93.713,420.269,o),
(90.59,419.931,o),
(87.678,419.931,cs),
(74.216,419.931,o),
(65.237,427.16,o),
(65.237,436.309,cs),
(65.237,437.828,o),
(65.485,439.4,o),
(66,441,cs),
(70.831,456,o),
(102.758,488,o),
(153,564,cs)
);
}
);
width = 534;
}
);
},
{
glyphname = uni05E1_uni05F3;
layers = (
{
layerId = master01;
shapes = (
{
closed = 1;
nodes = (
(195.992,59.505,o),
(224.143,184,o),
(237,229,cs),
(243,250,o),
(262,251,o),
(282,251,cs),
(283,251,o),
(283,251,o),
(284,251,cs),
(304,251,o),
(318,251,o),
(318,230,cs),
(318,229.722,o),
(317.995,229.437,o),
(317.984,229.143,c),
(340.62,242.148,o),
(366.256,251,o),
(394,251,c),
(474.576,251,o),
(503.55,206.034,o),
(503.55,158.49,cs),
(503.55,154.67,o),
(503.362,150.832,o),
(503,147,cs),
(494.014,52,o),
(398,0,o),
(319,0,cs),
(274.739,0,o),
(250.764,26.274,o),
(236.166,54.923,c),
(191.108,4.823,o),
(135.362,-17.232,o),
(84.632,-17.232,cs),
(8.225,-17.232,o),
(-56.805,32.801,o),
(-56.805,112.4,cs),
(-56.805,151.389,o),
(-41.203,197.473,o),
(-3.693,248.244,cs),
(14.071,272.29,o),
(33.003,284.031,o),
(44.742,284.031,cs),
(51.832,284.031,o),
(56.299,279.747,o),
(56.299,271.303,cs),
(56.299,262.588,o),
(51.541,249.441,o),
(40,232,cs),
(11.996,189.679,o),
(-0.983,148.77,o),
(-0.983,115.125,cs),
(-0.983,66.037,o),
(26.645,32.409,o),
(75.54,32.409,cs),
(85.78,32.409,o),
(96.953,33.883,o),
(109,37,cs)
);
},
{
closed = 1;
nodes = (
(277.783,114.966,o),
(276.55,107.455,o),
(276.55,99.88,cs),
(276.55,70.646,o),
(293.203,41,o),
(321,41,cs),
(379,41,o),
(422,97,o),
(426,147,cs),
(426.202,149.522,o),
(426.3,151.952,o),
(426.3,154.29,cs),
(426.3,192.068,o),
(400.79,204.49,o),
(378.773,206.074,cs),
(374.391,206.389,o),
(370.235,206.544,o),
(366.292,206.544,cs),
(307.687,206.544,o),
(295.865,172.343,o),
(280,122,cs)
);
},
{
closed = 1;
nodes = (
(156.45,569.219,o),
(163.571,575.06,o),
(175.72,575.06,cs),
(182.723,575.06,o),
(191.396,573.119,o),
(202,568,cs),
(215.675,561.398,o),
(220.528,552.767,o),
(220.528,545.065,cs),
(220.528,540.964,o),
(219.152,537.127,o),
(217,534,cs),
(189.476,494,o),
(128.263,427.95,o),
(97,421,cs),
(93.713,420.269,o),
(90.59,419.931,o),
(87.678,419.931,cs),
(74.216,419.931,o),
(65.237,427.16,o),
(65.237,436.309,cs),
(65.237,437.828,o),
(65.485,439.4,o),
(66,441,cs),
(70.831,456,o),
(102.758,488,o),
(153,564,cs)
);
}
);
width = 534;
}
);
},
{
glyphname = uni05E1_quotesingle;
layers = (
{
layerId = master01;
shapes = (
{
closed = 1;
nodes = (
(195.992,59.505,o),
(224.143,184,o),
(237,229,cs),
(243,250,o),
(262,251,o),
(282,251,cs),
(283,251,o),
(283,251,o),
(284,251,cs),
(304,251,o),
(318,251,o),
(318,230,cs),
(318,229.722,o),
(317.995,229.437,o),
(317.984,229.143,c),
(340.62,242.148,o),
(366.256,251,o),
(394,251,c),
(474.576,251,o),
(503.55,206.034,o),
(503.55,158.49,cs),
(503.55,154.67,o),
(503.362,150.832,o),
(503,147,cs),
(494.014,52,o),
(398,0,o),
(319,0,cs),
(274.739,0,o),
(250.764,26.274,o),
(236.166,54.923,c),
(191.108,4.823,o),
(135.362,-17.232,o),
(84.632,-17.232,cs),
(8.225,-17.232,o),
(-56.805,32.801,o),
(-56.805,112.4,cs),
(-56.805,151.389,o),
(-41.203,197.473,o),
(-3.693,248.244,cs),
(14.071,272.29,o),
(33.003,284.031,o),
(44.742,284.031,cs),
(51.832,284.031,o),
(56.299,279.747,o),
(56.299,271.303,cs),
(56.299,262.588,o),
(51.541,249.441,o),
(40,232,cs),
(11.996,189.679,o),
(-0.983,148.77,o),
(-0.983,115.125,cs),
(-0.983,66.037,o),
(26.645,32.409,o),
(75.54,32.409,cs),
(85.78,32.409,o),
(96.953,33.883,o),
(109,37,cs)
);
},
{
closed = 1;
nodes = (
(277.783,114.966,o),
(276.55,107.455,o),
(276.55,99.88,cs),
(276.55,70.646,o),
(293.203,41,o),
(321,41,cs),
(379,41,o),
(422,97,o),
(426,147,cs),
(426.202,149.522,o),
(426.3,151.952,o),
(426.3,154.29,cs),
(426.3,192.068,o),
(400.79,204.49,o),
(378.773,206.074,cs),
(374.391,206.389,o),
(370.235,206.544,o),
(366.292,206.544,cs),
(307.687,206.544,o),
(295.865,172.343,o),
(280,122,cs)
);
},
{
closed = 1;
nodes = (
(156.45,569.219,o),
(163.571,575.06,o),
(175.72,575.06,cs),
(182.723,575.06,o),
(191.396,573.119,o),
(202,568,cs),
(215.675,561.398,o),
(220.528,552.767,o),
(220.528,545.065,cs),
(220.528,540.964,o),
(219.152,537.127,o),
(217,534,cs),
(189.476,494,o),
(128.263,427.95,o),
(97,421,cs),
(93.713,420.269,o),
(90.59,419.931,o),
(87.678,419.931,cs),
(74.216,419.931,o),
(65.237,427.16,o),
(65.237,436.309,cs),
(65.237,437.828,o),
(65.485,439.4,o),
(66,441,cs),
(70.831,456,o),
(102.758,488,o),
(153,564,cs)
);
}
);
width = 534;
}
);
},
{
glyphname = uni05E4_quoteright;
layers = (
{
layerId = master01;
shapes = (
{
closed = 1;
nodes = (
(-12,101,o),
(6.206,141.223,o),
(31,228,cs),
(37,249,o),
(56,251,o),
(76,251,cs),
(77,251,o),
(78,251,o),
(79,251,cs),
(99,251,o),
(112,251,o),
(112,230,cs),
(112,227.668,o),
(111.871,225.226,o),
(111.622,222.691,c),
(134.365,238.036,o),
(165.562,250.907,o),
(196.605,250.926,cs),
(283.252,250.926,o),
(318.01,213.623,o),
(318.01,138.225,cs),
(318.01,65.288,o),
(259.962,-40,o),
(75,-40,cs),
(-22.355,-40,o),
(-214.267,-58.605,o),
(-280,-94,cs),
(-281.648,-94.888,o),
(-283.13,-95.284,o),
(-284.44,-95.284,cs),
(-289.15,-95.284,o),
(-291.633,-90.155,o),
(-291.633,-84.309,cs),
(-291.633,-60.405,o),
(-235.533,-28.081,o),
(-150,-13,cs),
(-58,3.222,o),
(47.078,3.896,o),
(76,6,cs),
(191,14.364,o),
(237.299,76,o),
(240.75,131.8,cs),
(240.952,135.064,o),
(241.051,138.197,o),
(241.051,141.206,cs),
(241.051,193.688,o),
(210.995,208,o),
(174,208,cs),
(146.594,208,o),
(117.533,191.842,o),
(98.894,177.163,c),
(78.061,126.971,o),
(36.807,72,o),
(8,72,cs),
(-12,72,o),
(-12,77,o),
(-12,88,cs)
);
},
{
closed = 1;
nodes = (
(253.45,569.219,o),
(260.571,575.06,o),
(272.72,575.06,cs),
(279.723,575.06,o),
(288.396,573.119,o),
(299,568,cs),
(312.675,561.398,o),
(317.528,552.767,o),
(317.528,545.065,cs),
(317.528,540.964,o),
(316.152,537.127,o),
(314,534,cs),
(286.476,494,o),
(225.263,427.95,o),
(194,421,cs),
(190.713,420.269,o),
(187.59,419.931,o),
(184.678,419.931,cs),
(171.216,419.931,o),
(162.237,427.16,o),
(162.237,436.309,cs),
(162.237,437.828,o),
(162.485,439.4,o),
(163,441,cs),
(167.831,456,o),
(199.758,488,o),
(250,564,cs)
);
}
);
width = 348;
}
);
},
{
glyphname = uni05E4_uni05F3;
layers = (
{
layerId = master01;
shapes = (
{
closed = 1;
nodes = (
(-12,101,o),
(6.206,141.223,o),
(31,228,cs),
(37,249,o),
(56,251,o),
(76,251,cs),
(77,251,o),
(78,251,o),
(79,251,cs),
(99,251,o),
(112,251,o),
(112,230,cs),
(112,227.668,o),
(111.871,225.226,o),
(111.622,222.691,c),
(134.365,238.036,o),
(165.562,250.907,o),
(196.605,250.926,cs),
(283.252,250.926,o),
(318.01,213.623,o),
(318.01,138.225,cs),
(318.01,65.288,o),
(259.962,-40,o),
(75,-40,cs),
(-22.355,-40,o),
(-214.267,-58.605,o),
(-280,-94,cs),
(-281.648,-94.888,o),
(-283.13,-95.284,o),
(-284.44,-95.284,cs),
(-289.15,-95.284,o),
(-291.633,-90.155,o),
(-291.633,-84.309,cs),
(-291.633,-60.405,o),
(-235.533,-28.081,o),
(-150,-13,cs),
(-58,3.222,o),
(47.078,3.896,o),
(76,6,cs),
(191,14.364,o),
(237.299,76,o),
(240.75,131.8,cs),
(240.952,135.064,o),
(241.051,138.197,o),
(241.051,141.206,cs),
(241.051,193.688,o),
(210.995,208,o),
(174,208,cs),
(146.594,208,o),
(117.533,191.842,o),
(98.894,177.163,c),
(78.061,126.971,o),
(36.807,72,o),
(8,72,cs),
(-12,72,o),
(-12,77,o),
(-12,88,cs)
);
},
{
closed = 1;
nodes = (
(253.45,569.219,o),
(260.571,575.06,o),
(272.72,575.06,cs),
(279.723,575.06,o),
(288.396,573.119,o),
(299,568,cs),
(312.675,561.398,o),
(317.528,552.767,o),
(317.528,545.065,cs),
(317.528,540.964,o),
(316.152,537.127,o),
(314,534,cs),
(286.476,494,o),
(225.263,427.95,o),
(194,421,cs),
(190.713,420.269,o),
(187.59,419.931,o),
(184.678,419.931,cs),
(171.216,419.931,o),
(162.237,427.16,o),
(162.237,436.309,cs),
(162.237,437.828,o),
(162.485,439.4,o),
(163,441,cs),
(167.831,456,o),
(199.758,488,o),
(250,564,cs)
);
}
);
width = 348;
}
);
},
{
glyphname = uni05E4_quotesingle;
layers = (
{
layerId = master01;
shapes = (
{
closed = 1;
nodes = (
(-12,101,o),
(6.206,141.223,o),
(31,228,cs),
(37,249,o),
(56,251,o),
(76,251,cs),
(77,251,o),
(78,251,o),
(79,251,cs),
(99,251,o),
(112,251,o),
(112,230,cs),
(112,227.668,o),
(111.871,225.226,o),
(111.622,222.691,c),
(134.365,238.036,o),
(165.562,250.907,o),
(196.605,250.926,cs),
(283.252,250.926,o),
(318.01,213.623,o),
(318.01,138.225,cs),
(318.01,65.288,o),
(259.962,-40,o),
(75,-40,cs),
(-22.355,-40,o),
(-214.267,-58.605,o),
(-280,-94,cs),
(-281.648,-94.888,o),
(-283.13,-95.284,o),
(-284.44,-95.284,cs),
(-289.15,-95.284,o),
(-291.633,-90.155,o),
(-291.633,-84.309,cs),
(-291.633,-60.405,o),
(-235.533,-28.081,o),
(-150,-13,cs),
(-58,3.222,o),
(47.078,3.896,o),
(76,6,cs),
(191,14.364,o),
(237.299,76,o),
(240.75,131.8,cs),
(240.952,135.064,o),
(241.051,138.197,o),
(241.051,141.206,cs),
(241.051,193.688,o),
(210.995,208,o),
(174,208,cs),
(146.594,208,o),
(117.533,191.842,o),
(98.894,177.163,c),
(78.061,126.971,o),
(36.807,72,o),
(8,72,cs),
(-12,72,o),
(-12,77,o),
(-12,88,cs)
);
},
{
closed = 1;
nodes = (
(253.45,569.219,o),
(260.571,575.06,o),
(272.72,575.06,cs),
(279.723,575.06,o),
(288.396,573.119,o),
(299,568,cs),
(312.675,561.398,o),
(317.528,552.767,o),
(317.528,545.065,cs),
(317.528,540.964,o),
(316.152,537.127,o),
(314,534,cs),
(286.476,494,o),
(225.263,427.95,o),
(194,421,cs),
(190.713,420.269,o),
(187.59,419.931,o),
(184.678,419.931,cs),
(171.216,419.931,o),
(162.237,427.16,o),
(162.237,436.309,cs),
(162.237,437.828,o),
(162.485,439.4,o),
(163,441,cs),
(167.831,456,o),
(199.758,488,o),
(250,564,cs)
);
}
);
width = 348;
}
);
},
{
glyphname = uni05E8_uni05D1_quoteright;
layers = (
{
layerId = master01;
shapes = (
{
closed = 1;
nodes = (
(91.45,589.219,o),
(98.571,595.06,o),
(110.72,595.06,cs),
(117.723,595.06,o),
(126.396,593.119,o),
(137,588,cs),
(150.675,581.398,o),
(155.528,572.767,o),
(155.528,565.065,cs),
(155.528,560.964,o),
(154.152,557.127,o),
(152,554,cs),
(124.476,514,o),
(63.263,447.95,o),
(32,441,cs),
(28.713,440.269,o),
(25.59,439.931,o),
(22.678,439.931,cs),
(9.216,439.931,o),
(0.237,447.16,o),
(0.237,456.309,cs),
(0.237,457.828,o),
(0.485,459.4,o),
(1,461,cs),
(5.831,476,o),
(37.758,508,o),
(88,584,cs)
);
},
{
closed = 1;
nodes = (
(-29.046,0,o),
(-69.951,46.58,o),
(-69.951,67.954,cs),
(-69.951,74.318,o),
(-66.325,78.447,o),
(-59.237,78.447,cs),
(-56.874,78.447,o),
(-54.126,77.988,o),
(-51,77,cs),
(-37.881,72.854,o),
(-1.931,45.616,o),
(49.445,45.616,cs),
(52.894,45.616,o),
(56.413,45.739,o),
(60,46,cs),
(115,50,o),
(161.673,93,o),
(166,147,cs),
(166.202,149.522,o),
(166.3,151.952,o),
(166.3,154.29,cs),
(166.3,192.068,o),
(138,208,o),
(106,208,cs),
(71,208,o),
(56,193.782,o),
(40,185,cs),
(33.484,181.423,o),
(27.927,180,o),
(23.353,180,cs),
(15.994,180,o),
(11.178,183.683,o),
(9,188,cs),
(8.384,189.222,o),
(8.086,190.567,o),
(8.086,192.014,cs),
(8.086,211.881,o),
(64.224,250.853,o),
(122.227,250.926,cs),
(122.451,250.926,ls),
(178.918,250.926,o),
(243.554,224.154,o),
(243.554,159.363,cs),
(243.554,159.073,o),
(243.552,158.782,o),
(243.55,158.49,cs),
(243.516,154.67,o),
(243.362,150.832,o),
(243,147,cs),
(234.018,52,o),
(149,0,o),
(59,0,cs)
);
},
{
closed = 1;
nodes = (
(344.211,604.057,o),
(346.4,604.086,o),
(348.568,604.086,cs),
(456.154,604.086,o),
(510,534.104,o),
(510,440,cs),
(510,202,o),
(353,0,o),
(254,0,cs),
(246,0,o),
(241,4.268,o),
(241,13,cs),
(241,23,o),
(253,28.195,o),
(257,32,cs),
(283,56.733,o),
(423,164.78,o),
(423,447,cs),
(423,528,o),
(385.138,568,o),
(327,568,cs),
(247.596,568,o),
(196.348,499.985,o),
(193,423,cs),
(192.927,421.32,o),
(192.891,419.655,o),
(192.891,418.004,cs),
(192.891,359.104,o),
(239.098,319.146,o),
(310.529,319.146,cs),
(319.317,319.146,o),
(328.487,319.751,o),
(338,321,cs),
(351.445,322.765,o),
(362.1,323.532,o),
(370.369,323.532,cs),
(387.814,323.532,o),
(394.641,320.119,o),
(394.641,315.465,cs),
(394.641,310.511,o),
(386.903,304.149,o),
(376,299,cs),
(344.369,284.062,o),
(312.328,277.276,o),
(282.253,277.276,cs),
(197.28,277.276,o),
(128,331.448,o),
(128,409,cs),
(128,521.752,o),
(226,601,o),
(342,604,cs)
);
}
);
width = 502;
}
);
},
{
glyphname = uni05E8_uni05D1_uni05F3;
layers = (
{
layerId = master01;
shapes = (
{
closed = 1;
nodes = (
(91.45,589.219,o),
(98.571,595.06,o),
(110.72,595.06,cs),
(117.723,595.06,o),
(126.396,593.119,o),
(137,588,cs),
(150.675,581.398,o),
(155.528,572.767,o),
(155.528,565.065,cs),
(155.528,560.964,o),
(154.152,557.127,o),
(152,554,cs),
(124.476,514,o),
(63.263,447.95,o),
(32,441,cs),
(28.713,440.269,o),
(25.59,439.931,o),
(22.678,439.931,cs),
(9.216,439.931,o),
(0.237,447.16,o),
(0.237,456.309,cs),
(0.237,457.828,o),
(0.485,459.4,o),
(1,461,cs),
(5.831,476,o),
(37.758,508,o),
(88,584,cs)
);
},
{
closed = 1;
nodes = (
(-29.046,0,o),
(-69.951,46.58,o),
(-69.951,67.954,cs),
(-69.951,74.318,o),
(-66.325,78.447,o),
(-59.237,78.447,cs),
(-56.874,78.447,o),
(-54.126,77.988,o),
(-51,77,cs),
(-37.881,72.854,o),
(-1.931,45.616,o),
(49.445,45.616,cs),
(52.894,45.616,o),
(56.413,45.739,o),
(60,46,cs),
(115,50,o),
(161.673,93,o),
(166,147,cs),
(166.202,149.522,o),
(166.3,151.952,o),
(166.3,154.29,cs),
(166.3,192.068,o),
(138,208,o),
(106,208,cs),
(71,208,o),
(56,193.782,o),
(40,185,cs),
(33.484,181.423,o),
(27.927,180,o),
(23.353,180,cs),
(15.994,180,o),
(11.178,183.683,o),
(9,188,cs),
(8.384,189.222,o),
(8.086,190.567,o),
(8.086,192.014,cs),
(8.086,211.881,o),
(64.224,250.853,o),
(122.227,250.926,cs),
(122.451,250.926,ls),
(178.918,250.926,o),
(243.554,224.154,o),
(243.554,159.363,cs),
(243.554,159.073,o),
(243.552,158.782,o),
(243.55,158.49,cs),
(243.516,154.67,o),
(243.362,150.832,o),
(243,147,cs),
(234.018,52,o),
(149,0,o),
(59,0,cs)
);
},
{
closed = 1;
nodes = (
(344.211,604.057,o),
(346.4,604.086,o),
(348.568,604.086,cs),
(456.154,604.086,o),
(510,534.104,o),
(510,440,cs),
(510,202,o),
(353,0,o),
(254,0,cs),
(246,0,o),
(241,4.268,o),
(241,13,cs),
(241,23,o),
(253,28.195,o),
(257,32,cs),
(283,56.733,o),
(423,164.78,o),
(423,447,cs),
(423,528,o),
(385.138,568,o),
(327,568,cs),
(247.596,568,o),
(196.348,499.985,o),
(193,423,cs),
(192.927,421.32,o),
(192.891,419.655,o),
(192.891,418.004,cs),
(192.891,359.104,o),
(239.098,319.146,o),
(310.529,319.146,cs),
(319.317,319.146,o),
(328.487,319.751,o),
(338,321,cs),
(351.445,322.765,o),
(362.1,323.532,o),
(370.369,323.532,cs),
(387.814,323.532,o),
(394.641,320.119,o),
(394.641,315.465,cs),
(394.641,310.511,o),
(386.903,304.149,o),
(376,299,cs),
(344.369,284.062,o),
(312.328,277.276,o),
(282.253,277.276,cs),
(197.28,277.276,o),
(128,331.448,o),
(128,409,cs),
(128,521.752,o),
(226,601,o),
(342,604,cs)
);
}
);
width = 502;
}
);
},
{
glyphname = uni05E8_uni05D1_quotesingle;
layers = (
{
layerId = master01;
shapes = (
{
closed = 1;
nodes = (
(91.45,589.219,o),
(98.571,595.06,o),
(110.72,595.06,cs),
(117.723,595.06,o),
(126.396,593.119,o),
(137,588,cs),
(150.675,581.398,o),
(155.528,572.767,o),
(155.528,565.065,cs),
(155.528,560.964,o),
(154.152,557.127,o),
(152,554,cs),
(124.476,514,o),
(63.263,447.95,o),
(32,441,cs),
(28.713,440.269,o),
(25.59,439.931,o),
(22.678,439.931,cs),
(9.216,439.931,o),
(0.237,447.16,o),
(0.237,456.309,cs),
(0.237,457.828,o),
(0.485,459.4,o),
(1,461,cs),
(5.831,476,o),
(37.758,508,o),
(88,584,cs)
);
},
{
closed = 1;
nodes = (
(-29.046,0,o),
(-69.951,46.58,o),
(-69.951,67.954,cs),
(-69.951,74.318,o),
(-66.325,78.447,o),
(-59.237,78.447,cs),
(-56.874,78.447,o),
(-54.126,77.988,o),
(-51,77,cs),
(-37.881,72.854,o),
(-1.931,45.616,o),
(49.445,45.616,cs),
(52.894,45.616,o),
(56.413,45.739,o),
(60,46,cs),
(115,50,o),
(161.673,93,o),
(166,147,cs),
(166.202,149.522,o),
(166.3,151.952,o),
(166.3,154.29,cs),
(166.3,192.068,o),
(138,208,o),
(106,208,cs),
(71,208,o),
(56,193.782,o),
(40,185,cs),
(33.484,181.423,o),
(27.927,180,o),
(23.353,180,cs),
(15.994,180,o),
(11.178,183.683,o),
(9,188,cs),
(8.384,189.222,o),
(8.086,190.567,o),
(8.086,192.014,cs),
(8.086,211.881,o),
(64.224,250.853,o),
(122.227,250.926,cs),
(122.451,250.926,ls),
(178.918,250.926,o),
(243.554,224.154,o),
(243.554,159.363,cs),
(243.554,159.073,o),
(243.552,158.782,o),
(243.55,158.49,cs),
(243.516,154.67,o),
(243.362,150.832,o),
(243,147,cs),
(234.018,52,o),
(149,0,o),
(59,0,cs)
);
},
{
closed = 1;
nodes = (
(344.211,604.057,o),
(346.4,604.086,o),
(348.568,604.086,cs),
(456.154,604.086,o),
(510,534.104,o),
(510,440,cs),
(510,202,o),
(353,0,o),
(254,0,cs),
(246,0,o),
(241,4.268,o),
(241,13,cs),
(241,23,o),
(253,28.195,o),
(257,32,cs),
(283,56.733,o),
(423,164.78,o),
(423,447,cs),
(423,528,o),
(385.138,568,o),
(327,568,cs),
(247.596,568,o),
(196.348,499.985,o),
(193,423,cs),
(192.927,421.32,o),
(192.891,419.655,o),
(192.891,418.004,cs),
(192.891,359.104,o),
(239.098,319.146,o),
(310.529,319.146,cs),
(319.317,319.146,o),
(328.487,319.751,o),
(338,321,cs),
(351.445,322.765,o),
(362.1,323.532,o),
(370.369,323.532,cs),
(387.814,323.532,o),
(394.641,320.119,o),
(394.641,315.465,cs),
(394.641,310.511,o),
(386.903,304.149,o),
(376,299,cs),
(344.369,284.062,o),
(312.328,277.276,o),
(282.253,277.276,cs),
(197.28,277.276,o),
(128,331.448,o),
(128,409,cs),
(128,521.752,o),
(226,601,o),
(342,604,cs)
);
}
);
width = 502;
}
);
},
{
glyphname = uni05E8_uni05D9;
layers = (
{
layerId = master01;
shapes = (
{
closed = 1;
nodes = (
(328,528.024,o),
(290.138,568,o),
(232,568,cs),
(152.596,568,o),
(101.348,499.985,o),
(98,423,cs),
(97.927,421.32,o),
(97.891,419.655,o),
(97.891,418.004,cs),
(97.891,359.104,o),
(144.098,319.146,o),
(215.529,319.146,cs),
(224.317,319.146,o),
(233.487,319.751,o),
(243,321,cs),
(256.445,322.765,o),
(267.1,323.532,o),
(275.369,323.532,cs),
(292.814,323.532,o),
(299.641,320.119,o),
(299.641,315.465,cs),
(299.641,310.511,o),
(291.903,304.149,o),
(281,299,cs),
(249.369,284.062,o),
(217.328,277.276,o),
(187.253,277.276,cs),
(102.28,277.276,o),
(33,331.448,o),
(33,409,cs),
(33,521.752,o),
(131,601,o),
(247,604,cs),
(249.211,604.057,o),
(251.4,604.086,o),
(253.568,604.086,cs),
(361.154,604.086,o),
(415,534.104,o),
(415,440,cs),
(415,201.973,o),
(268,0,o),
(127,0,cs),
(85.095,0,o),
(59.58,23.552,o),
(44.594,50.373,c),
(26.764,30.036,o),
(7.131,15,o),
(-7,15,cs),
(-27,15,o),
(-27,20,o),
(-27,31,cs),
(-27,44,o),
(-16.794,48.223,o),
(8,135,cs),
(14,156,o),
(33,158,o),
(53,158,cs),
(54,158,o),
(55,158,o),
(56,158,cs),
(76,158,o),
(89,158,o),
(89,137,cs),
(89,130.173,o),
(87.165,122.123,o),
(83.957,113.465,cs),
(83.345,109.763,o),
(83.047,105.958,o),
(83.047,102.124,cs),
(83.047,72.468,o),
(100.867,41,o),
(129,41,cs),
(231,41,o),
(328,233.54,o),
(328,447,cs)
);
}
);
width = 407;
}
);
},
{
glyphname = uni05E9_quoteright;
layers = (
{
layerId = master01;
shapes = (
{
closed = 1;
nodes = (
(213,48.8,o),
(290.914,74,o),
(292,162,cs),
(292.395,193.998,o),
(327,203,o),
(363,203,cs),
(373,203,o),
(383,197,o),
(383,184,cs),
(383,76,o),
(284,0,o),
(156,0,cs),
(82.815,0,o),
(52.8,22.047,o),
(41.52,38.617,c),
(16.596,15.331,o),
(-11.064,0.018,o),
(-38.802,0.018,cs),
(-56.104,0.018,o),
(-63.553,5.758,o),
(-63.553,15.887,cs),
(-63.553,25.504,o),
(-54.81,36.253,o),
(-44.802,38.018,cs),
(-38.694,39.774,o),
(-32.768,42.626,o),
(-27.034,46.442,cs),
(2.244,68.783,o),
(28.603,129.528,o),
(47.206,184.647,c),
(42.123,190.022,o),
(30.637,194.352,o),
(30.637,219.726,cs),
(30.637,222.265,o),
(30.752,225.016,o),
(31,228,cs),
(32.926,251.152,o),
(50,284,o),
(96,284,cs),
(114.391,284,o),
(142.93,282.309,o),
(147.402,249.378,c),
(149.313,249.239,o),
(151.314,249.162,o),
(153.408,249.162,cs),
(169.25,249.162,o),
(190.403,253.57,o),
(218,269,cs),
(233.966,277.927,o),
(245.791,281.677,o),
(253.836,281.677,cs),
(262.887,281.677,o),
(267.155,276.932,o),
(267.155,269.472,cs),
(267.155,242.929,o),
(213.113,182.018,o),
(128.207,178.252,c),
(116.39,142.02,o),
(94.7,100.766,o),
(67.696,67.079,c),
(80.477,56.823,o),
(100.551,43.067,o),
(141.625,43.067,cs),
(147.622,43.067,o),
(154.066,43.36,o),
(161,44,cs)
);
},
{
closed = 1;
nodes = (
(229.45,569.219,o),
(236.571,575.06,o),
(248.72,575.06,cs),
(255.723,575.06,o),
(264.396,573.119,o),
(275,568,cs),
(288.675,561.398,o),
(293.528,552.767,o),
(293.528,545.065,cs),
(293.528,540.964,o),
(292.152,537.127,o),
(290,534,cs),
(262.476,494,o),
(201.263,427.95,o),
(170,421,cs),
(166.713,420.269,o),
(163.59,419.931,o),
(160.678,419.931,cs),
(147.216,419.931,o),
(138.237,427.16,o),
(138.237,436.309,cs),
(138.237,437.828,o),
(138.485,439.4,o),
(139,441,cs),
(143.831,456,o),
(175.758,488,o),
(226,564,cs)
);
}
);
width = 413;
}
);
},
{
glyphname = uni05E9_uni05F3;
layers = (
{
layerId = master01;
shapes = (
{
closed = 1;
nodes = (
(213,48.8,o),
(290.914,74,o),
(292,162,cs),
(292.395,193.998,o),
(327,203,o),
(363,203,cs),
(373,203,o),
(383,197,o),
(383,184,cs),
(383,76,o),
(284,0,o),
(156,0,cs),
(82.815,0,o),
(52.8,22.047,o),
(41.52,38.617,c),
(16.596,15.331,o),
(-11.064,0.018,o),
(-38.802,0.018,cs),
(-56.104,0.018,o),
(-63.553,5.758,o),
(-63.553,15.887,cs),
(-63.553,25.504,o),
(-54.81,36.253,o),
(-44.802,38.018,cs),
(-38.694,39.774,o),
(-32.768,42.626,o),
(-27.034,46.442,cs),
(2.244,68.783,o),
(28.603,129.528,o),
(47.206,184.647,c),
(42.123,190.022,o),
(30.637,194.352,o),
(30.637,219.726,cs),
(30.637,222.265,o),
(30.752,225.016,o),
(31,228,cs),
(32.926,251.152,o),
(50,284,o),
(96,284,cs),
(114.391,284,o),
(142.93,282.309,o),
(147.402,249.378,c),
(149.313,249.239,o),
(151.314,249.162,o),
(153.408,249.162,cs),
(169.25,249.162,o),
(190.403,253.57,o),
(218,269,cs),
(233.966,277.927,o),
(245.791,281.677,o),
(253.836,281.677,cs),
(262.887,281.677,o),
(267.155,276.932,o),
(267.155,269.472,cs),
(267.155,242.929,o),
(213.113,182.018,o),
(128.207,178.252,c),
(116.39,142.02,o),
(94.7,100.766,o),
(67.696,67.079,c),
(80.477,56.823,o),
(100.551,43.067,o),
(141.625,43.067,cs),
(147.622,43.067,o),
(154.066,43.36,o),
(161,44,cs)
);
},
{
closed = 1;
nodes = (
(229.45,569.219,o),
(236.571,575.06,o),
(248.72,575.06,cs),
(255.723,575.06,o),
(264.396,573.119,o),
(275,568,cs),
(288.675,561.398,o),
(293.528,552.767,o),
(293.528,545.065,cs),
(293.528,540.964,o),
(292.152,537.127,o),
(290,534,cs),
(262.476,494,o),
(201.263,427.95,o),
(170,421,cs),
(166.713,420.269,o),
(163.59,419.931,o),
(160.678,419.931,cs),
(147.216,419.931,o),
(138.237,427.16,o),
(138.237,436.309,cs),
(138.237,437.828,o),
(138.485,439.4,o),
(139,441,cs),
(143.831,456,o),
(175.758,488,o),
(226,564,cs)
);
}
);
width = 413;
}
);
},
{
glyphname = uni05E9_quotesingle;
layers = (
{
layerId = master01;
shapes = (
{
closed = 1;
nodes = (
(213,48.8,o),
(290.914,74,o),
(292,162,cs),
(292.395,193.998,o),
(327,203,o),
(363,203,cs),
(373,203,o),
(383,197,o),
(383,184,cs),
(383,76,o),
(284,0,o),
(156,0,cs),
(82.815,0,o),
(52.8,22.047,o),
(41.52,38.617,c),
(16.596,15.331,o),
(-11.064,0.018,o),
(-38.802,0.018,cs),
(-56.104,0.018,o),
(-63.553,5.758,o),
(-63.553,15.887,cs),
(-63.553,25.504,o),
(-54.81,36.253,o),
(-44.802,38.018,cs),
(-38.694,39.774,o),
(-32.768,42.626,o),
(-27.034,46.442,cs),
(2.244,68.783,o),
(28.603,129.528,o),
(47.206,184.647,c),
(42.123,190.022,o),
(30.637,194.352,o),
(30.637,219.726,cs),
(30.637,222.265,o),
(30.752,225.016,o),
(31,228,cs),
(32.926,251.152,o),
(50,284,o),
(96,284,cs),
(114.391,284,o),
(142.93,282.309,o),
(147.402,249.378,c),
(149.313,249.239,o),
(151.314,249.162,o),
(153.408,249.162,cs),
(169.25,249.162,o),
(190.403,253.57,o),
(218,269,cs),
(233.966,277.927,o),
(245.791,281.677,o),
(253.836,281.677,cs),
(262.887,281.677,o),
(267.155,276.932,o),
(267.155,269.472,cs),
(267.155,242.929,o),
(213.113,182.018,o),
(128.207,178.252,c),
(116.39,142.02,o),
(94.7,100.766,o),
(67.696,67.079,c),
(80.477,56.823,o),
(100.551,43.067,o),
(141.625,43.067,cs),
(147.622,43.067,o),
(154.066,43.36,o),
(161,44,cs)
);
},
{
closed = 1;
nodes = (
(229.45,569.219,o),
(236.571,575.06,o),
(248.72,575.06,cs),
(255.723,575.06,o),
(264.396,573.119,o),
(275,568,cs),
(288.675,561.398,o),
(293.528,552.767,o),
(293.528,545.065,cs),
(293.528,540.964,o),
(292.152,537.127,o),
(290,534,cs),
(262.476,494,o),
(201.263,427.95,o),
(170,421,cs),
(166.713,420.269,o),
(163.59,419.931,o),
(160.678,419.931,cs),
(147.216,419.931,o),
(138.237,427.16,o),
(138.237,436.309,cs),
(138.237,437.828,o),
(138.485,439.4,o),
(139,441,cs),
(143.831,456,o),
(175.758,488,o),
(226,564,cs)
);
}
);
width = 413;
}
);
},
{
glyphname = uniFB4F;
layers = (
{
layerId = master01;
shapes = (
{
closed = 1;
nodes = (
(107.124,130.788,o),
(-9.561,18.55,o),
(-39.233,7.748,cs),
(-41.668,6.862,o),
(-44.229,6.313,o),
(-46.606,6.313,cs),
(-51.911,6.313,o),
(-56.297,9.044,o),
(-56.297,16.851,cs),
(-56.297,23.046,o),
(-32.783,47.128,o),
(12,105,cs),
(63.444,171.48,o),
(133.337,262.289,o),
(187.226,349.119,c),
(179.521,401.073,o),
(173.524,452.437,o),
(173.524,496.107,cs),
(173.524,574.397,o),
(185.217,624.404,o),
(251.762,628.404,cs),
(254.096,628.545,o),
(256.423,628.618,o),
(258.737,628.618,cs),
(296.725,628.618,o),
(331.145,608.697,o),
(331.145,535.332,cs),
(331.145,475.409,o),
(295.488,398.633,o),
(246.093,322.282,c),
(247.368,313.55,o),
(248.672,304.779,o),
(250,296,cs),
(256.838,250.788,o),
(271.483,180.077,o),
(271.483,119.082,cs),
(271.483,56.174,o),
(255.904,3.601,o),
(200.111,-0.002,cs),
(197.399,-0.177,o),
(194.656,-0.268,o),
(191.892,-0.268,cs),
(163.088,-0.268,o),
(132,9.588,o),
(109.88,36.551,cs),
(105.532,41.85,o),
(103.352,47.056,o),
(103.352,52.222,cs),
(103.352,59.269,o),
(107.411,66.241,o),
(115.568,73.274,cs),
(125.196,81.576,o),
(135.284,86.533,o),
(144.565,86.533,cs),
(150.967,86.533,o),
(156.984,84.175,o),
(162.203,78.929,cs),
(173.889,67.183,o),
(186.268,60.758,o),
(196.575,60.758,cs),
(209.062,60.758,o),
(218.508,70.185,o),
(220,91,cs),
(220.301,95.194,o),
(220.443,99.704,o),
(220.443,104.504,cs),
(220.443,142.175,o),
(211.662,197.677,o),
(201.698,258.424,c)
);
},
{
closed = 1;
nodes = (
(254.445,473.65,o),
(268.703,514.97,o),
(268.845,547.513,cs),
(268.847,547.848,o),
(268.848,548.181,o),
(268.848,548.512,cs),
(268.848,581.603,o),
(261.547,594.449,o),
(249.215,594.449,cs),
(247.868,594.449,o),
(246.463,594.297,o),
(245,594,cs),
(226.908,590.334,o),
(222.39,576.423,o),
(222.39,548.714,cs),
(222.39,547.323,o),
(222.401,545.897,o),
(222.423,544.437,cs),
(222.842,516.135,o),
(226.437,475.268,o),
(231.953,428.389,c)
);
}
);
width = 317;
}
);
unicode = 64335;
},
{
color = 5;
glyphname = zero;
lastChange = "2022-02-25 03:47:22 +0000";
layers = (
{
layerId = master01;
shapes = (
{
closed = 1;
nodes = (
(213.27,488.948,o),
(215.133,488.811,o),
(216.977,488.649,cs),
(321.189,479.532,o),
(359.667,398.29,o),
(359.667,304.471,cs),
(359.667,293.813,o),
(359.17,282.992,o),
(358.217,272.097,cs),
(347.011,144.017,o),
(268.144,0.057,o),
(146.639,0.057,cs),
(135.361,0.057,o),
(123.717,1.297,o),
(111.725,3.905,cs),
(14.475,25.052,o),
(-11.23,97.944,o),
(-11.23,181.345,cs),
(-11.23,195.735,o),
(-10.465,210.438,o),
(-9.17,225.242,cs),
(2.075,353.765,o),
(71.136,489.422,o),
(199.84,489.422,cs),
(203.637,489.422,o),
(207.487,489.304,o),
(211.389,489.064,cs)
);
},
{
closed = 1;
nodes = (
(131.796,45.996,o),
(135.029,45.78,o),
(138.214,45.78,cs),
(217.095,45.78,o),
(266.997,178.825,o),
(276.745,290.244,cs),
(278.091,305.623,o),
(278.858,320.413,o),
(278.858,334.376,cs),
(278.858,395.453,o),
(264.181,440.714,o),
(219.035,450.25,cs),
(214.389,451.231,o),
(209.823,451.705,o),
(205.34,451.705,cs),
(128.739,451.705,o),
(76.488,313.308,o),
(66.85,203.143,cs),
(65.517,187.914,o),
(64.69,172.956,o),
(64.69,158.683,cs),
(64.69,100.18,o),
(78.583,53.202,o),
(128.518,46.44,cs)
);
}
);
width = 408;
}
);
unicode = 48;
},
{
color = 5;
glyphname = one;
lastChange = "2022-02-25 03:47:22 +0000";
layers = (
{
layerId = master01;
shapes = (
{
closed = 1;
nodes = (
(250.45,517.844,o),
(254.923,525.287,o),
(263.695,528.645,cs),
(265.175,529.211,o),
(266.742,529.553,o),
(268.33,529.692,cs),
(268.882,529.741,o),
(269.436,529.764,o),
(269.99,529.764,cs),
(277.631,529.764,o),
(285.275,525.261,o),
(285.871,518.441,cs),
(285.896,518.159,o),
(285.908,517.872,o),
(285.908,517.582,cs),
(285.908,516.278,o),
(285.654,514.897,o),
(285.101,513.452,cs),
(261.211,451.133,o),
(171.063,232.014,o),
(101.496,7.525,cs),
(96.593,-8.3,o),
(84.744,-12.775,o),
(70.579,-14.015,cs),
(66.07,-14.409,o),
(61.325,-14.476,o),
(56.497,-14.476,cs),
(55.997,-14.475,o),
(55.747,-14.475,o),
(55.497,-14.475,cs),
(55.247,-14.475,o),
(54.997,-14.475,o),
(54.497,-14.476,cs),
(36.453,-14.476,o),
(21.798,-14.41,o),
(20.452,0.966,cs),
(20.385,1.73,o),
(20.351,2.533,o),
(20.351,3.375,cs),
(20.351,4.369,o),
(20.399,5.418,o),
(20.496,6.525,cs),
(24.115,47.745,o),
(86.929,224.325,o),
(147.238,344.49,c),
(99.427,303.679,o),
(53.242,272.865,o),
(33.571,267.595,cs),
(31.396,267.011,o),
(29.366,266.65,o),
(27.481,266.485,cs),
(26.667,266.414,o),
(25.88,266.38,o),
(25.121,266.38,cs),
(15.098,266.38,o),
(9.812,272.395,o),
(9.181,279.623,cs),
(9.138,280.115,o),
(9.116,280.613,o),
(9.116,281.115,cs),
(9.116,284.012,o),
(9.834,287.045,o),
(11.266,289.923,cs),
(19.875,307.244,o),
(133.058,346.473,o),
(240.26,501.274,cs)
);
}
);
width = 285;
}
);
unicode = 49;
},
{
color = 5;
glyphname = two;
lastChange = "2022-02-25 03:47:22 +0000";
layers = (
{
layerId = master01;
shapes = (
{
closed = 1;
nodes = (
(259.192,492.799,o),
(266.099,493.185,o),
(272.716,493.185,cs),
(342.461,493.185,o),
(380,450.289,o),
(380,396,cs),
(380,276,o),
(227.878,145,o),
(171,85,c),
(215.866,55.505,o),
(253.311,47.26,o),
(283.407,47.26,cs),
(321.567,47.26,o),
(347.912,60.515,o),
(362.587,60.515,cs),
(364.199,60.515,o),
(365.67,60.355,o),
(367,60,cs),
(373.286,58.324,o),
(375.865,54.036,o),
(375.865,48.875,cs),
(375.865,41.719,o),
(370.908,32.885,o),
(364,27,cs),
(337.472,4.402,o),
(310.86,-3.375,o),
(284.091,-3.375,cs),
(232.154,-3.375,o),
(179.631,25.902,o),
(126,33,c),
(100.106,9.391,o),
(82.333,0.6,o),
(64.287,0.6,cs),
(58.637,0.6,o),
(52.961,1.462,o),
(47,3,cs),
(21.967,9.461,o),
(12.461,35.825,o),
(12.461,58.096,cs),
(12.461,63.405,o),
(13.001,68.481,o),
(14,73,cs),
(19.996,100.13,o),
(43.646,118.053,o),
(77.62,118.053,cs),
(88.729,118.053,o),
(100.941,116.137,o),
(114,112,c),
(159.6,153,o),
(276.488,263.468,o),
(293,374,cs),
(293.605,378.052,o),
(293.896,381.88,o),
(293.896,385.488,cs),
(293.896,417.781,o),
(270.643,432.45,o),
(241.9,432.45,cs),
(238.984,432.45,o),
(236.011,432.299,o),
(233,432,cs),
(202,428.922,o),
(172.535,415.905,o),
(146.457,369.225,cs),
(140.869,359.223,o),
(138.528,350.32,o),
(138.528,342.748,cs),
(138.528,324.909,o),
(151.529,314.465,o),
(165.704,314.465,cs),
(171.546,314.465,o),
(177.587,316.239,o),
(183,320,cs),
(194.892,328.264,o),
(204.912,331.582,o),
(212.679,331.582,cs),
(224.528,331.582,o),
(231.131,323.858,o),
(231.131,314.191,cs),
(231.131,306.099,o),
(226.505,296.647,o),
(216.457,289.225,cs),
(198.561,276.005,o),
(172.267,268.315,o),
(147.287,268.315,cs),
(110.452,268.315,o),
(76.471,285.034,o),
(76.471,325.397,cs),
(76.471,330.252,o),
(76.963,335.449,o),
(78,341,cs),
(92.391,418,o),
(172,483.111,o),
(252,492,cs)
);
}
);
width = 412;
}
);
unicode = 50;
},
{
color = 5;
glyphname = three;
lastChange = "2022-02-25 03:47:22 +0000";
layers = (
{
layerId = master01;
shapes = (
{
closed = 1;
nodes = (
(176.575,264.772,o),
(175.505,264.844,o),
(174.744,265.172,cs),
(166.657,263.669,o),
(158.395,262.297,o),
(150,261,cs),
(147.339,260.589,o),
(144.899,260.399,o),
(142.675,260.399,cs),
(130.277,260.399,o),
(124.575,266.302,o),
(124.575,272.722,cs),
(124.575,279,o),
(130.027,285.772,o),
(140,288,cs),
(193.818,300.025,o),
(240.673,338,o),
(245,392,cs),
(245.202,394.522,o),
(245.3,396.952,o),
(245.3,399.29,cs),
(245.3,433.727,o),
(224.278,456.658,o),
(196.321,456.658,cs),
(193.608,456.658,o),
(190.83,456.442,o),
(188,456,cs),
(154,450.688,o),
(170,409,o),
(116,400,cs),
(113.493,399.582,o),
(111.088,399.38,o),
(108.793,399.38,cs),
(94.735,399.38,o),
(84.816,406.965,o),
(81,419,cs),
(80.231,421.424,o),
(79.841,424.047,o),
(79.841,426.809,cs),
(79.841,453.748,o),
(116.951,493.872,o),
(202.469,493.926,cs),
(258.925,493.926,o),
(322.554,469.133,o),
(322.554,404.377,cs),
(322.554,400.188,o),
(322.391,396.138,o),
(322,392,cs),
(317.623,345.703,o),
(297.787,316.682,o),
(268.305,297.503,c),
(311.392,277.703,o),
(333.32,236.596,o),
(333.32,183.32,cs),
(333.32,118.887,o),
(298.986,44.796,o),
(191,8.758,cs),
(168.363,1.203,o),
(142.067,-3.852,o),
(112,-6,cs),
(104.218,-6.556,o),
(96.859,-6.833,o),
(89.894,-6.833,cs),
(43.16,-6.833,o),
(14.165,5.648,o),
(-5.919,30.129,cs),
(-11.06,36.396,o),
(-14.115,45.321,o),
(-14.115,54.203,cs),
(-14.115,63.077,o),
(-11.066,71.908,o),
(-4,78,cs),
(4.26,85.121,o),
(15.271,88.582,o),
(25.783,88.582,cs),
(35.979,88.582,o),
(45.705,85.327,o),
(52,79,cs),
(66.356,64.57,o),
(65.122,31.844,o),
(98.427,31.844,cs),
(99.743,31.844,o),
(101.112,31.895,o),
(102.539,32,cs),
(123.943,33.58,o),
(135,34.262,o),
(159,44.195,cs),
(221.394,70.02,o),
(251.915,123.296,o),
(256.062,177.376,cs),
(256.319,180.724,o),
(256.444,183.98,o),
(256.444,187.143,cs),
(256.444,238.836,o),
(223.146,265.842,o),
(188.568,265.842,cs),
(185.047,265.842,o),
(181.513,265.562,o),
(178,265,cs)
);
}
);
width = 405;
}
);
unicode = 51;
},
{
color = 5;
glyphname = four;
lastChange = "2022-02-25 03:47:22 +0000";
layers = (
{
layerId = master01;
shapes = (
{
closed = 1;
nodes = (
(309.979,63.816,o),
(313.041,57.283,o),
(313.041,50.566,cs),
(313.041,43.058,o),
(309.217,35.32,o),
(305.553,28.972,cs),
(296.749,13.719,o),
(287.817,0.226,o),
(271.203,0.226,cs),
(268.949,0.226,o),
(266.555,0.474,o),
(264,1,cs),
(250.087,3.862,o),
(235.402,6.459,o),
(220.333,8.799,c),
(180.232,-71.715,o),
(137.309,-143,o),
(115,-143,cs),
(96,-143,o),
(96,-137,o),
(96,-126,cs),
(96,-119.477,o),
(122.29,-56.815,o),
(152.349,17.525,c),
(96.111,23.416,o),
(42.339,26.098,o),
(9.951,26.098,cs),
(6.363,26.098,o),
(3.038,26.065,o),
(0,26,cs),
(-1.015,25.978,o),
(-2.014,25.968,o),
(-2.999,25.968,cs),
(-42.503,25.968,o),
(-58.047,43.271,o),
(-58.047,61.967,cs),
(-58.047,74.498,o),
(-51.064,87.655,o),
(-39.634,96.648,cs),
(106,211.226,o),
(297,485.764,o),
(316,492,cs),
(319.561,493.169,o),
(322.59,493.733,o),
(325.117,493.733,cs),
(332,493.733,o),
(335.15,489.545,o),
(335.15,481.979,cs),
(335.15,422.137,o),
(138.046,151,o),
(32,70,c),
(76.016,70.54,o),
(128.369,73.497,o),
(175.441,75.261,c),
(198.061,132.612,o),
(219.635,190.221,o),
(231,230,cs),
(237,251,o),
(256,252,o),
(276,252,cs),
(277,252,o),
(277,252,o),
(278,252,cs),
(298,252,o),
(312,252,o),
(312,231,cs),
(312,217.98,o),
(286.123,150.488,o),
(252.43,76.341,c),
(275.654,75.672,o),
(293.104,73.559,o),
(301,69,cs)
);
}
);
width = 342;
}
);
unicode = 52;
},
{
color = 5;
glyphname = five;
lastChange = "2022-02-25 03:47:22 +0000";
layers = (
{
layerId = master01;
shapes = (
{
closed = 1;
nodes = (
(66.356,64.57,o),
(65.122,31.844,o),
(98.427,31.844,cs),
(99.743,31.844,o),
(101.112,31.895,o),
(102.539,32,cs),
(123.943,33.58,o),
(135,34.262,o),
(159,44.195,cs),
(221.394,70.02,o),
(251.915,130.296,o),
(256.062,184.376,cs),
(256.282,187.234,o),
(256.388,190.031,o),
(256.388,192.765,cs),
(256.388,247.582,o),
(213.569,277.576,o),
(176.312,277.576,cs),
(149.069,277.576,o),
(120.19,261.609,o),
(101.539,247,cs),
(98.503,244.621,o),
(93.934,241.99,o),
(89.967,241.99,cs),
(89.824,241.99,o),
(89.681,241.992,o),
(89.539,242,cs),
(73.523,242.913,o),
(70.465,247.996,o),
(70.465,256.486,cs),
(70.465,257.293,o),
(70.492,258.132,o),
(70.539,259,cs),
(71.239,271.981,o),
(121.539,382,o),
(145.539,470,cs),
(151.539,491,o),
(170.539,492,o),
(190.539,492,cs),
(191.539,492,o),
(191.539,492,o),
(192.539,492,cs),
(253.794,492,o),
(288.125,472.685,o),
(325.01,472.685,cs),
(336.899,472.685,o),
(349.054,474.692,o),
(362.461,480,cs),
(373.468,484.357,o),
(382.261,486.17,o),
(388.95,486.17,cs),
(400.055,486.17,o),
(405.359,481.173,o),
(405.359,474.528,cs),
(405.359,464.087,o),
(392.262,449.578,o),
(368,444,cs),
(343.242,438.309,o),
(323.378,436.368,o),
(306.549,436.368,cs),
(270.496,436.368,o),
(248.377,445.274,o),
(221.922,445.274,cs),
(219.508,445.274,o),
(217.058,445.199,o),
(214.557,445.037,c),
(193.769,400.17,o),
(161.615,330.17,o),
(150.241,311.016,c),
(165.549,316.782,o),
(182.109,320.481,o),
(198.539,320.502,cs),
(198.8,320.502,ls),
(285.784,320.502,o),
(333.32,266.279,o),
(333.32,190.213,cs),
(333.32,189.669,o),
(333.317,189.123,o),
(333.312,188.576,cs),
(332.751,125.624,o),
(298.462,44.621,o),
(191,8.758,cs),
(168.363,1.203,o),
(142.067,-3.852,o),
(112,-6,cs),
(104.218,-6.556,o),
(96.859,-6.833,o),
(89.894,-6.833,cs),
(43.16,-6.833,o),
(14.165,5.648,o),
(-5.919,30.129,cs),
(-11.06,36.396,o),
(-14.115,45.321,o),
(-14.115,54.203,cs),
(-14.115,63.077,o),
(-11.066,71.908,o),
(-4,78,cs),
(4.26,85.121,o),
(15.271,88.582,o),
(25.783,88.582,cs),
(35.979,88.582,o),
(45.705,85.327,o),
(52,79,cs)
);
}
);
width = 405;
}
);
unicode = 53;
},
{
color = 5;
glyphname = six;
lastChange = "2022-02-25 03:47:22 +0000";
layers = (
{
layerId = master01;
shapes = (
{
closed = 1;
nodes = (
(32.001,26.568,o),
(0.158,108.717,o),
(0.158,189.138,cs),
(0.158,198.426,o),
(0.582,207.692,o),
(1.383,216.841,cs),
(2.273,227.028,o),
(3.631,237.071,o),
(5.386,246.84,cs),
(45.414,469.642,o),
(204.913,576.796,o),
(305.446,576.796,cs),
(309.378,576.796,o),
(313.219,576.632,o),
(316.96,576.305,cs),
(320.379,576.005,o),
(323.714,575.569,o),
(326.957,574.998,cs),
(333.762,573.798,o),
(337.809,569.85,o),
(337.809,563.255,cs),
(337.809,562.763,o),
(337.787,562.257,o),
(337.741,561.735,cs),
(337.689,561.154,o),
(337.61,560.555,o),
(337.502,559.938,cs),
(335.766,550.09,o),
(323.321,546.592,o),
(318.445,544.005,cs),
(260,513,o),
(89.78,475.628,o),
(73.733,189.311,cs),
(73.428,183.855,o),
(73.273,178.472,o),
(73.273,173.175,cs),
(73.273,107.368,o),
(97.081,54.79,o),
(149.955,40.622,cs),
(155.827,39.049,o),
(161.509,38.046,o),
(167,37.565,cs),
(169.575,37.34,o),
(172.107,37.23,o),
(174.597,37.23,cs),
(231.538,37.23,o),
(266.395,94.86,o),
(277.077,152.748,cs),
(278.612,161.072,o),
(279.858,169.845,o),
(280.636,178.731,cs),
(281.203,185.219,o),
(281.522,191.767,o),
(281.522,198.246,cs),
(281.522,238.532,o),
(269.217,276.134,o),
(228.037,279.737,cs),
(225.906,279.924,o),
(223.698,280.019,o),
(221.411,280.019,cs),
(210.348,280.019,o),
(197.423,277.789,o),
(182.376,272.838,cs),
(175.267,270.498,o),
(169.183,269.479,o),
(164.051,269.479,cs),
(162.973,269.479,o),
(161.937,269.524,o),
(160.942,269.611,cs),
(147.455,270.791,o),
(141.565,279.719,o),
(141.565,289.416,cs),
(141.565,290.126,o),
(141.597,290.841,o),
(141.659,291.558,cs),
(142.556,301.797,o),
(149.781,312.317,o),
(161.377,315.094,cs),
(182.425,320.133,o),
(201.361,322.444,o),
(218.331,322.444,cs),
(223.541,322.444,o),
(228.566,322.226,o),
(233.409,321.803,cs),
(313.911,314.759,o),
(344.41,250.853,o),
(344.41,185.299,cs),
(344.41,178.958,o),
(344.124,172.602,o),
(343.571,166.28,cs),
(343.418,164.527,o),
(343.244,162.776,o),
(343.05,161.03,cs),
(333.108,71.605,o),
(263.076,-1.68,o),
(170.945,-1.68,cs),
(165.86,-1.68,o),
(160.707,-1.457,o),
(155.494,-1,cs),
(146.377,-0.203,o),
(137.074,1.307,o),
(127.618,3.58,cs)
);
}
);
width = 385;
}
);
unicode = 54;
},
{
color = 5;
glyphname = seven;
lastChange = "2022-02-25 03:47:22 +0000";
layers = (
{
layerId = master01;
shapes = (
{
closed = 1;
nodes = (
(151.23,462.472,o),
(197.041,451.178,o),
(235.829,451.178,cs),
(262.61,451.178,o),
(286.044,456.563,o),
(298.031,464.718,cs),
(304.061,470.587,o),
(309.111,474.444,o),
(313,476,cs),
(314.89,476.756,o),
(317.169,477.121,o),
(319.576,477.121,cs),
(328.158,477.121,o),
(338.365,472.48,o),
(338.365,464.368,cs),
(338.365,462.719,o),
(337.943,460.926,o),
(337,459,cs),
(287.057,357.003,o),
(242.736,276.698,o),
(201.789,201.224,c),
(225.122,194.588,o),
(241.302,193.987,o),
(246.644,188.229,cs),
(249.31,185.354,o),
(250.59,182.006,o),
(250.59,178.571,cs),
(250.59,169.74,o),
(242.125,160.343,o),
(227,157,cs),
(223.387,156.201,o),
(218.973,155.821,o),
(213.936,155.821,cs),
(204.298,155.821,o),
(192.376,157.215,o),
(179.403,159.741,c),
(132.282,71.766,o),
(89.31,-13.806,o),
(46.746,-125.005,cs),
(40.86,-140.383,o),
(28.604,-143.792,o),
(14.39,-143.792,cs),
(9.751,-143.792,o),
(4.903,-143.429,o),
(0,-143,cs),
(-0.996,-142.912,o),
(-0.996,-142.912,o),
(-1.992,-142.825,cs),
(-19.349,-141.307,o),
(-35.113,-139.646,o),
(-35.113,-125.881,cs),
(-35.113,-123.845,o),
(-34.768,-121.545,o),
(-34.033,-118.941,cs),
(-14.744,-50.63,o),
(44.425,68.073,o),
(109.132,181.629,c),
(92.702,188.828,o),
(78.021,197.129,o),
(67.631,205.993,cs),
(63.643,209.395,o),
(60.734,214.489,o),
(60.734,220.546,cs),
(60.734,227.112,o),
(64.152,234.812,o),
(73.32,242.717,cs),
(83.23,251.261,o),
(93.347,254.898,o),
(101.379,254.898,cs),
(106.373,254.898,o),
(110.56,253.492,o),
(113.391,250.985,cs),
(121.863,243.48,o),
(130.122,237.05,o),
(138.109,231.52,c),
(178.748,300.178,o),
(219.563,363.705,o),
(252.385,408.896,c),
(249.954,408.839,o),
(247.46,408.811,o),
(244.913,408.811,cs),
(198.093,408.811,o),
(133.412,418.44,o),
(109.623,440.884,c),
(91.986,408.299,o),
(60.555,377,o),
(38,377,cs),
(20,377,o),
(18,382,o),
(18,393,cs),
(18,408,o),
(34.725,452,o),
(42,482,cs),
(47.147,503.225,o),
(67,505,o),
(87,505,cs),
(104.386,505,o),
(119.257,497.047,o),
(123,493,cs)
);
}
);
width = 285;
}
);
unicode = 55;
},
{
color = 5;
glyphname = eight;
lastChange = "2022-02-25 03:47:22 +0000";
layers = (
{
layerId = master01;
shapes = (
{
closed = 1;
nodes = (
(97.64,211.383,o),
(65.124,180.678,o),
(55,146,cs),
(51.624,134.436,o),
(50.118,123.624,o),
(50.118,113.651,cs),
(50.118,66.384,o),
(83.958,37.989,o),
(113,37.989,cs),
(113.333,37.989,o),
(113.667,37.992,o),
(114,38,cs),
(162.407,39.097,o),
(191.165,93.929,o),
(191.165,142.239,cs),
(191.165,184.464,o),
(165.967,214.026,o),
(138.062,244.447,c)
);
},
{
closed = 1;
nodes = (
(81.473,311.956,o),
(64.726,343.547,o),
(64.726,386.636,cs),
(64.726,389.832,o),
(64.818,393.091,o),
(65.007,396.416,cs),
(68.277,453.881,o),
(118.015,499.609,o),
(172.565,501.088,cs),
(174.068,501.129,o),
(175.558,501.149,o),
(177.036,501.149,cs),
(234.994,501.149,o),
(273.667,470.204,o),
(279,439,cs),
(279.369,436.841,o),
(279.634,434.761,o),
(279.801,432.768,c),
(283.982,437.76,o),
(288.055,442.879,o),
(292.003,448.138,cs),
(303.922,464.013,o),
(312.922,469.892,o),
(319.189,469.892,cs),
(326.672,469.892,o),
(330.257,461.507,o),
(330.257,451.749,cs),
(330.257,445.043,o),
(328.564,437.688,o),
(325.279,431.961,cs),
(290.31,370.983,o),
(237.938,324.864,o),
(188.35,284.782,c),
(225.054,245.264,o),
(264.123,204.577,o),
(264.123,144.158,cs),
(264.123,141.346,o),
(264.039,138.491,o),
(263.865,135.592,cs),
(259.191,57.454,o),
(189.334,-10.331,o),
(108.565,-10.331,cs),
(106.627,-10.331,o),
(104.682,-10.292,o),
(102.732,-10.213,cs),
(57.433,-8.381,o),
(-2.058,29.483,o),
(-2.058,112.175,cs),
(-2.058,122.817,o),
(-1.073,134.201,o),
(1.055,146.346,cs),
(11.201,204.268,o),
(52.084,245.179,o),
(102.777,284.652,c)
);
},
{
closed = 1;
nodes = (
(254.973,412.805,o),
(251.008,418.114,o),
(247.152,425.783,cs),
(238.675,442.646,o),
(218.232,467.823,o),
(185.452,467.823,cs),
(180.66,467.823,o),
(175.605,467.285,o),
(170.285,466.104,cs),
(139.042,459.172,o),
(125.155,433.175,o),
(125.155,400.703,cs),
(125.155,398.842,o),
(125.2,396.96,o),
(125.291,395.059,cs),
(126.582,367.967,o),
(138.501,345.009,o),
(154.86,323.412,c),
(190.114,349.239,o),
(226.596,376.571,o),
(258.756,409.542,c)
);
}
);
width = 342;
}
);
unicode = 56;
},
{
color = 5;
glyphname = nine;
lastChange = "2022-02-25 03:47:22 +0000";
layers = (
{
layerId = master01;
shapes = (
{
closed = 1;
nodes = (
(155,38.541,o),
(214.393,155,o),
(234.503,217.919,c),
(211.279,201.051,o),
(179.35,189.548,o),
(139.82,189.548,cs),
(135.339,189.548,o),
(130.761,189.695,o),
(126.086,190,cs),
(55.976,194.568,o),
(17.35,249.566,o),
(17.35,310.42,cs),
(17.35,329.496,o),
(21.146,349.147,o),
(28.956,368,cs),
(52.055,423.757,o),
(117.786,492,o),
(204,492,cs),
(231.744,492,o),
(265.27,483.148,o),
(280.396,470.143,c),
(281.915,489.807,o),
(324,492,o),
(327,492,cs),
(328,492,o),
(328,492,o),
(329,492,cs),
(350.988,492,o),
(362.113,491.285,o),
(362.113,474.129,cs),
(362.113,470.998,o),
(361.742,467.321,o),
(361,463,cs),
(326.63,262.957,o),
(271,26.165,o),
(95,-18,cs),
(80.629,-21.606,o),
(66.741,-23.218,o),
(53.573,-23.218,cs),
(9.93,-23.218,o),
(-25.804,-5.51,o),
(-45,16,cs),
(-50.985,22.707,o),
(-58.701,35.71,o),
(-58.701,48.978,cs),
(-58.701,55.493,o),
(-56.84,62.072,o),
(-52,68,cs),
(-44.423,77.28,o),
(-32.628,81.379,o),
(-21.105,81.379,cs),
(-11.968,81.379,o),
(-3.003,78.802,o),
(3.553,74.187,cs),
(19.113,63.232,o),
(21.606,15.885,o),
(59.112,15.885,cs),
(63.309,15.885,o),
(67.943,16.477,o),
(73.084,17.78,cs)
);
},
{
closed = 1;
nodes = (
(269.826,350.595,o),
(271.699,363.555,o),
(271.699,375.95,cs),
(271.699,414.363,o),
(253.707,447.366,o),
(204.509,447.366,cs),
(201.86,447.366,o),
(199.121,447.27,o),
(196.289,447.074,cs),
(158,444.429,o),
(117.544,406.056,o),
(96.956,366,cs),
(88.106,348.781,o),
(83.99,330.41,o),
(83.99,312.965,cs),
(83.99,269.622,o),
(109.401,232,o),
(150.757,232,cs),
(204,232,o),
(248.952,271,o),
(266.522,338,cs)
);
}
);
width = 340;
}
);
unicode = 57;
},
{
glyphname = uni05F3;
layers = (
{
layerId = master01;
shapes = (
{
closed = 1;
nodes = (
(207.45,569.219,o),
(214.571,575.06,o),
(226.72,575.06,cs),
(233.723,575.06,o),
(242.396,573.119,o),
(253,568,cs),
(266.675,561.398,o),
(271.528,552.767,o),
(271.528,545.065,cs),
(271.528,540.964,o),
(270.152,537.127,o),
(268,534,cs),
(240.476,494,o),
(179.263,427.95,o),
(148,421,cs),
(144.713,420.269,o),
(141.59,419.931,o),
(138.678,419.931,cs),
(125.216,419.931,o),
(116.237,427.16,o),
(116.237,436.309,cs),
(116.237,437.828,o),
(116.485,439.4,o),
(117,441,cs),
(121.831,456,o),
(153.758,488,o),
(204,564,cs)
);
}
);
width = 292;
}
);
unicode = 1523;
},
{
glyphname = uni05F4;
layers = (
{
layerId = master01;
shapes = (
{
closed = 1;
nodes = (
(228.213,512.909,o),
(235.334,518.751,o),
(247.483,518.751,cs),
(254.486,518.751,o),
(263.159,516.81,o),
(273.763,511.69,cs),
(287.438,505.089,o),
(292.29,496.458,o),
(292.29,488.756,cs),
(292.29,484.655,o),
(290.915,480.818,o),
(288.763,477.69,cs),
(261.238,437.691,o),
(200.025,371.641,o),
(168.763,364.69,cs),
(165.476,363.96,o),
(162.354,363.622,o),
(159.44,363.622,cs),
(145.979,363.622,o),
(137,370.851,o),
(137,380,cs),
(137,381.519,o),
(137.247,383.091,o),
(137.763,384.69,cs),
(142.594,399.69,o),
(174.521,431.691,o),
(224.763,507.69,cs)
);
},
{
closed = 1;
nodes = (
(91.213,511.909,o),
(98.334,517.751,o),
(110.483,517.751,cs),
(117.486,517.751,o),
(126.159,515.81,o),
(136.763,510.69,cs),
(150.438,504.089,o),
(155.29,495.458,o),
(155.29,487.756,cs),
(155.29,483.655,o),
(153.915,479.818,o),
(151.763,476.69,cs),
(124.238,436.691,o),
(63.025,370.641,o),
(31.763,363.69,cs),
(28.476,362.96,o),
(25.354,362.622,o),
(22.44,362.622,cs),
(8.979,362.622,o),
(0,369.851,o),
(0,379,cs),
(0,380.519,o),
(0.247,382.091,o),
(0.763,383.69,cs),
(5.594,398.69,o),
(37.521,430.691,o),
(87.763,506.69,cs)
);
}
);
width = 210;
}
);
unicode = 1524;
},
{
glyphname = uni05BE;
layers = (
{
layerId = master01;
shapes = (
{
closed = 1;
nodes = (
(230.998,251.317,o),
(232.597,251.578,o),
(234.295,251.578,cs),
(243.425,251.578,o),
(255.408,244.03,o),
(263.595,228.122,cs),
(267.021,221.465,o),
(268.437,215.704,o),
(268.437,210.837,cs),
(268.437,200.577,o),
(262.142,194.288,o),
(255.114,191.941,cs),
(230.017,183.559,o),
(173.473,178.098,o),
(122.498,178.098,cs),
(79.932,178.098,o),
(41.249,181.906,o),
(28,191,cs),
(17.806,197.997,o),
(12.431,206.718,o),
(12.431,214.151,cs),
(12.431,219.65,o),
(15.373,224.444,o),
(21.484,227.314,cs),
(25.962,229.417,o),
(32.646,230.06,o),
(41.356,230.06,cs),
(55.073,230.06,o),
(73.812,228.465,o),
(96.861,228.465,cs),
(131.942,228.465,o),
(177.007,232.16,o),
(229.54,250.8,cs)
);
}
);
width = 285;
}
);
unicode = 1470;
},
{
glyphname = quotedblleft_quotedblleft;
layers = (
{
layerId = master01;
shapes = (
{
closed = 1;
nodes = (
(-137.604,430.018,o),
(-74.039,420.911,o),
(-33.794,420.911,cs),
(-31.598,420.911,o),
(-29.471,420.938,o),
(-27.423,420.989,cs),
(61.978,423.224,o),
(140.629,459.003,o),
(188,516,cs),
(205.195,536.689,o),
(220.109,546.749,o),
(229.524,548.409,cs),
(230.665,548.61,o),
(231.748,548.706,o),
(232.773,548.706,cs),
(242.319,548.706,o),
(246.883,540.376,o),
(246.883,530.967,cs),
(246.883,525.915,o),
(245.567,520.552,o),
(243,516,cs),
(178.801,402.122,o),
(56,363,o),
(-17,363,cs),
(-122,363,o),
(-177,394,o),
(-203.207,439.996,cs),
(-207.377,447.315,o),
(-209.187,454.387,o),
(-209.187,460.578,cs),
(-209.187,473.148,o),
(-201.725,482.085,o),
(-191.403,482.085,cs),
(-184.149,482.085,o),
(-175.482,477.671,o),
(-167,467,cs)
);
}
);
width = 0;
}
);
},
{
glyphname = quotedblright_quotedblright;
layers = (
{
layerId = master01;
shapes = (
{
closed = 1;
nodes = (
(-137.604,430.018,o),
(-74.039,420.911,o),
(-33.794,420.911,cs),
(-31.598,420.911,o),
(-29.471,420.938,o),
(-27.423,420.989,cs),
(61.978,423.224,o),
(140.629,459.003,o),
(188,516,cs),
(205.195,536.689,o),
(220.109,546.749,o),
(229.524,548.409,cs),
(230.665,548.61,o),
(231.748,548.706,o),
(232.773,548.706,cs),
(242.319,548.706,o),
(246.883,540.376,o),
(246.883,530.967,cs),
(246.883,525.915,o),
(245.567,520.552,o),
(243,516,cs),
(178.801,402.122,o),
(56,363,o),
(-17,363,cs),
(-122,363,o),
(-177,394,o),
(-203.207,439.996,cs),
(-207.377,447.315,o),
(-209.187,454.387,o),
(-209.187,460.578,cs),
(-209.187,473.148,o),
(-201.725,482.085,o),
(-191.403,482.085,cs),
(-184.149,482.085,o),
(-175.482,477.671,o),
(-167,467,cs)
);
}
);
width = 0;
}
);
},
{
glyphname = quotedbl_quotedblright;
layers = (
{
layerId = master01;
shapes = (
{
closed = 1;
nodes = (
(-121.604,430.018,o),
(-58.039,420.911,o),
(-17.794,420.911,cs),
(-15.598,420.911,o),
(-13.471,420.938,o),
(-11.423,420.989,cs),
(77.978,423.224,o),
(156.629,459.003,o),
(204,516,cs),
(221.195,536.689,o),
(236.109,546.749,o),
(245.524,548.409,cs),
(246.665,548.61,o),
(247.748,548.706,o),
(248.773,548.706,cs),
(258.319,548.706,o),
(262.883,540.376,o),
(262.883,530.967,cs),
(262.883,525.915,o),
(261.567,520.552,o),
(259,516,cs),
(194.801,402.122,o),
(72,363,o),
(-1,363,cs),
(-106,363,o),
(-161,394,o),
(-187.207,439.996,cs),
(-191.377,447.315,o),
(-193.187,454.387,o),
(-193.187,460.578,cs),
(-193.187,473.148,o),
(-185.725,482.085,o),
(-175.403,482.085,cs),
(-168.149,482.085,o),
(-159.482,477.671,o),
(-151,467,cs)
);
}
);
width = 0;
}
);
},
{
glyphname = quotedbl_qudblrt_qudblrt;
layers = (
{
layerId = master01;
shapes = (
{
closed = 1;
nodes = (
(0,541,o),
(11.096,581,o),
(16,605,cs),
(20.373,626.398,o),
(41,628,o),
(61,628,cs),
(62,628,o),
(63,628,o),
(64,628,cs),
(84,628,o),
(97,628,o),
(97,607,cs),
(97,567,o),
(53,512,o),
(20,512,cs),
(2,512,o),
(0,517,o),
(0,528,cs)
);
},
{
closed = 1;
nodes = (
(61,389,o),
(67.096,417,o),
(72,441,cs),
(76.373,462.398,o),
(97,464,o),
(117,464,cs),
(118,464,o),
(119,464,o),
(120,464,cs),
(140,464,o),
(153,464,o),
(153,443,cs),
(153,403,o),
(114,360,o),
(81,360,cs),
(63,360,o),
(61,365,o),
(61,376,cs)
);
},
{
closed = 1;
nodes = (
(-115,385,o),
(-108.904,413,o),
(-104,437,cs),
(-99.627,458.398,o),
(-79,460,o),
(-59,460,cs),
(-58,460,o),
(-57,460,o),
(-56,460,cs),
(-36,460,o),
(-23,460,o),
(-23,439,cs),
(-23,399,o),
(-62,356,o),
(-95,356,cs),
(-113,356,o),
(-115,361,o),
(-115,372,cs)
);
}
);
width = 0;
}
);
},
{
glyphname = quotedbl_quotedbl;
layers = (
{
layerId = master01;
shapes = (
{
closed = 1;
nodes = (
(-121.604,430.018,o),
(-58.039,420.911,o),
(-17.794,420.911,cs),
(-15.598,420.911,o),
(-13.471,420.938,o),
(-11.423,420.989,cs),
(77.978,423.224,o),
(156.629,459.003,o),
(204,516,cs),
(221.195,536.689,o),
(236.109,546.749,o),
(245.524,548.409,cs),
(246.665,548.61,o),
(247.748,548.706,o),
(248.773,548.706,cs),
(258.319,548.706,o),
(262.883,540.376,o),
(262.883,530.967,cs),
(262.883,525.915,o),
(261.567,520.552,o),
(259,516,cs),
(194.801,402.122,o),
(72,363,o),
(-1,363,cs),
(-106,363,o),
(-161,394,o),
(-187.207,439.996,cs),
(-191.377,447.315,o),
(-193.187,454.387,o),
(-193.187,460.578,cs),
(-193.187,473.148,o),
(-185.725,482.085,o),
(-175.403,482.085,cs),
(-168.149,482.085,o),
(-159.482,477.671,o),
(-151,467,cs)
);
}
);
width = 0;
}
);
},
{
glyphname = quotedbl_quotedbl_quotedbl;
layers = (
{
layerId = master01;
shapes = (
{
closed = 1;
nodes = (
(0,541,o),
(11.096,581,o),
(16,605,cs),
(20.373,626.398,o),
(41,628,o),
(61,628,cs),
(62,628,o),
(63,628,o),
(64,628,cs),
(84,628,o),
(97,628,o),
(97,607,cs),
(97,567,o),
(53,512,o),
(20,512,cs),
(2,512,o),
(0,517,o),
(0,528,cs)
);
},
{
closed = 1;
nodes = (
(61,389,o),
(67.096,417,o),
(72,441,cs),
(76.373,462.398,o),
(97,464,o),
(117,464,cs),
(118,464,o),
(119,464,o),
(120,464,cs),
(140,464,o),
(153,464,o),
(153,443,cs),
(153,403,o),
(114,360,o),
(81,360,cs),
(63,360,o),
(61,365,o),
(61,376,cs)
);
},
{
closed = 1;
nodes = (
(-115,385,o),
(-108.904,413,o),
(-104,437,cs),
(-99.627,458.398,o),
(-79,460,o),
(-59,460,cs),
(-58,460,o),
(-57,460,o),
(-56,460,cs),
(-36,460,o),
(-23,460,o),
(-23,439,cs),
(-23,399,o),
(-62,356,o),
(-95,356,cs),
(-113,356,o),
(-115,361,o),
(-115,372,cs)
);
}
);
width = 0;
}
);
},
{
glyphname = period;
layers = (
{
layerId = master01;
shapes = (
{
closed = 1;
nodes = (
(0,29,o),
(6.095,40,o),
(11,64,cs),
(15.373,85.398,o),
(36,87,o),
(56,87,cs),
(57,87,o),
(58,87,o),
(59,87,cs),
(79,87,o),
(92,87,o),
(92,66,cs),
(92,26,o),
(53,0,o),
(20,0,cs),
(2,0,o),
(0,5,o),
(0,16,cs)
);
}
);
width = 180;
}
);
unicode = 46;
},
{
glyphname = comma;
layers = (
{
layerId = master01;
shapes = (
{
closed = 1;
nodes = (
(41.754,73.94,o),
(50.349,86.29,o),
(75.451,86.29,cs),
(78.216,86.29,o),
(81.182,86.141,o),
(84.361,85.819,cs),
(103.914,83.843,o),
(110.743,73.62,o),
(110.743,64.119,cs),
(110.743,62.37,o),
(110.511,60.645,o),
(110.085,59,cs),
(97.901,12,o),
(53,-57.776,o),
(26,-75,cs),
(19.298,-79.275,o),
(12.709,-81.183,o),
(7.038,-81.183,cs),
(-2.638,-81.183,o),
(-9.64,-75.63,o),
(-9.971,-66.809,cs),
(-9.977,-66.651,o),
(-9.98,-66.491,o),
(-9.98,-66.331,cs),
(-9.98,-50.498,o),
(18.677,-22.408,o),
(39.685,65.302,cs)
);
}
);
width = 200;
}
);
unicode = 44;
},
{
glyphname = colon;
layers = (
{
layerId = master01;
shapes = (
{
closed = 1;
nodes = (
(29,193,o),
(35.095,204,o),
(40,228,cs),
(44.373,249.398,o),
(65,251,o),
(85,251,cs),
(86,251,o),
(87,251,o),
(88,251,cs),
(108,251,o),
(121,251,o),
(121,230,cs),
(121,190,o),
(82,164,o),
(49,164,cs),
(31,164,o),
(29,169,o),
(29,180,cs)
);
},
{
closed = 1;
nodes = (
(0,29,o),
(6.095,40,o),
(11,64,cs),
(15.373,85.398,o),
(36,87,o),
(56,87,cs),
(57,87,o),
(58,87,o),
(59,87,cs),
(79,87,o),
(92,87,o),
(92,66,cs),
(92,26,o),
(53,0,o),
(20,0,cs),
(2,0,o),
(0,5,o),
(0,16,cs)
);
}
);
width = 200;
}
);
unicode = 58;
},
{
glyphname = semicolon;
layers = (
{
layerId = master01;
shapes = (
{
closed = 1;
nodes = (
(16.069,72.638,o),
(24.665,84.989,o),
(49.767,84.989,cs),
(52.532,84.989,o),
(55.497,84.839,o),
(58.677,84.518,cs),
(78.23,82.542,o),
(85.058,72.318,o),
(85.058,62.817,cs),
(85.058,61.068,o),
(84.827,59.343,o),
(84.4,57.698,cs),
(72.217,10.697,o),
(27.315,-59.078,o),
(0.315,-76.302,cs),
(-6.387,-80.577,o),
(-12.976,-82.485,o),
(-18.647,-82.485,cs),
(-28.322,-82.485,o),
(-35.325,-76.932,o),
(-35.655,-68.11,cs),
(-35.661,-67.952,o),
(-35.664,-67.793,o),
(-35.664,-67.632,cs),
(-35.664,-51.8,o),
(-7.008,-23.71,o),
(14,64,cs)
);
},
{
closed = 1;
nodes = (
(29,193,o),
(35.095,204,o),
(40,228,cs),
(44.373,249.398,o),
(65,251,o),
(85,251,cs),
(86,251,o),
(87,251,o),
(88,251,cs),
(108,251,o),
(121,251,o),
(121,230,cs),
(121,190,o),
(82,164,o),
(49,164,cs),
(31,164,o),
(29,169,o),
(29,180,cs)
);
}
);
width = 200;
}
);
unicode = 59;
},
{
color = 5;
glyphname = exclam;
lastChange = "2022-02-25 05:39:00 +0000";
layers = (
{
layerId = master01;
shapes = (
{
closed = 1;
nodes = (
(-28,0,o),
(-30,5,o),
(-30,16,cs),
(-30,29,o),
(-25,40,o),
(-19,64,cs),
(-15,80,o),
(-3,87,o),
(26,87,cs),
(54,87,o),
(62,85,o),
(62,66,cs),
(62,26,o),
(23,0,o),
(-10,0,cs)
);
},
{
closed = 1;
nodes = (
(49,161,o),
(41,163,o),
(41.192,173.475,cs),
(42,204,o),
(89,304,o),
(151.32,587.838,cs),
(156,609,o),
(172.336,609.489,o),
(192.336,609.49,cs),
(193.336,609.489,o),
(193.336,609.489,o),
(194.336,609.489,cs),
(213.763,609.489,o),
(227.375,609.393,o),
(227.375,590.151,cs),
(227.375,589.585,o),
(227.364,589.002,o),
(227.34,588.402,cs),
(224,513,o),
(113,161,o),
(59,161,cs)
);
}
);
width = 157;
},
{
associatedMasterId = master01;
layerId = "0F0C0BAA-EC15-4240-A623-0F6C8687846E";
name = "Feb 24, 22, 21:36";
shapes = (
{
closed = 1;
nodes = (
(-30,29,o),
(-23.905,40,o),
(-19,64,cs),
(-15,85,o),
(6,87,o),
(26,87,cs),
(27,87,o),
(28,87,o),
(29,87,cs),
(49,87,o),
(62,87,o),
(62,66,cs),
(62,26,o),
(23,0,o),
(-10,0,cs),
(-28,0,o),
(-30,5,o),
(-30,16,cs)
);
},
{
closed = 1;
nodes = (
(224,513,o),
(113,161,o),
(59,161,cs),
(59,161,o),
(59,161,o),
(59,161,cs),
(44,161,o),
(41,166,o),
(41.192,173.475,cs),
(41.192,175.35,o),
(41.363,177.398,o),
(41.555,179.592,cs),
(43.23,198.754,o),
(102.817,360.321,o),
(151.32,587.838,cs),
(155.874,609.198,o),
(172.336,609.489,o),
(192.336,609.49,cs),
(193.336,609.489,o),
(193.336,609.489,o),
(194.336,609.489,cs),
(213.763,609.489,o),
(227.375,609.393,o),
(227.375,590.151,cs),
(227.375,589.585,o),
(227.364,589.002,o),
(227.34,588.402,cs)
);
}
);
visible = 1;
width = 157;
}
);
unicode = 33;
},
{
glyphname = question;
layers = (
{
layerId = master01;
shapes = (
{
closed = 1;
nodes = (
(-12,29,o),
(-5.905,40,o),
(-1,64,cs),
(3.373,85.398,o),
(24,87,o),
(44,87,cs),
(45,87,o),
(46,87,o),
(47,87,cs),
(67,87,o),
(80,87,o),
(80,66,cs),
(80,26,o),
(41,0,o),
(8,0,cs),
(-10,0,o),
(-12,5,o),
(-12,16,cs)
);
},
{
closed = 1;
nodes = (
(59.135,302,o),
(162.705,377,o),
(176,466,cs),
(176.916,472.135,o),
(177.348,477.891,o),
(177.348,483.284,cs),
(177.348,531.203,o),
(143.262,550.361,o),
(112.329,550.361,cs),
(109.859,550.361,o),
(107.41,550.239,o),
(105,550,cs),
(78,547.319,o),
(49.216,530.68,o),
(31,492,cs),
(21.445,471.711,o),
(9.053,463.263,o),
(-1.393,463.263,cs),
(-13.153,463.263,o),
(-22.446,473.97,o),
(-22.446,490.543,cs),
(-22.446,492.608,o),
(-22.302,494.763,o),
(-22,497,cs),
(-15.26,547,o),
(38,592.778,o),
(121,599,cs),
(125.615,599.346,o),
(130.162,599.515,o),
(134.632,599.515,cs),
(209.434,599.515,o),
(263.056,552.108,o),
(263.056,491.419,cs),
(263.056,490.284,o),
(263.038,489.144,o),
(263,488,cs),
(258.845,362,o),
(135.374,322,o),
(77,184,cs),
(72.411,173.15,o),
(60.073,165.314,o),
(49.153,165.314,cs),
(38.805,165.314,o),
(29.73,172.351,o),
(29.73,190.53,cs),
(29.73,197.37,o),
(31.015,205.787,o),
(34,216,cs)
);
}
);
width = 202;
}
);
unicode = 63;
},
{
glyphname = questiondown;
kernLeft = kern_questiondown3;
kernRight = kern_questiondown3;
lastChange = "2022-02-25 03:10:01 +0000";
layers = (
{
layerId = master01;
shapes = (
{
closed = 1;
nodes = (
(300,-215,o),
(332,-189,o),
(378,-156,cs),
(419,-128,o),
(438,-89,o),
(438,-53,cs),
(438,-18,o),
(426,-13,o),
(400,-13,cs),
(359,-13,l),
(351,-23,l),
(351,-63,ls),
(351,-134,o),
(319,-170,o),
(263,-170,cs),
(199,-170,o),
(148,-130,o),
(148,-36,cs),
(148,30,o),
(206,75,o),
(305,110,c),
(279,255,l),
(259,255,l),
(243,110,l),
(264,184,l),
(113,119,o),
(56,50,o),
(56,-38,cs),
(56,-135,o),
(131,-215,o),
(233,-215,cs)
);
},
{
closed = 1;
nodes = (
(302,338,o),
(330,366,o),
(330,399,cs),
(330,431,o),
(302,460,o),
(269,460,cs),
(237,460,o),
(208,431,o),
(208,399,cs),
(208,366,o),
(237,338,o),
(269,338,cs)
);
}
);
width = 479;
}
);
unicode = 191;
},
{
glyphname = periodcentered;
kernLeft = kern_bullet3;
kernRight = kern_bullet3;
lastChange = "2022-02-25 03:10:01 +0000";
layers = (
{
layerId = master01;
shapes = (
{
closed = 1;
nodes = (
(158,210,o),
(186,238,o),
(186,271,cs),
(186,304,o),
(158,332,o),
(125,332,cs),
(92,332,o),
(64,304,o),
(64,271,cs),
(64,238,o),
(92,210,o),
(125,210,cs)
);
}
);
width = 250;
}
);
unicode = 183;
},
{
glyphname = bullet;
kernLeft = kern_bullet3;
kernRight = kern_bullet3;
lastChange = "2022-02-25 03:10:01 +0000";
layers = (
{
layerId = master01;
shapes = (
{
closed = 1;
nodes = (
(318,150,o),
(371,203,o),
(371,272,cs),
(371,342,o),
(318,393,o),
(250,393,cs),
(179,393,o),
(128,342,o),
(128,272,cs),
(128,203,o),
(179,150,o),
(250,150,cs)
);
}
);
width = 500;
}
);
unicode = 8226;
},
{
glyphname = asterisk;
layers = (
{
layerId = master01;
shapes = (
{
closed = 1;
nodes = (
(233.998,414.316,o),
(235.598,414.578,o),
(237.295,414.578,cs),
(246.425,414.578,o),
(258.408,407.03,o),
(266.595,391.122,cs),
(270.021,384.465,o),
(271.437,378.704,o),
(271.437,373.837,cs),
(271.437,363.576,o),
(265.143,357.288,o),
(258.114,354.941,cs),
(243.274,349.985,o),
(217.44,346.05,o),
(188.263,343.662,c),
(212.948,314.673,o),
(231.961,292.951,o),
(234.373,285.885,cs),
(234.917,284.293,o),
(235.191,282.727,o),
(235.218,281.208,cs),
(235.219,281.127,o),
(235.22,281.045,o),
(235.22,280.964,cs),
(235.22,271.929,o),
(226.407,264.674,o),
(213.066,264.44,cs),
(212.847,264.437,o),
(212.626,264.435,o),
(212.405,264.435,cs),
(209.683,264.435,o),
(206.778,264.725,o),
(203.728,265.347,cs),
(190.827,267.979,o),
(164.84,289.006,o),
(136.793,315.639,c),
(135.189,313.064,o),
(133.589,310.516,o),
(132,308,cs),
(108,270,o),
(88,251,o),
(74,251,cs),
(55,251,o),
(55,257,o),
(55,268,cs),
(55,274.856,o),
(65.465,298.974,o),
(82.657,342.6,c),
(58.704,344.462,o),
(39.553,348.13,o),
(31,354,cs),
(20.806,360.997,o),
(15.431,369.718,o),
(15.431,377.15,cs),
(15.431,382.65,o),
(18.373,387.444,o),
(24.484,390.314,cs),
(28.962,392.417,o),
(35.646,393.061,o),
(44.355,393.061,cs),
(49.937,393.061,o),
(56.35,392.796,o),
(63.546,392.483,c),
(51.646,406.256,o),
(41.934,418.377,o),
(36,427,cs),
(33.849,430.127,o),
(32.473,433.965,o),
(32.473,438.065,cs),
(32.473,445.768,o),
(37.325,454.398,o),
(51,461,cs),
(61.604,466.119,o),
(70.277,468.06,o),
(77.28,468.06,cs),
(89.429,468.06,o),
(96.55,462.219,o),
(100,457,cs),
(105.099,449.288,o),
(110.494,441.532,o),
(116.079,433.805,c),
(120.091,446.088,o),
(123.795,458.249,o),
(127,470,cs),
(133,491,o),
(152,492,o),
(172,492,cs),
(173,492,o),
(173,492,o),
(174,492,cs),
(194,492,o),
(208,492,o),
(208,471,cs),
(208,458.629,o),
(197.903,431.378,o),
(182.914,399.794,c),
(198.576,403.097,o),
(215.149,407.629,o),
(232.54,413.8,cs)
);
}
);
width = 285;
}
);
unicode = 42;
},
{
glyphname = numbersign;
layers = (
{
layerId = master01;
shapes = (
{
closed = 1;
nodes = (
(19.555,31.319,o),
(19.502,31.319,o),
(19.449,31.32,cs),
(4.374,31.571,o),
(1.641,36.304,o),
(1.641,43.795,cs),
(1.641,45.67,o),
(1.812,47.718,o),
(2.004,49.912,cs),
(2.758,58.531,o),
(25.072,116.919,o),
(53.812,199.264,c),
(30.841,201.591,o),
(14.616,205.14,o),
(9.48,210.181,cs),
(1.78,217.739,o),
(-2.079,225.953,o),
(-2.079,232.787,cs),
(-2.079,239.578,o),
(1.732,245.006,o),
(9.369,247.075,cs),
(12.997,248.058,o),
(20.868,248.393,o),
(31.988,248.393,cs),
(42.297,248.393,o),
(55.398,248.105,o),
(70.502,247.779,c),
(81.688,280.808,o),
(93.353,316.391,o),
(104.761,353.269,c),
(81.817,355.596,o),
(65.612,359.144,o),
(60.48,364.181,cs),
(52.78,371.739,o),
(48.921,379.953,o),
(48.921,386.787,cs),
(48.921,393.578,o),
(52.732,399.006,o),
(60.369,401.075,cs),
(63.997,402.058,o),
(71.868,402.393,o),
(82.988,402.393,cs),
(92.811,402.393,o),
(105.17,402.131,o),
(119.382,401.825,c),
(134.882,454.818,o),
(149.244,509.288,o),
(160.43,561.756,cs),
(164.983,583.116,o),
(181.445,583.407,o),
(201.445,583.408,cs),
(202.445,583.407,o),
(202.445,583.407,o),
(203.445,583.407,cs),
(222.872,583.407,o),
(236.485,583.31,o),
(236.485,564.07,cs),
(236.485,539.69,o),
(219.535,476.049,o),
(194.784,400.87,c),
(227.437,400.969,o),
(262.678,401.974,o),
(296.598,405.118,c),
(311.462,456.311,o),
(325.2,508.76,o),
(335.984,559.348,cs),
(340.538,580.708,o),
(357,581,o),
(377,581,cs),
(378,581,o),
(378,581,o),
(379,581,cs),
(398.427,581,o),
(412.039,580.902,o),
(412.039,561.662,cs),
(412.039,539.452,o),
(397.973,484.66,o),
(376.757,418.244,c),
(384.316,420.226,o),
(391.562,422.423,o),
(398.426,424.858,cs),
(399.884,425.376,o),
(401.483,425.637,o),
(403.182,425.637,cs),
(412.311,425.637,o),
(424.294,418.088,o),
(432.48,402.181,cs),
(435.906,395.523,o),
(437.322,389.763,o),
(437.322,384.896,cs),
(437.322,374.635,o),
(431.028,368.347,o),
(424,366,cs),
(413.017,362.332,o),
(388.031,358.904,o),
(356.004,356.144,c),
(345.382,325.616,o),
(333.834,294.109,o),
(321.897,263.258,c),
(330.855,265.49,o),
(339.402,268.011,o),
(347.426,270.858,cs),
(348.884,271.376,o),
(350.483,271.637,o),
(352.182,271.637,cs),
(361.311,271.637,o),
(373.294,264.088,o),
(381.48,248.181,cs),
(384.906,241.523,o),
(386.322,235.763,o),
(386.322,230.896,cs),
(386.322,220.635,o),
(380.028,214.347,o),
(373,212,cs),
(361.125,208.035,o),
(332.882,204.349,o),
(297.069,201.486,c),
(256.976,105.668,o),
(216.662,28.911,o),
(195.163,28.911,cs),
(195.11,28.911,o),
(195.057,28.911,o),
(195.004,28.912,cs),
(179.929,29.163,o),
(177.195,33.896,o),
(177.195,41.387,cs),
(177.195,43.262,o),
(177.367,45.31,o),
(177.559,47.504,cs),
(178.314,56.144,o),
(200.738,114.802,o),
(229.582,197.472,c),
(202.063,196.322,o),
(173.442,195.668,o),
(146.264,195.668,cs),
(136.679,195.668,o),
(127.273,195.749,o),
(118.158,195.919,c),
(79.186,103.853,o),
(40.507,31.319,o),
(19.608,31.319,cs)
);
},
{
closed = 1;
nodes = (
(165.417,315.749,o),
(152.372,280.698,o),
(138.986,246.862,c),
(173.758,246.876,o),
(211.734,247.864,o),
(248.078,251.352,c),
(258.705,282.864,o),
(269.721,316.59,o),
(280.504,351.469,c),
(253.009,350.32,o),
(224.416,349.668,o),
(197.264,349.668,cs),
(190.536,349.668,o),
(183.897,349.708,o),
(177.385,349.79,c)
);
}
);
width = 446;
}
);
unicode = 35;
},
{
glyphname = slash;
layers = (
{
layerId = master01;
shapes = (
{
closed = 1;
nodes = (
(292.481,627.923,o),
(294.921,628.348,o),
(297.203,628.348,cs),
(304.721,628.348,o),
(310.535,623.737,o),
(310.535,617.127,cs),
(310.535,615.229,o),
(310.056,613.166,o),
(309,611,cs),
(280.237,552.001,o),
(131.885,166.421,o),
(62.746,-67.005,cs),
(58.157,-82.499,o),
(45.676,-85.87,o),
(31.424,-85.87,cs),
(26.413,-85.87,o),
(21.183,-85.453,o),
(16,-85,cs),
(15.004,-84.912,o),
(15.004,-84.912,o),
(14.008,-84.825,cs),
(-4.739,-83.185,o),
(-18.194,-82.008,o),
(-18.194,-64.448,cs),
(-18.194,10.888,o),
(250.031,612.128,o),
(290,627,cs)
);
}
);
width = 219;
}
);
unicode = 47;
},
